<svg xmlns="http://www.w3.org/2000/svg" xmlns:xlink="http://www.w3.org/1999/xlink" width="1512" zoomAndPan="magnify" viewBox="0 0 1134 425.249996" height="567" preserveAspectRatio="xMidYMid meet" version="1.0"><defs><g/><clipPath id="b4031a87b3"><path d="M 707.488281 204 L 849 204 L 849 346 L 707.488281 346 Z M 707.488281 204 " clip-rule="nonzero"/></clipPath><clipPath id="d632366eab"><path d="M 899 311 L 1114.570312 311 L 1114.570312 348 L 899 348 Z M 899 311 " clip-rule="nonzero"/></clipPath></defs><path fill="#284747" d="M 886.523438 200.25 C 886.523438 201.53125 886.492188 202.8125 886.429688 204.09375 C 886.367188 205.375 886.273438 206.652344 886.148438 207.925781 C 886.019531 209.203125 885.863281 210.476562 885.675781 211.742188 C 885.488281 213.011719 885.269531 214.273438 885.019531 215.53125 C 884.769531 216.789062 884.488281 218.039062 884.179688 219.28125 C 883.867188 220.523438 883.527344 221.757812 883.15625 222.984375 C 882.785156 224.210938 882.382812 225.429688 881.949219 226.636719 C 881.519531 227.84375 881.058594 229.039062 880.570312 230.222656 C 880.078125 231.40625 879.5625 232.578125 879.011719 233.738281 C 878.464844 234.894531 877.890625 236.039062 877.289062 237.171875 C 876.683594 238.300781 876.054688 239.414062 875.394531 240.515625 C 874.738281 241.613281 874.050781 242.695312 873.339844 243.761719 C 872.628906 244.828125 871.894531 245.875 871.128906 246.90625 C 870.367188 247.933594 869.582031 248.945312 868.769531 249.9375 C 867.957031 250.925781 867.121094 251.898438 866.261719 252.847656 C 865.402344 253.796875 864.519531 254.722656 863.613281 255.632812 C 862.707031 256.539062 861.78125 257.421875 860.832031 258.28125 C 859.886719 259.140625 858.917969 259.980469 857.925781 260.792969 C 856.9375 261.605469 855.929688 262.394531 854.898438 263.15625 C 853.871094 263.921875 852.824219 264.660156 851.761719 265.371094 C 850.695312 266.082031 849.617188 266.769531 848.519531 267.425781 C 847.421875 268.085938 846.304688 268.71875 845.175781 269.320312 C 844.046875 269.925781 842.90625 270.503906 841.75 271.050781 C 840.589844 271.597656 839.421875 272.117188 838.238281 272.609375 C 837.054688 273.097656 835.863281 273.558594 834.65625 273.992188 C 833.453125 274.421875 832.238281 274.824219 831.011719 275.199219 C 829.785156 275.570312 828.554688 275.910156 827.3125 276.222656 C 826.070312 276.535156 824.820312 276.816406 823.566406 277.066406 C 822.308594 277.316406 821.050781 277.535156 819.785156 277.722656 C 818.515625 277.910156 817.246094 278.066406 815.972656 278.191406 C 814.699219 278.320312 813.421875 278.414062 812.144531 278.476562 C 810.867188 278.539062 809.585938 278.570312 808.304688 278.570312 C 807.027344 278.570312 805.746094 278.539062 804.46875 278.476562 C 803.191406 278.414062 801.914062 278.320312 800.640625 278.191406 C 799.367188 278.066406 798.097656 277.910156 796.828125 277.722656 C 795.5625 277.535156 794.304688 277.316406 793.046875 277.066406 C 791.792969 276.816406 790.542969 276.535156 789.300781 276.222656 C 788.058594 275.910156 786.828125 275.570312 785.601562 275.199219 C 784.375 274.824219 783.160156 274.421875 781.957031 273.992188 C 780.75 273.558594 779.558594 273.097656 778.375 272.609375 C 777.191406 272.117188 776.023438 271.597656 774.863281 271.050781 C 773.707031 270.503906 772.566406 269.925781 771.433594 269.320312 C 770.304688 268.71875 769.191406 268.085938 768.09375 267.425781 C 766.996094 266.769531 765.917969 266.082031 764.851562 265.371094 C 763.789062 264.660156 762.742188 263.921875 761.714844 263.15625 C 760.683594 262.394531 759.675781 261.605469 758.6875 260.792969 C 757.695312 259.980469 756.726562 259.140625 755.78125 258.28125 C 754.832031 257.421875 753.902344 256.539062 753 255.632812 C 752.09375 254.722656 751.210938 253.796875 750.351562 252.847656 C 749.492188 251.898438 748.65625 250.925781 747.84375 249.9375 C 747.03125 248.945312 746.246094 247.933594 745.480469 246.90625 C 744.71875 245.875 743.984375 244.828125 743.273438 243.761719 C 742.5625 242.695312 741.875 241.613281 741.21875 240.515625 C 740.558594 239.414062 739.929688 238.300781 739.324219 237.171875 C 738.722656 236.039062 738.148438 234.894531 737.597656 233.738281 C 737.050781 232.578125 736.535156 231.40625 736.042969 230.222656 C 735.554688 229.039062 735.09375 227.84375 734.664062 226.636719 C 734.230469 225.429688 733.828125 224.210938 733.457031 222.984375 C 733.085938 221.757812 732.746094 220.523438 732.433594 219.28125 C 732.121094 218.039062 731.84375 216.789062 731.59375 215.53125 C 731.34375 214.273438 731.125 213.011719 730.9375 211.742188 C 730.75 210.476562 730.59375 209.203125 730.464844 207.925781 C 730.339844 206.652344 730.246094 205.375 730.183594 204.09375 C 730.121094 202.8125 730.089844 201.53125 730.089844 200.25 C 730.089844 198.96875 730.121094 197.6875 730.183594 196.40625 C 730.246094 195.128906 730.339844 193.851562 730.464844 192.574219 C 730.59375 191.300781 730.75 190.027344 730.9375 188.757812 C 731.125 187.492188 731.34375 186.230469 731.59375 184.972656 C 731.84375 183.714844 732.121094 182.464844 732.433594 181.222656 C 732.746094 179.976562 733.085938 178.742188 733.457031 177.515625 C 733.828125 176.289062 734.230469 175.074219 734.664062 173.867188 C 735.09375 172.660156 735.554688 171.464844 736.042969 170.28125 C 736.535156 169.09375 737.050781 167.925781 737.597656 166.765625 C 738.148438 165.605469 738.722656 164.460938 739.324219 163.332031 C 739.929688 162.203125 740.558594 161.085938 741.21875 159.988281 C 741.875 158.886719 742.5625 157.804688 743.273438 156.738281 C 743.984375 155.671875 744.71875 154.625 745.480469 153.597656 C 746.246094 152.566406 747.03125 151.558594 747.84375 150.566406 C 748.65625 149.574219 749.492188 148.605469 750.351562 147.65625 C 751.210938 146.707031 752.09375 145.777344 753 144.871094 C 753.902344 143.964844 754.832031 143.082031 755.78125 142.21875 C 756.726562 141.359375 757.695312 140.523438 758.6875 139.710938 C 759.675781 138.898438 760.683594 138.109375 761.714844 137.34375 C 762.742188 136.582031 763.789062 135.84375 764.851562 135.132812 C 765.917969 134.417969 766.996094 133.734375 768.09375 133.074219 C 769.191406 132.414062 770.304688 131.785156 771.433594 131.179688 C 772.566406 130.574219 773.707031 130 774.863281 129.453125 C 776.023438 128.902344 777.191406 128.382812 778.375 127.894531 C 779.558594 127.402344 780.75 126.941406 781.957031 126.511719 C 783.160156 126.078125 784.375 125.675781 785.601562 125.304688 C 786.828125 124.933594 788.058594 124.589844 789.300781 124.277344 C 790.542969 123.96875 791.792969 123.6875 793.046875 123.4375 C 794.304688 123.1875 795.5625 122.96875 796.828125 122.78125 C 798.097656 122.589844 799.367188 122.433594 800.640625 122.308594 C 801.914062 122.183594 803.191406 122.089844 804.46875 122.027344 C 805.746094 121.964844 807.027344 121.933594 808.304688 121.933594 C 809.585938 121.933594 810.867188 121.964844 812.144531 122.027344 C 813.421875 122.089844 814.699219 122.183594 815.972656 122.308594 C 817.246094 122.433594 818.515625 122.589844 819.785156 122.78125 C 821.050781 122.96875 822.308594 123.1875 823.566406 123.4375 C 824.820312 123.6875 826.070312 123.96875 827.3125 124.277344 C 828.554688 124.589844 829.785156 124.933594 831.011719 125.304688 C 832.238281 125.675781 833.453125 126.078125 834.65625 126.511719 C 835.863281 126.941406 837.054688 127.402344 838.238281 127.894531 C 839.421875 128.382812 840.589844 128.902344 841.75 129.453125 C 842.90625 130 844.046875 130.574219 845.175781 131.179688 C 846.304688 131.785156 847.421875 132.414062 848.519531 133.074219 C 849.617188 133.734375 850.695312 134.417969 851.761719 135.132812 C 852.824219 135.84375 853.871094 136.582031 854.898438 137.34375 C 855.929688 138.109375 856.9375 138.898438 857.925781 139.710938 C 858.917969 140.523438 859.886719 141.359375 860.832031 142.21875 C 861.78125 143.082031 862.707031 143.964844 863.613281 144.871094 C 864.519531 145.777344 865.402344 146.707031 866.261719 147.65625 C 867.121094 148.605469 867.957031 149.574219 868.769531 150.566406 C 869.582031 151.558594 870.367188 152.566406 871.128906 153.597656 C 871.894531 154.625 872.628906 155.671875 873.339844 156.738281 C 874.050781 157.804688 874.738281 158.886719 875.394531 159.988281 C 876.054688 161.085938 876.683594 162.203125 877.289062 163.332031 C 877.890625 164.460938 878.464844 165.605469 879.011719 166.765625 C 879.5625 167.925781 880.078125 169.09375 880.570312 170.28125 C 881.058594 171.464844 881.519531 172.660156 881.949219 173.867188 C 882.382812 175.074219 882.785156 176.289062 883.15625 177.515625 C 883.527344 178.742188 883.867188 179.976562 884.179688 181.222656 C 884.488281 182.464844 884.769531 183.714844 885.019531 184.972656 C 885.269531 186.230469 885.488281 187.492188 885.675781 188.757812 C 885.863281 190.027344 886.019531 191.300781 886.148438 192.574219 C 886.273438 193.851562 886.367188 195.128906 886.429688 196.40625 C 886.492188 197.6875 886.523438 198.96875 886.523438 200.25 Z M 886.523438 200.25 " fill-opacity="1" fill-rule="nonzero"/><path stroke-linecap="round" transform="matrix(0.805609, 0, 0, 0.806664, 707.532924, -15.68481)" fill="none" stroke-linejoin="round" d="M 100.101706 184.369103 C 72.880459 208.697704 46.250768 284.051475 85.661935 342.480793 " stroke="#4c8687" stroke-width="9.18" stroke-opacity="1" stroke-miterlimit="4"/><path stroke-linecap="round" transform="matrix(0.805609, 0, 0, 0.806664, 707.532924, -15.68481)" fill="none" stroke-linejoin="round" d="M 73.549595 193.531068 C 48.781849 223.782017 24.770518 268.531339 60.220203 327.309315 " stroke="#4c8687" stroke-width="9.18" stroke-opacity="1" stroke-miterlimit="4"/><path stroke-linecap="round" transform="matrix(0.805609, 0, 0, 0.806664, 707.532924, -15.68481)" fill="none" stroke-linejoin="round" d="M 124.418512 182.998682 C 97.202114 207.307913 62.159729 287.000543 112.11222 351.318312 " stroke="#4c8687" stroke-width="9.18" stroke-opacity="1" stroke-miterlimit="4"/><path stroke-linecap="round" transform="matrix(0.805609, 0, 0, 0.806664, 707.532924, -15.68481)" fill="none" stroke-linejoin="round" d="M 209.001239 288.090101 C 188.41802 308.089527 146.509713 319.440291 111.428537 305.169514 " stroke="#4c8687" stroke-width="9.18" stroke-opacity="1" stroke-miterlimit="4"/><path stroke-linecap="round" transform="matrix(0.805609, 0, 0, 0.806664, 707.532924, -15.68481)" fill="none" stroke-linejoin="round" d="M 205.810719 243.921875 C 185.232348 263.921302 143.309495 275.281751 108.238017 261.010974 " stroke="#4c8687" stroke-width="9.18" stroke-opacity="1" stroke-miterlimit="4"/><path stroke-linecap="round" transform="matrix(0.805609, 0, 0, 0.806664, 707.532924, -15.68481)" fill="none" stroke-linejoin="round" d="M 194.551771 316.520278 C 168.377868 332.219586 134.809522 336.398643 113.498981 326.839595 " stroke="#4c8687" stroke-width="9.18" stroke-opacity="1" stroke-miterlimit="4"/><path stroke-linecap="round" transform="matrix(0.805609, 0, 0, 0.806664, 707.532924, -15.68481)" fill="none" stroke-linejoin="round" d="M 165.090371 343.202322 C 147.91102 351.768662 128.952154 347.831729 119.899417 344.848764 " stroke="#4c8687" stroke-width="9.18" stroke-opacity="1" stroke-miterlimit="4"/><path stroke-linecap="round" transform="matrix(0.805609, 0, 0, 0.806664, 707.532924, -15.68481)" fill="none" stroke-linejoin="round" d="M 211.241391 266.110101 C 190.100558 287.591326 140.109277 297.930012 107.782228 284.240332 " stroke="#4c8687" stroke-width="9.18" stroke-opacity="1" stroke-miterlimit="4"/><path stroke-linecap="round" transform="matrix(0.805609, 0, 0, 0.806664, 707.532924, -15.68481)" fill="none" stroke-linejoin="round" d="M 149.297781 251.330864 C 145.17144 240.730683 133.650656 231.801157 117.998681 232.328987 " stroke="#4c8687" stroke-width="9.18" stroke-opacity="1" stroke-miterlimit="4"/><path stroke-linecap="round" transform="matrix(0.805609, 0, 0, 0.806664, 707.532924, -15.68481)" fill="none" stroke-linejoin="round" d="M 171.340494 244.42065 C 165.618892 229.268542 148.250437 212.218184 125.019765 213.03172 " stroke="#4c8687" stroke-width="9.18" stroke-opacity="1" stroke-miterlimit="4"/><path stroke-linecap="round" transform="matrix(0.805609, 0, 0, 0.806664, 707.532924, -15.68481)" fill="none" stroke-linejoin="round" d="M 193.140765 232.750283 C 188.781681 215.249574 163.999388 193.879726 137.010884 192.262339 " stroke="#4c8687" stroke-width="9.18" stroke-opacity="1" stroke-miterlimit="4"/><g clip-path="url(#b4031a87b3)"><path fill="#b33e2d" d="M 848.105469 275.140625 C 848.105469 276.292969 848.074219 277.445312 848.019531 278.59375 C 847.960938 279.746094 847.878906 280.894531 847.765625 282.039062 C 847.652344 283.1875 847.511719 284.328125 847.34375 285.46875 C 847.175781 286.605469 846.976562 287.742188 846.753906 288.871094 C 846.527344 290 846.277344 291.125 845.996094 292.242188 C 845.71875 293.359375 845.410156 294.46875 845.078125 295.570312 C 844.742188 296.671875 844.382812 297.765625 843.996094 298.851562 C 843.609375 299.933594 843.195312 301.007812 842.753906 302.074219 C 842.3125 303.136719 841.847656 304.1875 841.355469 305.230469 C 840.863281 306.269531 840.347656 307.300781 839.804688 308.316406 C 839.261719 309.332031 838.695312 310.332031 838.105469 311.320312 C 837.511719 312.308594 836.898438 313.28125 836.257812 314.238281 C 835.621094 315.195312 834.957031 316.136719 834.273438 317.0625 C 833.585938 317.988281 832.878906 318.894531 832.152344 319.785156 C 831.421875 320.675781 830.667969 321.546875 829.898438 322.402344 C 829.125 323.253906 828.332031 324.089844 827.519531 324.902344 C 826.707031 325.71875 825.871094 326.511719 825.019531 327.285156 C 824.167969 328.058594 823.296875 328.808594 822.410156 329.542969 C 821.519531 330.273438 820.613281 330.980469 819.6875 331.667969 C 818.765625 332.351562 817.824219 333.015625 816.867188 333.65625 C 815.914062 334.292969 814.941406 334.910156 813.953125 335.503906 C 812.96875 336.09375 811.96875 336.664062 810.953125 337.207031 C 809.9375 337.75 808.910156 338.265625 807.871094 338.757812 C 806.832031 339.25 805.78125 339.71875 804.71875 340.15625 C 803.65625 340.597656 802.582031 341.011719 801.5 341.402344 C 800.417969 341.789062 799.324219 342.152344 798.222656 342.484375 C 797.125 342.820312 796.015625 343.125 794.898438 343.40625 C 793.785156 343.6875 792.660156 343.9375 791.535156 344.164062 C 790.40625 344.386719 789.273438 344.585938 788.132812 344.753906 C 786.996094 344.921875 785.855469 345.0625 784.710938 345.175781 C 783.566406 345.289062 782.417969 345.375 781.269531 345.429688 C 780.121094 345.488281 778.972656 345.515625 777.824219 345.515625 C 776.671875 345.515625 775.523438 345.488281 774.375 345.429688 C 773.226562 345.375 772.078125 345.289062 770.933594 345.175781 C 769.789062 345.0625 768.648438 344.921875 767.511719 344.753906 C 766.371094 344.585938 765.238281 344.386719 764.109375 344.164062 C 762.984375 343.9375 761.859375 343.6875 760.746094 343.40625 C 759.628906 343.125 758.519531 342.820312 757.421875 342.484375 C 756.320312 342.152344 755.226562 341.789062 754.144531 341.402344 C 753.0625 341.011719 751.988281 340.597656 750.925781 340.15625 C 749.863281 339.71875 748.8125 339.25 747.773438 338.757812 C 746.734375 338.265625 745.707031 337.75 744.691406 337.207031 C 743.675781 336.664062 742.675781 336.09375 741.691406 335.503906 C 740.703125 334.910156 739.734375 334.292969 738.777344 333.65625 C 737.820312 333.015625 736.878906 332.351562 735.957031 331.667969 C 735.03125 330.980469 734.125 330.273438 733.234375 329.542969 C 732.347656 328.808594 731.476562 328.058594 730.625 327.285156 C 729.773438 326.511719 728.9375 325.71875 728.125 324.902344 C 727.3125 324.089844 726.519531 323.253906 725.746094 322.402344 C 724.976562 321.546875 724.222656 320.675781 723.492188 319.785156 C 722.765625 318.894531 722.058594 317.988281 721.371094 317.0625 C 720.6875 316.136719 720.023438 315.195312 719.386719 314.238281 C 718.746094 313.28125 718.132812 312.308594 717.539062 311.320312 C 716.949219 310.332031 716.382812 309.332031 715.839844 308.316406 C 715.296875 307.300781 714.78125 306.269531 714.289062 305.230469 C 713.796875 304.1875 713.332031 303.136719 712.890625 302.074219 C 712.449219 301.007812 712.035156 299.933594 711.648438 298.851562 C 711.261719 297.765625 710.902344 296.671875 710.566406 295.570312 C 710.234375 294.46875 709.925781 293.359375 709.648438 292.242188 C 709.367188 291.125 709.117188 290 708.890625 288.871094 C 708.667969 287.742188 708.46875 286.605469 708.300781 285.46875 C 708.132812 284.328125 707.992188 283.1875 707.878906 282.039062 C 707.765625 280.894531 707.683594 279.746094 707.625 278.59375 C 707.570312 277.445312 707.539062 276.292969 707.539062 275.140625 C 707.539062 273.988281 707.570312 272.839844 707.625 271.6875 C 707.683594 270.539062 707.765625 269.390625 707.878906 268.242188 C 707.992188 267.097656 708.132812 265.953125 708.300781 264.816406 C 708.46875 263.675781 708.667969 262.542969 708.890625 261.414062 C 709.117188 260.28125 709.367188 259.160156 709.648438 258.042969 C 709.925781 256.925781 710.234375 255.816406 710.566406 254.714844 C 710.902344 253.609375 711.261719 252.519531 711.648438 251.433594 C 712.035156 250.347656 712.449219 249.273438 712.890625 248.210938 C 713.332031 247.148438 713.796875 246.09375 714.289062 245.054688 C 714.78125 244.011719 715.296875 242.984375 715.839844 241.96875 C 716.382812 240.953125 716.949219 239.949219 717.539062 238.960938 C 718.132812 237.976562 718.746094 237 719.386719 236.042969 C 720.023438 235.085938 720.6875 234.144531 721.371094 233.21875 C 722.058594 232.296875 722.765625 231.386719 723.492188 230.496094 C 724.222656 229.605469 724.976562 228.734375 725.746094 227.882812 C 726.519531 227.027344 727.3125 226.195312 728.125 225.378906 C 728.9375 224.566406 729.773438 223.773438 730.625 223 C 731.476562 222.226562 732.347656 221.472656 733.234375 220.742188 C 734.125 220.011719 735.03125 219.304688 735.957031 218.617188 C 736.878906 217.929688 737.820312 217.269531 738.777344 216.628906 C 739.734375 215.988281 740.703125 215.371094 741.691406 214.78125 C 742.675781 214.1875 743.675781 213.621094 744.691406 213.078125 C 745.707031 212.535156 746.734375 212.015625 747.773438 211.523438 C 748.8125 211.03125 749.863281 210.566406 750.925781 210.125 C 751.988281 209.683594 753.0625 209.269531 754.144531 208.882812 C 755.226562 208.492188 756.320312 208.132812 757.421875 207.796875 C 758.519531 207.464844 759.628906 207.15625 760.746094 206.878906 C 761.859375 206.597656 762.984375 206.34375 764.109375 206.121094 C 765.238281 205.894531 766.371094 205.699219 767.511719 205.53125 C 768.648438 205.359375 769.789062 205.21875 770.933594 205.105469 C 772.078125 204.996094 773.226562 204.910156 774.375 204.851562 C 775.523438 204.796875 776.671875 204.769531 777.824219 204.769531 C 778.972656 204.769531 780.121094 204.796875 781.269531 204.851562 C 782.417969 204.910156 783.566406 204.996094 784.710938 205.105469 C 785.855469 205.21875 786.996094 205.359375 788.132812 205.53125 C 789.273438 205.699219 790.40625 205.894531 791.535156 206.121094 C 792.660156 206.34375 793.785156 206.597656 794.898438 206.878906 C 796.015625 207.15625 797.125 207.464844 798.222656 207.796875 C 799.324219 208.132812 800.417969 208.492188 801.5 208.882812 C 802.582031 209.269531 803.65625 209.683594 804.71875 210.125 C 805.78125 210.566406 806.832031 211.03125 807.871094 211.523438 C 808.910156 212.015625 809.9375 212.535156 810.953125 213.078125 C 811.96875 213.621094 812.96875 214.1875 813.953125 214.78125 C 814.941406 215.371094 815.914062 215.988281 816.867188 216.628906 C 817.824219 217.269531 818.765625 217.929688 819.6875 218.617188 C 820.613281 219.304688 821.519531 220.011719 822.410156 220.742188 C 823.296875 221.472656 824.167969 222.226562 825.019531 223 C 825.871094 223.773438 826.707031 224.566406 827.519531 225.378906 C 828.332031 226.195312 829.125 227.027344 829.898438 227.882812 C 830.667969 228.734375 831.421875 229.605469 832.152344 230.496094 C 832.878906 231.386719 833.585938 232.296875 834.273438 233.21875 C 834.957031 234.144531 835.621094 235.085938 836.257812 236.042969 C 836.898438 237 837.511719 237.972656 838.105469 238.960938 C 838.695312 239.949219 839.261719 240.953125 839.804688 241.96875 C 840.347656 242.984375 840.863281 244.011719 841.355469 245.054688 C 841.847656 246.09375 842.3125 247.148438 842.753906 248.210938 C 843.195312 249.273438 843.609375 250.347656 843.996094 251.433594 C 844.382812 252.519531 844.742188 253.609375 845.078125 254.714844 C 845.410156 255.816406 845.71875 256.925781 845.996094 258.042969 C 846.277344 259.160156 846.527344 260.28125 846.753906 261.414062 C 846.976562 262.542969 847.175781 263.675781 847.34375 264.816406 C 847.511719 265.953125 847.652344 267.097656 847.765625 268.242188 C 847.878906 269.390625 847.960938 270.539062 848.019531 271.6875 C 848.074219 272.839844 848.105469 273.988281 848.105469 275.140625 Z M 848.105469 275.140625 " fill-opacity="1" fill-rule="nonzero"/></g><path stroke-linecap="round" transform="matrix(0.805609, 0, 0, 0.806664, 707.532924, -15.68481)" fill="none" stroke-linejoin="round" d="M 9.210671 356.238268 C 21.468475 386.668388 77.001952 432.158609 138.441285 416.657843 " stroke="#e55039" stroke-width="9.18" stroke-opacity="1" stroke-miterlimit="4"/><path stroke-linecap="round" transform="matrix(0.805609, 0, 0, 0.806664, 707.532924, -15.68481)" fill="none" stroke-linejoin="round" d="M 8.851859 381.472411 C 26.850659 411.631353 57.320612 445.548056 117.848368 433.538715 " stroke="#e55039" stroke-width="9.18" stroke-opacity="1" stroke-miterlimit="4"/><path stroke-linecap="round" transform="matrix(0.805609, 0, 0, 0.806664, 707.532924, -15.68481)" fill="none" stroke-linejoin="round" d="M 15.460793 335.260661 C 27.718597 365.690781 84.391545 419.611754 154.001132 397.002232 " stroke="#e55039" stroke-width="9.18" stroke-opacity="1" stroke-miterlimit="4"/><path stroke-linecap="round" transform="matrix(0.805609, 0, 0, 0.806664, 707.532924, -15.68481)" fill="none" stroke-linejoin="round" d="M 130.101323 295.799323 C 140.720228 319.290175 137.539405 358.180101 114.779068 383.472354 " stroke="#e55039" stroke-width="9.18" stroke-opacity="1" stroke-miterlimit="4"/><path stroke-linecap="round" transform="matrix(0.805609, 0, 0, 0.806664, 707.532924, -15.68481)" fill="none" stroke-linejoin="round" d="M 91.790837 285.05871 C 102.409741 308.549562 99.228919 347.439489 76.468582 372.741427 " stroke="#e55039" stroke-width="9.18" stroke-opacity="1" stroke-miterlimit="4"/><path stroke-linecap="round" transform="matrix(0.805609, 0, 0, 0.806664, 707.532924, -15.68481)" fill="none" stroke-linejoin="round" d="M 149.709931 316.71882 C 154.999988 343.618775 148.289228 373.269257 133.708841 388.368097 " stroke="#e55039" stroke-width="9.18" stroke-opacity="1" stroke-miterlimit="4"/><path stroke-linecap="round" transform="matrix(0.805609, 0, 0, 0.806664, 707.532924, -15.68481)" fill="none" stroke-linejoin="round" d="M 112.189801 287.237825 C 123.899689 311.648747 117.402277 357.061489 95.960818 380.23758 " stroke="#e55039" stroke-width="9.18" stroke-opacity="1" stroke-miterlimit="4"/><path stroke-linecap="round" transform="matrix(0.805609, 0, 0, 0.806664, 707.532924, -15.68481)" fill="none" stroke-linejoin="round" d="M 80.808271 335.081489 C 70.591818 335.328456 59.531672 342.350046 55.24047 355.749178 " stroke="#e55039" stroke-width="9.18" stroke-opacity="1" stroke-miterlimit="4"/><path stroke-linecap="round" transform="matrix(0.805609, 0, 0, 0.806664, 707.532924, -15.68481)" fill="none" stroke-linejoin="round" d="M 81.690756 314.341164 C 67.139462 314.559075 47.438727 324.001904 40.999501 343.919008 " stroke="#e55039" stroke-width="9.18" stroke-opacity="1" stroke-miterlimit="4"/><path stroke-linecap="round" transform="matrix(0.805609, 0, 0, 0.806664, 707.532924, -15.68481)" fill="none" stroke-linejoin="round" d="M 78.48084 292.361165 C 62.358531 290.700195 36.742242 305.130774 27.141588 327.449747 " stroke="#e55039" stroke-width="9.18" stroke-opacity="1" stroke-miterlimit="4"/><g clip-path="url(#d632366eab)"><path stroke-linecap="round" transform="matrix(0.805609, 0, 0, 0.806664, 707.532924, -15.68481)" fill="none" stroke-linejoin="round" d="M 243.427824 443.572326 C 301.492383 451.572096 311.679743 429.751899 370.529809 413.950899 C 429.379875 398.149899 494.310355 432.337781 499.998015 435.877631 " stroke="#f8c291" stroke-width="9.18" stroke-opacity="1" stroke-miterlimit="4"/></g><path fill="#e58e26" d="M 994.089844 249.765625 C 994.089844 251.328125 994.050781 252.890625 993.972656 254.453125 C 993.898438 256.011719 993.78125 257.570312 993.628906 259.128906 C 993.476562 260.683594 993.285156 262.234375 993.054688 263.78125 C 992.828125 265.328125 992.558594 266.867188 992.253906 268.398438 C 991.949219 269.933594 991.609375 271.457031 991.230469 272.976562 C 990.851562 274.492188 990.433594 275.996094 989.980469 277.492188 C 989.527344 278.988281 989.039062 280.472656 988.511719 281.945312 C 987.984375 283.417969 987.421875 284.875 986.824219 286.320312 C 986.230469 287.765625 985.597656 289.191406 984.929688 290.605469 C 984.261719 292.019531 983.558594 293.414062 982.824219 294.792969 C 982.085938 296.171875 981.316406 297.53125 980.515625 298.875 C 979.710938 300.214844 978.878906 301.535156 978.011719 302.835938 C 977.144531 304.132812 976.242188 305.414062 975.3125 306.667969 C 974.382812 307.925781 973.421875 309.15625 972.433594 310.363281 C 971.441406 311.574219 970.421875 312.757812 969.375 313.914062 C 968.328125 315.074219 967.25 316.203125 966.144531 317.308594 C 965.042969 318.414062 963.910156 319.492188 962.753906 320.542969 C 961.597656 321.59375 960.417969 322.613281 959.210938 323.605469 C 958.003906 324.597656 956.773438 325.558594 955.519531 326.492188 C 954.265625 327.421875 952.988281 328.320312 951.6875 329.191406 C 950.390625 330.058594 949.074219 330.894531 947.734375 331.699219 C 946.394531 332.503906 945.035156 333.273438 943.660156 334.007812 C 942.28125 334.746094 940.886719 335.449219 939.476562 336.117188 C 938.066406 336.785156 936.636719 337.417969 935.195312 338.019531 C 933.753906 338.617188 932.296875 339.179688 930.828125 339.707031 C 929.355469 340.230469 927.875 340.722656 926.382812 341.175781 C 924.886719 341.628906 923.382812 342.046875 921.867188 342.425781 C 920.355469 342.804688 918.832031 343.148438 917.300781 343.453125 C 915.769531 343.757812 914.230469 344.027344 912.6875 344.253906 C 911.140625 344.484375 909.59375 344.675781 908.039062 344.828125 C 906.484375 344.980469 904.929688 345.097656 903.367188 345.175781 C 901.808594 345.25 900.25 345.289062 898.6875 345.289062 C 897.125 345.289062 895.566406 345.25 894.007812 345.175781 C 892.449219 345.097656 890.890625 344.980469 889.335938 344.828125 C 887.785156 344.675781 886.234375 344.484375 884.691406 344.253906 C 883.144531 344.027344 881.609375 343.757812 880.078125 343.453125 C 878.542969 343.148438 877.023438 342.804688 875.507812 342.425781 C 873.992188 342.046875 872.488281 341.628906 870.996094 341.175781 C 869.5 340.722656 868.019531 340.230469 866.546875 339.707031 C 865.078125 339.179688 863.621094 338.617188 862.179688 338.019531 C 860.738281 337.417969 859.308594 336.785156 857.898438 336.117188 C 856.488281 335.449219 855.09375 334.746094 853.714844 334.007812 C 852.339844 333.273438 850.980469 332.503906 849.640625 331.699219 C 848.304688 330.894531 846.984375 330.058594 845.6875 329.191406 C 844.386719 328.320312 843.113281 327.421875 841.859375 326.492188 C 840.605469 325.558594 839.375 324.597656 838.167969 323.605469 C 836.960938 322.613281 835.777344 321.59375 834.621094 320.542969 C 833.464844 319.492188 832.332031 318.414062 831.230469 317.308594 C 830.125 316.203125 829.050781 315.074219 828 313.914062 C 826.953125 312.757812 825.933594 311.574219 824.941406 310.363281 C 823.953125 309.15625 822.992188 307.925781 822.0625 306.667969 C 821.132812 305.414062 820.234375 304.132812 819.367188 302.835938 C 818.5 301.535156 817.664062 300.214844 816.859375 298.875 C 816.058594 297.53125 815.289062 296.171875 814.550781 294.792969 C 813.816406 293.414062 813.113281 292.019531 812.445312 290.605469 C 811.78125 289.191406 811.148438 287.765625 810.550781 286.320312 C 809.953125 284.875 809.390625 283.417969 808.863281 281.945312 C 808.339844 280.472656 807.847656 278.988281 807.394531 277.492188 C 806.941406 275.996094 806.527344 274.492188 806.148438 272.976562 C 805.765625 271.457031 805.425781 269.933594 805.121094 268.398438 C 804.816406 266.867188 804.550781 265.328125 804.320312 263.78125 C 804.089844 262.234375 803.898438 260.683594 803.746094 259.128906 C 803.59375 257.570312 803.480469 256.011719 803.402344 254.453125 C 803.324219 252.890625 803.289062 251.328125 803.289062 249.765625 C 803.289062 248.199219 803.324219 246.636719 803.402344 245.078125 C 803.480469 243.515625 803.59375 241.957031 803.746094 240.402344 C 803.898438 238.84375 804.089844 237.292969 804.320312 235.746094 C 804.550781 234.199219 804.816406 232.660156 805.121094 231.128906 C 805.425781 229.59375 805.765625 228.070312 806.148438 226.554688 C 806.527344 225.035156 806.941406 223.53125 807.394531 222.035156 C 807.847656 220.539062 808.339844 219.054688 808.863281 217.582031 C 809.390625 216.109375 809.953125 214.652344 810.550781 213.207031 C 811.148438 211.765625 811.78125 210.335938 812.445312 208.921875 C 813.113281 207.507812 813.816406 206.113281 814.550781 204.734375 C 815.289062 203.355469 816.058594 201.996094 816.859375 200.65625 C 817.664062 199.3125 818.5 197.992188 819.367188 196.691406 C 820.234375 195.394531 821.132812 194.117188 822.0625 192.859375 C 822.992188 191.605469 823.953125 190.371094 824.941406 189.164062 C 825.933594 187.953125 826.953125 186.773438 828 185.613281 C 829.050781 184.453125 830.125 183.324219 831.230469 182.21875 C 832.332031 181.113281 833.464844 180.035156 834.621094 178.984375 C 835.777344 177.933594 836.960938 176.914062 838.167969 175.921875 C 839.375 174.929688 840.605469 173.96875 841.859375 173.039062 C 843.113281 172.105469 844.386719 171.207031 845.6875 170.335938 C 846.984375 169.46875 848.304688 168.632812 849.640625 167.828125 C 850.980469 167.027344 852.339844 166.253906 853.714844 165.519531 C 855.09375 164.78125 856.488281 164.078125 857.898438 163.410156 C 859.308594 162.742188 860.738281 162.109375 862.179688 161.511719 C 863.621094 160.910156 865.078125 160.347656 866.546875 159.824219 C 868.019531 159.296875 869.5 158.804688 870.996094 158.351562 C 872.488281 157.898438 873.992188 157.480469 875.507812 157.101562 C 877.023438 156.722656 878.542969 156.378906 880.078125 156.074219 C 881.609375 155.769531 883.144531 155.503906 884.691406 155.273438 C 886.234375 155.042969 887.785156 154.851562 889.335938 154.699219 C 890.890625 154.546875 892.449219 154.429688 894.007812 154.355469 C 895.566406 154.277344 897.125 154.238281 898.6875 154.238281 C 900.25 154.238281 901.808594 154.277344 903.367188 154.355469 C 904.929688 154.429688 906.484375 154.546875 908.039062 154.699219 C 909.59375 154.851562 911.140625 155.042969 912.6875 155.273438 C 914.230469 155.503906 915.769531 155.769531 917.300781 156.074219 C 918.832031 156.378906 920.355469 156.722656 921.867188 157.101562 C 923.382812 157.480469 924.886719 157.898438 926.382812 158.351562 C 927.875 158.804688 929.355469 159.296875 930.828125 159.824219 C 932.296875 160.347656 933.753906 160.910156 935.195312 161.511719 C 936.636719 162.109375 938.066406 162.742188 939.476562 163.410156 C 940.886719 164.078125 942.28125 164.78125 943.660156 165.519531 C 945.035156 166.253906 946.394531 167.027344 947.734375 167.828125 C 949.074219 168.632812 950.390625 169.46875 951.6875 170.335938 C 952.988281 171.207031 954.265625 172.105469 955.519531 173.039062 C 956.773438 173.96875 958.003906 174.929688 959.210938 175.921875 C 960.417969 176.914062 961.597656 177.933594 962.753906 178.984375 C 963.910156 180.035156 965.042969 181.113281 966.144531 182.21875 C 967.25 183.324219 968.328125 184.453125 969.375 185.613281 C 970.421875 186.773438 971.441406 187.953125 972.433594 189.164062 C 973.421875 190.371094 974.382812 191.605469 975.3125 192.859375 C 976.242188 194.117188 977.144531 195.394531 978.011719 196.691406 C 978.878906 197.992188 979.710938 199.3125 980.515625 200.65625 C 981.316406 201.996094 982.085938 203.355469 982.824219 204.734375 C 983.558594 206.113281 984.261719 207.507812 984.929688 208.921875 C 985.597656 210.335938 986.230469 211.765625 986.824219 213.207031 C 987.421875 214.652344 987.984375 216.109375 988.511719 217.582031 C 989.039062 219.054688 989.527344 220.539062 989.980469 222.035156 C 990.433594 223.53125 990.851562 225.035156 991.230469 226.554688 C 991.609375 228.070312 991.949219 229.59375 992.253906 231.128906 C 992.558594 232.660156 992.828125 234.199219 993.054688 235.746094 C 993.285156 237.292969 993.476562 238.84375 993.628906 240.402344 C 993.78125 241.957031 993.898438 243.515625 993.972656 245.078125 C 994.050781 246.636719 994.089844 248.199219 994.089844 249.765625 Z M 994.089844 249.765625 " fill-opacity="1" fill-rule="nonzero"/><path stroke-linecap="round" transform="matrix(0.805609, 0, 0, 0.806664, 707.532924, -15.68481)" fill="none" stroke-linejoin="round" d="M 187.099142 422.541452 C 231.557926 424.98206 319.46209 382.83799 335.74926 298.428787 " stroke="#f8c291" stroke-width="9.18" stroke-opacity="1" stroke-miterlimit="4"/><path stroke-linecap="round" transform="matrix(0.805609, 0, 0, 0.806664, 707.532924, -15.68481)" fill="none" stroke-linejoin="round" d="M 217.908512 437.499861 C 265.368712 432.700967 324.592137 414.778962 344.661381 333.498 " stroke="#f8c291" stroke-width="9.18" stroke-opacity="1" stroke-miterlimit="4"/><path stroke-linecap="round" transform="matrix(0.805609, 0, 0, 0.806664, 707.532924, -15.68481)" fill="none" stroke-linejoin="round" d="M 164.901268 402.788991 C 209.360051 405.229599 308.271026 366.581797 320.519132 268.008352 " stroke="#f8c291" stroke-width="9.18" stroke-opacity="1" stroke-miterlimit="4"/><path stroke-linecap="round" transform="matrix(0.805609, 0, 0, 0.806664, 707.532924, -15.68481)" fill="none" stroke-linejoin="round" d="M 182.352152 239.142351 C 217.350898 239.587859 263.351605 265.89219 281.350406 308.418816 " stroke="#f8c291" stroke-width="9.18" stroke-opacity="1" stroke-miterlimit="4"/><path stroke-linecap="round" transform="matrix(0.805609, 0, 0, 0.806664, 707.532924, -15.68481)" fill="none" stroke-linejoin="round" d="M 147.101268 280.07096 C 182.100014 280.52131 228.100721 306.811113 246.099521 349.352267 " stroke="#f8c291" stroke-width="9.18" stroke-opacity="1" stroke-miterlimit="4"/><path stroke-linecap="round" transform="matrix(0.805609, 0, 0, 0.806664, 707.532924, -15.68481)" fill="none" stroke-linejoin="round" d="M 219.34861 227.060373 C 255.472281 236.057694 288.061165 261.340262 298.238828 287.959354 " stroke="#f8c291" stroke-width="9.18" stroke-opacity="1" stroke-miterlimit="4"/><path stroke-linecap="round" transform="matrix(0.805609, 0, 0, 0.806664, 707.532924, -15.68481)" fill="none" stroke-linejoin="round" d="M 267.759177 229.399289 C 289.990994 236.788908 302.971271 256.531683 308.217689 266.88974 " stroke="#f8c291" stroke-width="9.18" stroke-opacity="1" stroke-miterlimit="4"/><path stroke-linecap="round" transform="matrix(0.805609, 0, 0, 0.806664, 707.532924, -15.68481)" fill="none" stroke-linejoin="round" d="M 161.511946 256.23145 C 198.270812 255.877949 250.351932 290.007721 266.508183 329.682128 " stroke="#f8c291" stroke-width="9.18" stroke-opacity="1" stroke-miterlimit="4"/><path stroke-linecap="round" transform="matrix(0.805609, 0, 0, 0.806664, 707.532924, -15.68481)" fill="none" stroke-linejoin="round" d="M 202.280781 322.340935 C 196.709493 335.047592 198.969041 352.688733 212.982116 365.671411 " stroke="#f8c291" stroke-width="9.18" stroke-opacity="1" stroke-miterlimit="4"/><path stroke-linecap="round" transform="matrix(0.805609, 0, 0, 0.806664, 707.532924, -15.68481)" fill="none" stroke-linejoin="round" d="M 177.28999 309.319516 C 169.177922 327.319 169.497944 357.017907 190.289662 376.320017 " stroke="#f8c291" stroke-width="9.18" stroke-opacity="1" stroke-miterlimit="4"/><path stroke-linecap="round" transform="matrix(0.805609, 0, 0, 0.806664, 707.532924, -15.68481)" fill="none" stroke-linejoin="round" d="M 148.420146 300.617586 C 137.098163 319.488716 140.099579 359.298713 162.021072 383.942074 " stroke="#f8c291" stroke-width="9.18" stroke-opacity="1" stroke-miterlimit="4"/><path stroke-linecap="round" transform="matrix(0.805609, 0, 0, 0.806664, 707.532924, -15.68481)" fill="none" stroke-linejoin="round" d="M 218.810391 261.301522 C 200.127908 202.731773 174.477677 123.731616 174.477677 123.731616 " stroke="#663e38" stroke-width="7.74" stroke-opacity="1" stroke-miterlimit="4"/><path fill="#e58e26" d="M 841.265625 65.789062 C 832.167969 55.117188 819.988281 50.710938 816.917969 60.246094 C 812.246094 74.765625 840.691406 86.792969 848.273438 84.042969 C 856.085938 81.089844 868.792969 52.976562 855.585938 45.324219 C 846.902344 40.320312 840.457031 52.882812 841.265625 65.789062 Z M 841.265625 65.789062 " fill-opacity="1" fill-rule="nonzero"/><path stroke-linecap="round" transform="matrix(0.805609, 0, 0, 0.806664, 707.532924, -15.68481)" fill="none" stroke-linejoin="round" d="M 247.452341 242.168899 C 249.619761 180.732404 252.131447 97.708149 252.131447 97.708149 " stroke="#663e38" stroke-width="7.74" stroke-opacity="1" stroke-miterlimit="4"/><path fill="#e58e26" d="M 910.402344 43.566406 C 905.4375 30.449219 895.457031 22.179688 889.351562 30.125 C 880.054688 42.226562 902.78125 63.140625 910.84375 63.117188 C 919.199219 62.972656 940.652344 40.804688 930.773438 29.15625 C 924.3125 21.511719 913.96875 31.148438 910.402344 43.566406 Z M 910.402344 43.566406 " fill-opacity="1" fill-rule="nonzero"/><g fill="#cd924c" fill-opacity="1"><g transform="translate(263.067805, 245.307179)"><g><path d="M 0 -113.824219 C 3.253906 -113.824219 6.882812 -114.964844 10.894531 -117.238281 C 14.90625 -119.515625 18.972656 -122.363281 23.089844 -125.777344 C 27.210938 -129.191406 31.113281 -132.578125 34.796875 -135.941406 C 38.484375 -139.300781 41.734375 -142.117188 44.554688 -144.394531 C 47.371094 -146.671875 49.433594 -147.808594 50.734375 -147.808594 C 52.792969 -147.808594 53.824219 -146.507812 53.824219 -143.90625 L 53.824219 -113.824219 L 67.808594 -113.824219 L 67.808594 -105.695312 L 53.824219 -105.695312 L 53.824219 -40 C 53.824219 -35.773438 53.878906 -31.546875 53.984375 -27.316406 C 54.09375 -23.089844 54.691406 -19.296875 55.773438 -15.933594 C 56.859375 -12.574219 58.808594 -9.972656 61.628906 -8.128906 C 62.277344 -7.695312 62.957031 -7.480469 63.660156 -7.480469 C 64.367188 -7.480469 65.097656 -7.371094 65.855469 -7.15625 C 65.640625 -5.203125 64.582031 -3.496094 62.683594 -2.03125 C 60.789062 -0.570312 58.539062 0.542969 55.9375 1.300781 C 53.335938 2.058594 50.734375 2.4375 48.132812 2.4375 C 40.328125 2.4375 34.066406 1.136719 29.351562 -1.464844 C 24.636719 -4.066406 21.058594 -7.5625 18.617188 -11.953125 C 16.179688 -16.34375 14.554688 -21.246094 13.742188 -26.667969 C 12.925781 -32.089844 12.519531 -37.5625 12.519531 -43.089844 L 12.519531 -95.289062 C 12.519531 -96.914062 12.441406 -98.539062 12.277344 -100.167969 C 12.113281 -101.792969 11.519531 -103.121094 10.488281 -104.148438 C 9.457031 -105.179688 7.640625 -105.695312 5.039062 -105.695312 L 0 -105.695312 Z M 0 -113.824219 "/></g></g></g><g fill="#cd924c" fill-opacity="1"><g transform="translate(332.497439, 245.307179)"><g><path d="M 20.652344 -14.308594 C 15.015625 -20.054688 10.8125 -26.53125 8.050781 -33.742188 C 5.285156 -40.949219 3.957031 -48.375 4.066406 -56.019531 C 4.171875 -63.660156 5.71875 -71.140625 8.699219 -78.457031 C 11.679688 -85.777344 16.097656 -92.359375 21.953125 -98.214844 C 27.914062 -104.175781 34.582031 -108.648438 41.953125 -111.628906 C 49.324219 -114.609375 56.804688 -116.101562 64.394531 -116.101562 C 71.765625 -116.101562 78.945312 -114.71875 85.9375 -111.957031 C 92.929688 -109.191406 99.191406 -104.992188 104.71875 -99.351562 C 110.355469 -93.714844 114.558594 -87.292969 117.320312 -80.085938 C 120.085938 -72.875 121.414062 -65.449219 121.304688 -57.808594 C 121.195312 -50.164062 119.652344 -42.683594 116.671875 -35.367188 C 113.691406 -28.050781 109.273438 -21.464844 103.417969 -15.609375 C 97.457031 -9.648438 90.789062 -5.148438 83.417969 -2.113281 C 76.046875 0.921875 68.566406 2.4375 60.976562 2.4375 C 53.605469 2.4375 46.425781 1.058594 39.433594 -1.707031 C 32.441406 -4.472656 26.179688 -8.671875 20.652344 -14.308594 Z M 54.796875 -107.484375 C 51.222656 -106.941406 48.320312 -104.148438 46.097656 -99.109375 C 43.875 -94.070312 42.523438 -87.5625 42.035156 -79.597656 C 41.546875 -71.628906 42.007812 -62.875 43.417969 -53.335938 C 44.933594 -43.902344 47.128906 -35.476562 50 -28.050781 C 52.875 -20.625 56.125 -14.851562 59.757812 -10.730469 C 63.390625 -6.613281 66.941406 -4.824219 70.410156 -5.367188 C 73.878906 -5.90625 76.695312 -8.671875 78.863281 -13.660156 C 81.03125 -18.644531 82.386719 -25.148438 82.929688 -33.171875 C 83.472656 -41.195312 83.039062 -49.976562 81.628906 -59.515625 C 80.21875 -68.945312 78.078125 -77.375 75.207031 -84.800781 C 72.332031 -92.226562 69.109375 -98 65.53125 -102.117188 C 61.953125 -106.238281 58.375 -108.027344 54.796875 -107.484375 Z M 54.796875 -107.484375 "/></g></g></g><g fill="#cd924c" fill-opacity="1"><g transform="translate(457.860999, 245.307179)"><g><path d="M 50.082031 2.4375 C 40.328125 2.4375 32.035156 -0.136719 25.203125 -5.285156 C 18.375 -10.433594 13.144531 -17.316406 9.511719 -25.9375 C 5.882812 -34.554688 4.066406 -44.121094 4.066406 -54.636719 C 4.066406 -62.007812 4.960938 -69.324219 6.75 -76.589844 C 8.535156 -83.851562 11.300781 -90.464844 15.042969 -96.425781 C 18.78125 -102.386719 23.550781 -107.183594 29.351562 -110.816406 C 35.148438 -114.449219 42.0625 -116.265625 50.082031 -116.265625 C 54.636719 -116.265625 58.457031 -115.613281 61.546875 -114.3125 C 64.636719 -113.011719 67.210938 -111.523438 69.269531 -109.839844 C 71.332031 -108.160156 73.011719 -106.671875 74.3125 -105.371094 C 75.613281 -104.070312 76.640625 -103.417969 77.402344 -103.417969 C 77.726562 -103.417969 78.242188 -103.609375 78.945312 -103.988281 C 79.652344 -104.367188 80.003906 -105.585938 80.003906 -107.644531 L 80.003906 -130.410156 C 80.003906 -131.0625 79.949219 -132.226562 79.839844 -133.90625 C 79.730469 -135.585938 79.21875 -137.296875 78.296875 -139.03125 C 77.375 -140.765625 75.613281 -142.066406 73.011719 -142.933594 C 72.792969 -143.039062 72.332031 -143.203125 71.628906 -143.417969 C 70.925781 -143.636719 70.570312 -144.234375 70.570312 -145.207031 C 70.570312 -146.074219 70.84375 -146.617188 71.382812 -146.835938 C 71.925781 -147.050781 72.253906 -147.214844 72.359375 -147.324219 C 73.660156 -147.863281 75.746094 -148.8125 78.621094 -150.167969 C 81.492188 -151.523438 84.800781 -153.039062 88.539062 -154.722656 C 92.28125 -156.402344 96.046875 -158.027344 99.839844 -159.597656 C 103.636719 -161.171875 107.160156 -162.472656 110.410156 -163.5 C 113.664062 -164.53125 116.265625 -165.046875 118.214844 -165.046875 C 120.601562 -165.046875 122.011719 -164.394531 122.445312 -163.09375 C 122.878906 -161.792969 123.09375 -160.332031 123.09375 -158.703125 L 123.09375 -19.1875 C 123.09375 -14.527344 123.5 -10.703125 124.3125 -7.722656 C 125.125 -4.742188 126.617188 -2.167969 128.785156 0 L 88.945312 0 C 85.476562 0 83.121094 -1.191406 81.871094 -3.578125 C 80.625 -5.960938 80.003906 -9.214844 80.003906 -13.332031 L 80.003906 -14.960938 C 80.003906 -16.152344 79.652344 -16.558594 78.945312 -16.179688 C 78.242188 -15.800781 77.617188 -15.175781 77.074219 -14.308594 C 74.257812 -9.648438 71.304688 -6.125 68.214844 -3.738281 C 65.125 -1.355469 62.035156 0.269531 58.945312 1.136719 C 55.855469 2.003906 52.902344 2.4375 50.082031 2.4375 Z M 68.296875 -99.191406 C 63.742188 -99.191406 60.082031 -97.972656 57.320312 -95.53125 C 54.554688 -93.09375 52.414062 -89.867188 50.894531 -85.855469 C 49.378906 -81.847656 48.347656 -77.507812 47.804688 -72.847656 C 47.265625 -68.1875 46.992188 -63.632812 46.992188 -59.1875 C 46.992188 -54.527344 47.128906 -49.757812 47.398438 -44.878906 C 47.671875 -40 48.375 -35.53125 49.515625 -31.464844 C 50.652344 -27.398438 52.496094 -24.121094 55.042969 -21.625 C 57.589844 -19.132812 61.140625 -17.886719 65.695312 -17.886719 C 68.945312 -17.886719 71.519531 -18.78125 73.417969 -20.570312 C 75.3125 -22.359375 76.75 -24.636719 77.726562 -27.398438 C 78.703125 -30.164062 79.324219 -32.980469 79.597656 -35.855469 C 79.867188 -38.726562 80.003906 -41.300781 80.003906 -43.578125 L 80.003906 -75.289062 C 80.003906 -77.347656 79.867188 -79.730469 79.597656 -82.441406 C 79.324219 -85.152344 78.785156 -87.78125 77.96875 -90.328125 C 77.15625 -92.875 75.964844 -94.988281 74.394531 -96.671875 C 72.820312 -98.351562 70.789062 -99.191406 68.296875 -99.191406 Z M 68.296875 -99.191406 "/></g></g></g><g fill="#cd924c" fill-opacity="1"><g transform="translate(587.452118, 245.307179)"><g><path d="M 20.652344 -14.308594 C 15.015625 -20.054688 10.8125 -26.53125 8.050781 -33.742188 C 5.285156 -40.949219 3.957031 -48.375 4.066406 -56.019531 C 4.171875 -63.660156 5.71875 -71.140625 8.699219 -78.457031 C 11.679688 -85.777344 16.097656 -92.359375 21.953125 -98.214844 C 27.914062 -104.175781 34.582031 -108.648438 41.953125 -111.628906 C 49.324219 -114.609375 56.804688 -116.101562 64.394531 -116.101562 C 71.765625 -116.101562 78.945312 -114.71875 85.9375 -111.957031 C 92.929688 -109.191406 99.191406 -104.992188 104.71875 -99.351562 C 110.355469 -93.714844 114.558594 -87.292969 117.320312 -80.085938 C 120.085938 -72.875 121.414062 -65.449219 121.304688 -57.808594 C 121.195312 -50.164062 119.652344 -42.683594 116.671875 -35.367188 C 113.691406 -28.050781 109.273438 -21.464844 103.417969 -15.609375 C 97.457031 -9.648438 90.789062 -5.148438 83.417969 -2.113281 C 76.046875 0.921875 68.566406 2.4375 60.976562 2.4375 C 53.605469 2.4375 46.425781 1.058594 39.433594 -1.707031 C 32.441406 -4.472656 26.179688 -8.671875 20.652344 -14.308594 Z M 54.796875 -107.484375 C 51.222656 -106.941406 48.320312 -104.148438 46.097656 -99.109375 C 43.875 -94.070312 42.523438 -87.5625 42.035156 -79.597656 C 41.546875 -71.628906 42.007812 -62.875 43.417969 -53.335938 C 44.933594 -43.902344 47.128906 -35.476562 50 -28.050781 C 52.875 -20.625 56.125 -14.851562 59.757812 -10.730469 C 63.390625 -6.613281 66.941406 -4.824219 70.410156 -5.367188 C 73.878906 -5.90625 76.695312 -8.671875 78.863281 -13.660156 C 81.03125 -18.644531 82.386719 -25.148438 82.929688 -33.171875 C 83.472656 -41.195312 83.039062 -49.976562 81.628906 -59.515625 C 80.21875 -68.945312 78.078125 -77.375 75.207031 -84.800781 C 72.332031 -92.226562 69.109375 -98 65.53125 -102.117188 C 61.953125 -106.238281 58.375 -108.027344 54.796875 -107.484375 Z M 54.796875 -107.484375 "/></g></g></g><g fill="#cd924c" fill-opacity="1"><g transform="translate(255.254238, 385.110317)"><g><path d="M 27.964844 0.976562 C 24.324219 0.976562 20.90625 0.28125 17.722656 -1.105469 C 14.535156 -2.492188 11.738281 -4.574219 9.332031 -7.347656 C 6.925781 -10.125 5.039062 -13.613281 3.675781 -17.820312 C 2.308594 -22.023438 1.625 -26.921875 1.625 -32.515625 C 1.625 -35.726562 1.929688 -38.933594 2.535156 -42.140625 C 3.144531 -45.351562 4.074219 -48.382812 5.332031 -51.246094 C 6.589844 -54.109375 8.152344 -56.644531 10.015625 -58.855469 C 11.878906 -61.066406 14.078125 -62.8125 16.617188 -64.089844 C 19.152344 -65.371094 22.023438 -66.007812 25.234375 -66.007812 C 26.921875 -66.007812 28.539062 -65.792969 30.078125 -65.359375 C 31.617188 -64.925781 33.199219 -64.492188 34.824219 -64.058594 C 36.449219 -63.625 38.238281 -63.40625 40.191406 -63.40625 C 41.707031 -63.40625 42.910156 -63.625 43.800781 -64.058594 C 44.6875 -64.492188 45.449219 -64.925781 46.074219 -65.359375 C 46.703125 -65.792969 47.34375 -66.007812 47.996094 -66.007812 C 48.863281 -66.007812 49.359375 -65.519531 49.492188 -64.546875 C 49.621094 -63.570312 49.523438 -62.355469 49.199219 -60.902344 C 48.871094 -59.453125 48.40625 -58.007812 47.800781 -56.578125 C 47.496094 -55.886719 47.105469 -55.105469 46.628906 -54.238281 C 46.152344 -53.371094 45.589844 -52.503906 44.9375 -51.636719 C 44.246094 -50.726562 43.398438 -49.761719 42.402344 -48.742188 C 41.40625 -47.722656 40.441406 -46.652344 39.507812 -45.523438 C 38.574219 -44.394531 37.796875 -43.246094 37.167969 -42.078125 C 36.539062 -40.90625 36.222656 -39.734375 36.222656 -38.566406 C 36.222656 -37.480469 36.570312 -36.539062 37.265625 -35.734375 C 37.957031 -34.933594 38.867188 -34.53125 39.996094 -34.53125 C 40.6875 -34.53125 41.101562 -34.640625 41.230469 -34.859375 C 41.359375 -35.074219 41.601562 -35.183594 41.945312 -35.183594 C 42.464844 -35.183594 42.835938 -34.75 43.050781 -33.882812 C 43.269531 -33.015625 43.378906 -32.257812 43.378906 -31.605469 C 43.378906 -30.003906 42.898438 -28.484375 41.945312 -27.054688 C 40.992188 -25.625 39.722656 -24.464844 38.140625 -23.574219 C 36.558594 -22.6875 34.859375 -22.242188 33.035156 -22.242188 C 31.300781 -22.242188 29.699219 -22.664062 28.222656 -23.507812 C 26.75 -24.355469 25.570312 -25.480469 24.679688 -26.890625 C 23.792969 -28.300781 23.347656 -29.871094 23.347656 -31.605469 C 23.347656 -33.558594 23.800781 -35.246094 24.710938 -36.679688 C 25.625 -38.109375 26.738281 -39.34375 28.0625 -40.386719 C 29.382812 -41.425781 30.71875 -42.316406 32.0625 -43.050781 C 33.40625 -43.789062 34.53125 -44.449219 35.441406 -45.035156 C 36.355469 -45.621094 36.808594 -46.171875 36.808594 -46.695312 C 36.808594 -47.519531 36.203125 -48.039062 34.988281 -48.253906 C 32.777344 -48.601562 30.804688 -49.1875 29.070312 -50.011719 C 27.335938 -50.835938 25.710938 -51.691406 24.191406 -52.578125 C 22.675781 -53.46875 21.136719 -54.226562 19.574219 -54.855469 C 18.015625 -55.484375 16.300781 -55.796875 14.4375 -55.796875 C 13.351562 -55.796875 12.464844 -55.507812 11.769531 -54.921875 C 11.078125 -54.335938 10.535156 -53.609375 10.144531 -52.742188 C 9.753906 -51.875 9.484375 -51.007812 9.332031 -50.140625 C 9.179688 -49.273438 9.105469 -48.535156 9.105469 -47.929688 C 9.105469 -45.242188 9.441406 -42.371094 10.113281 -39.3125 C 10.785156 -36.257812 11.769531 -33.253906 13.070312 -30.304688 C 14.371094 -27.355469 15.988281 -24.667969 17.917969 -22.242188 C 19.847656 -19.8125 22.078125 -17.875 24.613281 -16.421875 C 27.152344 -14.96875 29.980469 -14.242188 33.101562 -14.242188 C 35.398438 -14.242188 37.285156 -14.566406 38.761719 -15.21875 C 40.234375 -15.867188 41.4375 -16.671875 42.371094 -17.625 C 43.300781 -18.578125 44.058594 -19.53125 44.644531 -20.484375 C 45.230469 -21.4375 45.773438 -22.242188 46.269531 -22.890625 C 46.769531 -23.542969 47.34375 -23.867188 47.996094 -23.867188 C 48.382812 -23.867188 48.753906 -23.660156 49.101562 -23.25 C 49.445312 -22.835938 49.621094 -21.871094 49.621094 -20.355469 C 49.621094 -18.273438 49.144531 -16 48.191406 -13.527344 C 47.234375 -11.054688 45.835938 -8.726562 43.996094 -6.535156 C 42.152344 -4.347656 39.886719 -2.546875 37.199219 -1.136719 C 34.511719 0.269531 31.433594 0.976562 27.964844 0.976562 Z M 27.964844 0.976562 "/></g></g></g><g fill="#cd924c" fill-opacity="1"><g transform="translate(306.167931, 385.110317)"><g><path d="M 0.324219 -57.164062 C 0.238281 -57.207031 0.0546875 -57.273438 -0.226562 -57.359375 C -0.507812 -57.445312 -0.648438 -57.683594 -0.648438 -58.074219 C -0.648438 -58.421875 -0.542969 -58.636719 -0.324219 -58.726562 C -0.109375 -58.8125 0.0234375 -58.875 0.0664062 -58.921875 C 0.585938 -59.179688 1.417969 -59.582031 2.570312 -60.125 C 3.71875 -60.664062 5.027344 -61.273438 6.503906 -61.945312 C 7.976562 -62.617188 9.484375 -63.253906 11.023438 -63.863281 C 12.5625 -64.46875 13.980469 -64.980469 15.28125 -65.390625 C 16.582031 -65.804688 17.625 -66.007812 18.40625 -66.007812 C 19.359375 -66.007812 19.921875 -65.75 20.09375 -65.226562 C 20.269531 -64.707031 20.355469 -64.121094 20.355469 -63.472656 L 20.355469 -37.460938 C 20.441406 -37.460938 20.527344 -37.460938 20.617188 -37.460938 C 20.703125 -37.460938 20.765625 -37.460938 20.8125 -37.460938 C 21.332031 -37.460938 21.839844 -37.761719 22.339844 -38.371094 C 22.835938 -38.976562 23.421875 -39.734375 24.09375 -40.644531 C 24.765625 -41.554688 25.589844 -42.457031 26.566406 -43.34375 C 27.542969 -44.234375 28.777344 -44.980469 30.273438 -45.589844 C 31.769531 -46.195312 33.621094 -46.5 35.832031 -46.5 C 38.21875 -46.5 40.136719 -46.03125 41.589844 -45.101562 C 43.042969 -44.167969 44.15625 -42.933594 44.9375 -41.394531 C 45.71875 -39.855469 46.25 -38.195312 46.53125 -36.417969 C 46.8125 -34.640625 46.953125 -32.90625 46.953125 -31.214844 L 47.019531 -18.792969 L 47.019531 -7.675781 C 47.019531 -5.808594 47.179688 -4.28125 47.507812 -3.089844 C 47.832031 -1.898438 48.429688 -0.867188 49.296875 0 L 27.507812 0 C 28.375 -0.867188 28.972656 -1.898438 29.296875 -3.089844 C 29.621094 -4.28125 29.785156 -5.808594 29.785156 -7.675781 L 29.785156 -28.808594 C 29.785156 -30.328125 29.523438 -31.671875 29.003906 -32.84375 C 28.484375 -34.011719 27.507812 -34.597656 26.078125 -34.597656 C 25.082031 -34.597656 24.148438 -34.328125 23.28125 -33.785156 C 22.414062 -33.242188 21.710938 -32.3125 21.167969 -30.988281 C 20.625 -29.664062 20.355469 -27.789062 20.355469 -25.363281 L 20.355469 -7.675781 C 20.355469 -5.808594 20.519531 -4.28125 20.84375 -3.089844 C 21.167969 -1.898438 21.765625 -0.867188 22.632812 0 L 0.84375 0 C 1.710938 -0.867188 2.308594 -1.898438 2.632812 -3.089844 C 2.960938 -4.28125 3.121094 -5.808594 3.121094 -7.675781 L 3.121094 -52.15625 C 3.121094 -52.417969 3.109375 -52.894531 3.089844 -53.585938 C 3.066406 -54.28125 2.863281 -54.984375 2.472656 -55.699219 C 2.082031 -56.417969 1.367188 -56.902344 0.324219 -57.164062 Z M 0.324219 -57.164062 "/></g></g></g><g fill="#cd924c" fill-opacity="1"><g transform="translate(356.756494, 385.110317)"><g><path d="M 1.625 -10.144531 C 1.625 -13.613281 2.320312 -16.660156 3.707031 -19.28125 C 5.09375 -21.90625 6.96875 -24.160156 9.332031 -26.046875 C 11.695312 -27.933594 14.339844 -29.480469 17.265625 -30.695312 C 20.191406 -31.910156 23.171875 -32.84375 26.207031 -33.492188 C 27.164062 -33.707031 27.789062 -34.097656 28.09375 -34.664062 C 28.398438 -35.226562 28.550781 -35.789062 28.550781 -36.355469 C 28.550781 -37.308594 28.410156 -38.292969 28.125 -39.3125 C 27.84375 -40.332031 27.304688 -41.199219 26.5 -41.914062 C 25.699219 -42.628906 24.496094 -42.964844 22.890625 -42.921875 C 21.246094 -42.878906 19.75 -42.402344 18.40625 -41.492188 C 17.058594 -40.582031 15.835938 -39.464844 14.730469 -38.140625 C 13.625 -36.820312 12.59375 -35.496094 11.640625 -34.175781 C 10.6875 -32.851562 9.789062 -31.746094 8.941406 -30.859375 C 8.097656 -29.96875 7.261719 -29.523438 6.4375 -29.523438 C 5.917969 -29.523438 5.453125 -29.730469 5.039062 -30.144531 C 4.628906 -30.554688 4.421875 -31.042969 4.421875 -31.605469 L 4.421875 -35.183594 C 4.421875 -36.308594 4.433594 -37.414062 4.453125 -38.5 C 4.476562 -39.582031 4.898438 -40.515625 5.722656 -41.296875 C 7.933594 -43.421875 10.65625 -44.820312 13.882812 -45.492188 C 17.113281 -46.164062 20.441406 -46.5 23.867188 -46.5 C 27.597656 -46.5 30.847656 -45.925781 33.621094 -44.777344 C 36.398438 -43.625 38.683594 -42.109375 40.484375 -40.222656 C 42.28125 -38.335938 43.625 -36.246094 44.515625 -33.949219 C 45.402344 -31.648438 45.847656 -29.328125 45.847656 -26.988281 L 45.847656 -7.675781 C 45.847656 -5.808594 46.011719 -4.28125 46.335938 -3.089844 C 46.660156 -1.898438 47.257812 -0.867188 48.125 0 L 32.191406 0 C 30.285156 0 29.15625 -0.933594 28.808594 -2.796875 C 28.722656 -3.359375 28.539062 -3.878906 28.257812 -4.355469 C 27.976562 -4.835938 27.597656 -5.074219 27.117188 -5.074219 C 26.425781 -5.074219 25.742188 -4.769531 25.070312 -4.164062 C 24.398438 -3.554688 23.585938 -2.851562 22.632812 -2.046875 C 21.679688 -1.246094 20.453125 -0.542969 18.957031 0.0664062 C 17.460938 0.671875 15.542969 0.976562 13.203125 0.976562 C 11.121094 0.976562 9.203125 0.476562 7.445312 -0.519531 C 5.691406 -1.515625 4.28125 -2.851562 3.21875 -4.519531 C 2.15625 -6.1875 1.625 -8.0625 1.625 -10.144531 Z M 26.207031 -29.265625 C 24.820312 -29.265625 23.421875 -28.734375 22.015625 -27.671875 C 20.605469 -26.609375 19.445312 -25.113281 18.535156 -23.183594 C 17.625 -21.253906 17.167969 -18.945312 17.167969 -16.257812 C 17.167969 -14.742188 17.351562 -13.300781 17.722656 -11.933594 C 18.089844 -10.566406 18.71875 -9.453125 19.609375 -8.585938 C 20.496094 -7.71875 21.742188 -7.285156 23.347656 -7.285156 C 25.125 -7.285156 26.445312 -7.988281 27.3125 -9.398438 C 28.179688 -10.804688 28.613281 -12.574219 28.613281 -14.699219 C 28.613281 -16.734375 28.605469 -18.503906 28.582031 -19.996094 C 28.558594 -21.492188 28.550781 -23.238281 28.550781 -25.234375 C 28.550781 -26.707031 28.375 -27.746094 28.03125 -28.355469 C 27.683594 -28.960938 27.074219 -29.265625 26.207031 -29.265625 Z M 26.207031 -29.265625 "/></g></g></g><g fill="#cd924c" fill-opacity="1"><g transform="translate(405.199267, 385.110317)"><g><path d="M 23.085938 0 L 1.300781 0 C 2.167969 -0.867188 2.765625 -1.898438 3.089844 -3.089844 C 3.414062 -4.28125 3.578125 -5.808594 3.578125 -7.675781 L 3.578125 -37.847656 C 3.578125 -39.714844 3.414062 -41.242188 3.089844 -42.433594 C 2.765625 -43.625 2.167969 -44.65625 1.300781 -45.523438 L 17.234375 -45.523438 C 18.621094 -45.523438 19.5625 -45.035156 20.0625 -44.058594 C 20.5625 -43.085938 20.8125 -41.773438 20.8125 -40.125 L 20.8125 -39.019531 C 20.8125 -38.238281 20.855469 -37.785156 20.941406 -37.652344 C 21.027344 -37.523438 21.136719 -37.460938 21.265625 -37.460938 C 21.785156 -37.460938 22.296875 -37.761719 22.792969 -38.371094 C 23.292969 -38.976562 23.878906 -39.734375 24.550781 -40.644531 C 25.222656 -41.554688 26.046875 -42.457031 27.019531 -43.34375 C 27.996094 -44.234375 29.234375 -44.980469 30.726562 -45.589844 C 32.222656 -46.195312 34.078125 -46.5 36.289062 -46.5 C 39.453125 -46.5 41.828125 -45.6875 43.410156 -44.058594 C 44.992188 -42.433594 46.066406 -40.472656 46.628906 -38.175781 C 46.84375 -37.742188 47.085938 -37.511719 47.34375 -37.492188 C 47.605469 -37.46875 47.777344 -37.460938 47.863281 -37.460938 C 48.382812 -37.460938 48.894531 -37.761719 49.394531 -38.371094 C 49.890625 -38.976562 50.476562 -39.734375 51.148438 -40.644531 C 51.820312 -41.554688 52.644531 -42.457031 53.621094 -43.34375 C 54.59375 -44.234375 55.832031 -44.980469 57.328125 -45.589844 C 58.824219 -46.195312 60.675781 -46.5 62.886719 -46.5 C 65.273438 -46.5 67.191406 -46.03125 68.644531 -45.101562 C 70.09375 -44.167969 71.210938 -42.933594 71.992188 -41.394531 C 72.773438 -39.855469 73.304688 -38.195312 73.585938 -36.417969 C 73.867188 -34.640625 74.007812 -32.90625 74.007812 -31.214844 L 74.074219 -18.792969 L 74.074219 -7.675781 C 74.074219 -5.808594 74.234375 -4.28125 74.5625 -3.089844 C 74.886719 -1.898438 75.480469 -0.867188 76.347656 0 L 54.5625 0 C 55.429688 -0.867188 56.027344 -1.898438 56.351562 -3.089844 C 56.675781 -4.28125 56.839844 -5.808594 56.839844 -7.675781 L 56.839844 -28.808594 C 56.839844 -30.328125 56.578125 -31.671875 56.058594 -32.84375 C 55.539062 -34.011719 54.5625 -34.597656 53.132812 -34.597656 C 51.746094 -34.597656 50.488281 -34.035156 49.359375 -32.90625 C 48.234375 -31.78125 47.582031 -29.65625 47.410156 -26.535156 L 47.472656 -18.792969 L 47.472656 -7.675781 C 47.472656 -5.808594 47.636719 -4.28125 47.960938 -3.089844 C 48.289062 -1.898438 48.882812 -0.867188 49.75 0 L 27.964844 0 C 28.832031 -0.867188 29.425781 -1.898438 29.753906 -3.089844 C 30.078125 -4.28125 30.242188 -5.808594 30.242188 -7.675781 L 30.242188 -28.808594 C 30.242188 -30.328125 29.980469 -31.671875 29.460938 -32.84375 C 28.941406 -34.011719 27.964844 -34.597656 26.535156 -34.597656 C 25.535156 -34.597656 24.605469 -34.328125 23.738281 -33.785156 C 22.871094 -33.242188 22.164062 -32.3125 21.625 -30.988281 C 21.082031 -29.664062 20.8125 -27.789062 20.8125 -25.363281 L 20.8125 -7.675781 C 20.8125 -5.808594 20.972656 -4.28125 21.296875 -3.089844 C 21.625 -1.898438 22.21875 -0.867188 23.085938 0 Z M 23.085938 0 "/></g></g></g><g fill="#cd924c" fill-opacity="1"><g transform="translate(481.862406, 385.110317)"><g><path d="M -0.648438 -58.074219 C -0.648438 -58.421875 -0.542969 -58.636719 -0.324219 -58.726562 C -0.109375 -58.8125 0.0234375 -58.875 0.0664062 -58.921875 C 0.585938 -59.136719 1.417969 -59.515625 2.570312 -60.058594 C 3.71875 -60.601562 5.039062 -61.207031 6.535156 -61.878906 C 8.03125 -62.550781 9.539062 -63.203125 11.054688 -63.832031 C 12.574219 -64.457031 13.980469 -64.980469 15.28125 -65.390625 C 16.582031 -65.804688 17.625 -66.007812 18.40625 -66.007812 C 19.359375 -66.007812 19.921875 -65.75 20.09375 -65.226562 C 20.269531 -64.707031 20.355469 -64.121094 20.355469 -63.472656 L 20.355469 -42.011719 C 20.484375 -41.707031 20.636719 -41.523438 20.8125 -41.457031 C 20.984375 -41.394531 21.179688 -41.359375 21.394531 -41.359375 C 21.742188 -41.359375 22.164062 -41.621094 22.664062 -42.140625 C 23.164062 -42.660156 23.824219 -43.257812 24.648438 -43.929688 C 25.472656 -44.601562 26.5 -45.199219 27.738281 -45.71875 C 28.972656 -46.238281 30.5 -46.5 32.320312 -46.5 C 35.53125 -46.5 38.292969 -45.773438 40.613281 -44.320312 C 42.933594 -42.867188 44.839844 -40.949219 46.335938 -38.566406 C 47.832031 -36.179688 48.9375 -33.535156 49.652344 -30.628906 C 50.367188 -27.726562 50.726562 -24.800781 50.726562 -21.851562 C 50.726562 -17.644531 50.011719 -13.820312 48.578125 -10.371094 C 47.148438 -6.925781 45.058594 -4.171875 42.304688 -2.113281 C 39.550781 -0.0546875 36.222656 0.976562 32.320312 0.976562 C 30.628906 0.976562 28.851562 0.554688 26.988281 -0.292969 C 25.125 -1.136719 23.304688 -2.949219 21.527344 -5.722656 C 21.308594 -6.070312 21.058594 -6.320312 20.777344 -6.472656 C 20.496094 -6.621094 20.355469 -6.460938 20.355469 -5.984375 L 20.355469 -5.332031 C 20.355469 -3.683594 20.105469 -2.382812 19.609375 -1.429688 C 19.109375 -0.476562 18.164062 0 16.777344 0 L 0.84375 0 C 1.710938 -0.867188 2.308594 -1.898438 2.632812 -3.089844 C 2.960938 -4.28125 3.121094 -5.808594 3.121094 -7.675781 L 3.121094 -52.15625 C 3.121094 -52.417969 3.101562 -52.882812 3.054688 -53.554688 C 3.011719 -54.226562 2.808594 -54.910156 2.4375 -55.601562 C 2.070312 -56.296875 1.367188 -56.816406 0.324219 -57.164062 C 0.238281 -57.207031 0.0546875 -57.273438 -0.226562 -57.359375 C -0.507812 -57.445312 -0.648438 -57.683594 -0.648438 -58.074219 Z M 20.355469 -17.429688 C 20.355469 -16.519531 20.410156 -15.488281 20.519531 -14.339844 C 20.625 -13.191406 20.875 -12.0625 21.265625 -10.957031 C 21.65625 -9.851562 22.230469 -8.941406 22.988281 -8.226562 C 23.746094 -7.511719 24.777344 -7.152344 26.078125 -7.152344 C 27.898438 -7.152344 29.320312 -7.652344 30.339844 -8.648438 C 31.355469 -9.648438 32.09375 -10.957031 32.550781 -12.582031 C 33.003906 -14.210938 33.285156 -16 33.394531 -17.949219 C 33.503906 -19.898438 33.558594 -21.808594 33.558594 -23.671875 C 33.558594 -25.449219 33.449219 -27.269531 33.230469 -29.136719 C 33.015625 -31 32.601562 -32.734375 31.996094 -34.335938 C 31.390625 -35.941406 30.53125 -37.230469 29.425781 -38.207031 C 28.320312 -39.183594 26.859375 -39.671875 25.039062 -39.671875 C 24.039062 -39.671875 23.226562 -39.335938 22.597656 -38.664062 C 21.96875 -37.992188 21.492188 -37.144531 21.167969 -36.125 C 20.84375 -35.105469 20.625 -34.054688 20.519531 -32.972656 C 20.410156 -31.886719 20.355469 -30.933594 20.355469 -30.109375 Z M 20.355469 -17.429688 "/></g></g></g><g fill="#cd924c" fill-opacity="1"><g transform="translate(534.206638, 385.110317)"><g><path d="M 0.648438 0 C 1.515625 -0.867188 2.113281 -1.898438 2.4375 -3.089844 C 2.765625 -4.28125 2.925781 -5.808594 2.925781 -7.675781 L 2.925781 -37.847656 C 2.925781 -39.714844 2.765625 -41.242188 2.4375 -42.433594 C 2.113281 -43.625 1.515625 -44.65625 0.648438 -45.523438 L 16.582031 -45.523438 C 17.972656 -45.523438 18.914062 -45.035156 19.414062 -44.058594 C 19.910156 -43.085938 20.160156 -41.773438 20.160156 -40.125 L 20.160156 -39.019531 C 20.160156 -38.238281 20.203125 -37.785156 20.289062 -37.652344 C 20.378906 -37.523438 20.484375 -37.460938 20.617188 -37.460938 C 21.09375 -37.460938 21.558594 -37.761719 22.015625 -38.371094 C 22.46875 -38.976562 23 -39.734375 23.605469 -40.644531 C 24.214844 -41.554688 24.996094 -42.457031 25.949219 -43.34375 C 26.902344 -44.234375 28.082031 -44.980469 29.492188 -45.589844 C 30.902344 -46.195312 32.625 -46.5 34.664062 -46.5 C 35.832031 -46.5 37.046875 -46.347656 38.304688 -46.042969 C 39.5625 -45.738281 40.625 -45.304688 41.492188 -44.742188 C 42.359375 -44.179688 42.792969 -43.464844 42.792969 -42.597656 C 42.792969 -42.207031 42.414062 -41.285156 41.652344 -39.832031 C 40.894531 -38.378906 40.105469 -36.832031 39.28125 -35.183594 C 38.371094 -33.40625 37.546875 -31.789062 36.808594 -30.339844 C 36.070312 -28.886719 35.398438 -28.160156 34.792969 -28.160156 C 34.097656 -28.160156 33.558594 -28.453125 33.167969 -29.039062 C 32.777344 -29.621094 32.363281 -30.285156 31.929688 -31.019531 C 31.496094 -31.757812 30.859375 -32.417969 30.011719 -33.003906 C 29.167969 -33.589844 27.964844 -33.882812 26.402344 -33.882812 C 24.582031 -33.882812 23.226562 -33.417969 22.339844 -32.484375 C 21.449219 -31.550781 20.863281 -30.4375 20.582031 -29.136719 C 20.300781 -27.835938 20.160156 -26.578125 20.160156 -25.363281 L 20.160156 -7.675781 C 20.160156 -5.808594 20.324219 -4.28125 20.648438 -3.089844 C 20.972656 -1.898438 21.570312 -0.867188 22.4375 0 Z M 0.648438 0 "/></g></g></g><g fill="#cd924c" fill-opacity="1"><g transform="translate(577.642579, 385.110317)"><g><path d="M 0 -38.566406 C 0 -38.910156 0.109375 -39.128906 0.324219 -39.214844 C 0.542969 -39.300781 0.671875 -39.367188 0.714844 -39.410156 C 1.234375 -39.671875 2.046875 -40.070312 3.152344 -40.613281 C 4.257812 -41.15625 5.515625 -41.761719 6.925781 -42.433594 C 8.335938 -43.105469 9.777344 -43.746094 11.25 -44.351562 C 12.726562 -44.960938 14.089844 -45.46875 15.347656 -45.882812 C 16.605469 -46.292969 17.625 -46.5 18.40625 -46.5 C 19.359375 -46.5 19.921875 -46.238281 20.09375 -45.71875 C 20.269531 -45.199219 20.355469 -44.613281 20.355469 -43.960938 L 20.355469 -7.675781 C 20.355469 -5.808594 20.519531 -4.28125 20.84375 -3.089844 C 21.167969 -1.898438 21.765625 -0.867188 22.632812 0 L 0.84375 0 C 1.710938 -0.867188 2.308594 -1.898438 2.632812 -3.089844 C 2.960938 -4.28125 3.121094 -5.808594 3.121094 -7.675781 L 3.121094 -32.648438 C 3.121094 -32.90625 3.109375 -33.382812 3.089844 -34.078125 C 3.066406 -34.769531 2.914062 -35.476562 2.632812 -36.191406 C 2.351562 -36.90625 1.800781 -37.394531 0.976562 -37.652344 C 0.890625 -37.699219 0.703125 -37.761719 0.421875 -37.847656 C 0.140625 -37.9375 0 -38.175781 0 -38.566406 Z M 11.574219 -68.871094 C 14.4375 -68.871094 16.734375 -68.003906 18.46875 -66.269531 C 20.203125 -64.535156 21.070312 -62.238281 21.070312 -59.375 C 21.070312 -56.515625 20.203125 -54.214844 18.46875 -52.480469 C 16.734375 -50.746094 14.4375 -49.878906 11.574219 -49.878906 C 8.714844 -49.878906 6.417969 -50.746094 4.683594 -52.480469 C 2.949219 -54.214844 2.082031 -56.515625 2.082031 -59.375 C 2.082031 -62.238281 2.949219 -64.535156 4.683594 -66.269531 C 6.417969 -68.003906 8.714844 -68.871094 11.574219 -68.871094 Z M 11.574219 -68.871094 "/></g></g></g><g fill="#cd924c" fill-opacity="1"><g transform="translate(600.59601, 385.110317)"><g><path d="M 0 -45.523438 C 1.300781 -45.523438 2.753906 -45.980469 4.355469 -46.890625 C 5.960938 -47.800781 7.585938 -48.9375 9.234375 -50.304688 C 10.882812 -51.667969 12.441406 -53.023438 13.917969 -54.367188 C 15.390625 -55.710938 16.691406 -56.839844 17.820312 -57.75 C 18.945312 -58.660156 19.769531 -59.117188 20.289062 -59.117188 C 21.113281 -59.117188 21.527344 -58.59375 21.527344 -57.554688 L 21.527344 -45.523438 L 27.117188 -45.523438 L 27.117188 -42.273438 L 21.527344 -42.273438 L 21.527344 -16 C 21.527344 -14.308594 21.546875 -12.617188 21.589844 -10.925781 C 21.632812 -9.234375 21.871094 -7.71875 22.304688 -6.375 C 22.738281 -5.027344 23.519531 -3.988281 24.648438 -3.25 C 24.90625 -3.078125 25.179688 -2.992188 25.460938 -2.992188 C 25.742188 -2.992188 26.035156 -2.949219 26.339844 -2.863281 C 26.25 -2.082031 25.828125 -1.398438 25.070312 -0.8125 C 24.3125 -0.226562 23.410156 0.214844 22.371094 0.519531 C 21.332031 0.824219 20.289062 0.976562 19.25 0.976562 C 16.128906 0.976562 13.625 0.457031 11.738281 -0.585938 C 9.851562 -1.625 8.421875 -3.023438 7.445312 -4.78125 C 6.472656 -6.535156 5.820312 -8.496094 5.496094 -10.664062 C 5.171875 -12.832031 5.007812 -15.023438 5.007812 -17.234375 L 5.007812 -38.109375 C 5.007812 -38.761719 4.976562 -39.410156 4.910156 -40.058594 C 4.84375 -40.710938 4.605469 -41.242188 4.195312 -41.652344 C 3.78125 -42.066406 3.054688 -42.273438 2.015625 -42.273438 L 0 -42.273438 Z M 0 -45.523438 "/></g></g></g><g fill="#cd924c" fill-opacity="1"><g transform="translate(628.361193, 385.110317)"><g><path d="M 1.625 -10.144531 C 1.625 -13.613281 2.320312 -16.660156 3.707031 -19.28125 C 5.09375 -21.90625 6.96875 -24.160156 9.332031 -26.046875 C 11.695312 -27.933594 14.339844 -29.480469 17.265625 -30.695312 C 20.191406 -31.910156 23.171875 -32.84375 26.207031 -33.492188 C 27.164062 -33.707031 27.789062 -34.097656 28.09375 -34.664062 C 28.398438 -35.226562 28.550781 -35.789062 28.550781 -36.355469 C 28.550781 -37.308594 28.410156 -38.292969 28.125 -39.3125 C 27.84375 -40.332031 27.304688 -41.199219 26.5 -41.914062 C 25.699219 -42.628906 24.496094 -42.964844 22.890625 -42.921875 C 21.246094 -42.878906 19.75 -42.402344 18.40625 -41.492188 C 17.058594 -40.582031 15.835938 -39.464844 14.730469 -38.140625 C 13.625 -36.820312 12.59375 -35.496094 11.640625 -34.175781 C 10.6875 -32.851562 9.789062 -31.746094 8.941406 -30.859375 C 8.097656 -29.96875 7.261719 -29.523438 6.4375 -29.523438 C 5.917969 -29.523438 5.453125 -29.730469 5.039062 -30.144531 C 4.628906 -30.554688 4.421875 -31.042969 4.421875 -31.605469 L 4.421875 -35.183594 C 4.421875 -36.308594 4.433594 -37.414062 4.453125 -38.5 C 4.476562 -39.582031 4.898438 -40.515625 5.722656 -41.296875 C 7.933594 -43.421875 10.65625 -44.820312 13.882812 -45.492188 C 17.113281 -46.164062 20.441406 -46.5 23.867188 -46.5 C 27.597656 -46.5 30.847656 -45.925781 33.621094 -44.777344 C 36.398438 -43.625 38.683594 -42.109375 40.484375 -40.222656 C 42.28125 -38.335938 43.625 -36.246094 44.515625 -33.949219 C 45.402344 -31.648438 45.847656 -29.328125 45.847656 -26.988281 L 45.847656 -7.675781 C 45.847656 -5.808594 46.011719 -4.28125 46.335938 -3.089844 C 46.660156 -1.898438 47.257812 -0.867188 48.125 0 L 32.191406 0 C 30.285156 0 29.15625 -0.933594 28.808594 -2.796875 C 28.722656 -3.359375 28.539062 -3.878906 28.257812 -4.355469 C 27.976562 -4.835938 27.597656 -5.074219 27.117188 -5.074219 C 26.425781 -5.074219 25.742188 -4.769531 25.070312 -4.164062 C 24.398438 -3.554688 23.585938 -2.851562 22.632812 -2.046875 C 21.679688 -1.246094 20.453125 -0.542969 18.957031 0.0664062 C 17.460938 0.671875 15.542969 0.976562 13.203125 0.976562 C 11.121094 0.976562 9.203125 0.476562 7.445312 -0.519531 C 5.691406 -1.515625 4.28125 -2.851562 3.21875 -4.519531 C 2.15625 -6.1875 1.625 -8.0625 1.625 -10.144531 Z M 26.207031 -29.265625 C 24.820312 -29.265625 23.421875 -28.734375 22.015625 -27.671875 C 20.605469 -26.609375 19.445312 -25.113281 18.535156 -23.183594 C 17.625 -21.253906 17.167969 -18.945312 17.167969 -16.257812 C 17.167969 -14.742188 17.351562 -13.300781 17.722656 -11.933594 C 18.089844 -10.566406 18.71875 -9.453125 19.609375 -8.585938 C 20.496094 -7.71875 21.742188 -7.285156 23.347656 -7.285156 C 25.125 -7.285156 26.445312 -7.988281 27.3125 -9.398438 C 28.179688 -10.804688 28.613281 -12.574219 28.613281 -14.699219 C 28.613281 -16.734375 28.605469 -18.503906 28.582031 -19.996094 C 28.558594 -21.492188 28.550781 -23.238281 28.550781 -25.234375 C 28.550781 -26.707031 28.375 -27.746094 28.03125 -28.355469 C 27.683594 -28.960938 27.074219 -29.265625 26.207031 -29.265625 Z M 26.207031 -29.265625 "/></g></g></g><g fill="#cd924c" fill-opacity="1"><g transform="translate(676.803966, 385.110317)"><g><path d="M 0.976562 -32.515625 C 0.976562 -35.246094 1.59375 -37.511719 2.828125 -39.3125 C 4.066406 -41.113281 5.710938 -42.53125 7.769531 -43.574219 C 9.832031 -44.613281 12.085938 -45.359375 14.535156 -45.816406 C 16.984375 -46.269531 19.445312 -46.5 21.917969 -46.5 C 24.777344 -46.5 27.464844 -46.269531 29.980469 -45.816406 C 32.496094 -45.359375 34.71875 -44.753906 36.644531 -43.996094 C 38.574219 -43.234375 40.082031 -42.402344 41.167969 -41.492188 C 42.25 -40.582031 42.792969 -39.648438 42.792969 -38.695312 C 42.792969 -37.265625 42.457031 -35.867188 41.785156 -34.5 C 41.113281 -33.132812 40.300781 -32.019531 39.34375 -31.152344 C 38.390625 -30.285156 37.523438 -29.851562 36.742188 -29.851562 C 35.007812 -29.851562 33.363281 -30.285156 31.800781 -31.152344 C 30.242188 -32.019531 28.722656 -33.089844 27.25 -34.371094 C 25.773438 -35.648438 24.3125 -36.917969 22.859375 -38.175781 C 21.40625 -39.433594 19.933594 -40.492188 18.4375 -41.359375 C 16.941406 -42.226562 15.371094 -42.660156 13.722656 -42.660156 C 12.984375 -42.660156 12.203125 -42.511719 11.378906 -42.207031 C 10.558594 -41.902344 9.875 -41.425781 9.332031 -40.777344 C 8.789062 -40.125 8.519531 -39.257812 8.519531 -38.175781 C 8.519531 -37.132812 8.953125 -36.265625 9.820312 -35.574219 C 10.6875 -34.878906 11.867188 -34.316406 13.363281 -33.882812 C 14.859375 -33.449219 16.519531 -33.058594 18.339844 -32.710938 C 21.199219 -32.191406 24.074219 -31.550781 26.957031 -30.792969 C 29.839844 -30.035156 32.460938 -29.003906 34.824219 -27.703125 C 37.1875 -26.402344 39.085938 -24.703125 40.515625 -22.597656 C 41.945312 -20.496094 42.660156 -17.882812 42.660156 -14.761719 C 42.660156 -11.769531 42 -9.257812 40.679688 -7.21875 C 39.355469 -5.179688 37.675781 -3.566406 35.636719 -2.375 C 33.601562 -1.179688 31.464844 -0.324219 29.234375 0.195312 C 27 0.714844 24.972656 0.976562 23.152344 0.976562 C 20.941406 0.976562 18.566406 0.824219 16.03125 0.519531 C 13.496094 0.214844 11.109375 -0.195312 8.878906 -0.714844 C 6.644531 -1.234375 4.824219 -1.851562 3.414062 -2.570312 C 2.003906 -3.285156 1.300781 -4.054688 1.300781 -4.878906 C 1.300781 -5.570312 1.496094 -6.578125 1.886719 -7.902344 C 2.277344 -9.222656 2.785156 -10.589844 3.414062 -12 C 4.042969 -13.40625 4.726562 -14.601562 5.460938 -15.574219 C 6.199219 -16.550781 6.894531 -17.039062 7.542969 -17.039062 C 8.542969 -17.039062 9.710938 -16.605469 11.054688 -15.738281 C 12.398438 -14.871094 13.972656 -13.875 15.769531 -12.746094 C 17.570312 -11.621094 19.640625 -10.621094 21.980469 -9.753906 C 24.324219 -8.886719 26.988281 -8.453125 29.980469 -8.453125 C 31.496094 -8.453125 32.949219 -8.714844 34.335938 -9.234375 C 35.726562 -9.753906 36.875 -10.46875 37.785156 -11.378906 C 38.695312 -12.292969 39.148438 -13.308594 39.148438 -14.4375 C 39.148438 -15.21875 38.910156 -15.75 38.433594 -16.03125 C 37.957031 -16.3125 37.285156 -16.453125 36.417969 -16.453125 C 35.203125 -16.453125 33.65625 -16.3125 31.769531 -16.03125 C 29.882812 -15.75 27.703125 -15.609375 25.234375 -15.609375 C 22.589844 -15.609375 19.855469 -15.890625 17.039062 -16.453125 C 14.21875 -17.015625 11.597656 -17.960938 9.167969 -19.28125 C 6.742188 -20.605469 4.769531 -22.351562 3.25 -24.515625 C 1.734375 -26.683594 0.976562 -29.351562 0.976562 -32.515625 Z M 0.976562 -32.515625 "/></g></g></g><g fill="#cd924c" fill-opacity="1"><g transform="translate(361.860785, 314.844142)"><g><path d="M -0.488281 -28.90625 C -0.488281 -29.164062 -0.40625 -29.328125 -0.242188 -29.390625 C -0.0820312 -29.457031 0.015625 -29.503906 0.046875 -29.539062 C 0.4375 -29.699219 1.0625 -29.976562 1.925781 -30.367188 C 2.785156 -30.757812 3.777344 -31.203125 4.898438 -31.707031 C 6.019531 -32.210938 7.148438 -32.707031 8.285156 -33.195312 C 9.421875 -33.679688 10.480469 -34.078125 11.453125 -34.386719 C 12.429688 -34.695312 13.210938 -34.851562 13.792969 -34.851562 C 14.507812 -34.851562 14.929688 -34.65625 15.0625 -34.265625 C 15.191406 -33.875 15.257812 -33.4375 15.257812 -32.949219 L 15.257812 -31.488281 C 15.355469 -31.261719 15.46875 -31.121094 15.597656 -31.074219 C 15.726562 -31.023438 15.875 -31 16.035156 -31 C 16.296875 -31 16.613281 -31.195312 16.988281 -31.585938 C 17.359375 -31.976562 17.855469 -32.421875 18.472656 -32.925781 C 19.089844 -33.429688 19.863281 -33.875 20.789062 -34.265625 C 21.714844 -34.65625 22.859375 -34.851562 24.226562 -34.851562 C 26.628906 -34.851562 28.703125 -34.308594 30.441406 -33.21875 C 32.179688 -32.128906 33.609375 -30.691406 34.730469 -28.90625 C 35.851562 -27.117188 36.679688 -25.136719 37.214844 -22.957031 C 37.75 -20.78125 38.019531 -18.585938 38.019531 -16.378906 C 38.019531 -13.226562 37.484375 -10.359375 36.410156 -7.773438 C 35.339844 -5.191406 33.769531 -3.128906 31.707031 -1.585938 C 29.644531 -0.0390625 27.148438 0.730469 24.226562 0.730469 C 22.957031 0.730469 21.625 0.414062 20.226562 -0.21875 C 18.832031 -0.851562 17.464844 -2.210938 16.132812 -4.289062 C 15.972656 -4.550781 15.785156 -4.734375 15.574219 -4.851562 C 15.363281 -4.964844 15.257812 -4.839844 15.257812 -4.484375 L 15.257812 10.625 C 15.257812 11.859375 15.070312 12.835938 14.695312 13.550781 C 14.324219 14.265625 13.617188 14.621094 12.574219 14.621094 L 0.632812 14.621094 C 1.285156 13.972656 1.730469 13.203125 1.972656 12.308594 C 2.21875 11.414062 2.339844 10.269531 2.339844 8.871094 L 2.339844 -24.46875 C 2.339844 -24.664062 2.324219 -25.011719 2.289062 -25.515625 C 2.257812 -26.019531 2.105469 -26.53125 1.828125 -27.050781 C 1.550781 -27.570312 1.023438 -27.960938 0.242188 -28.222656 C 0.179688 -28.253906 0.0390625 -28.304688 -0.171875 -28.367188 C -0.382812 -28.433594 -0.488281 -28.613281 -0.488281 -28.90625 Z M 15.257812 -22.566406 L 15.257812 -13.0625 C 15.257812 -12.378906 15.296875 -11.609375 15.378906 -10.746094 C 15.460938 -9.886719 15.644531 -9.042969 15.9375 -8.214844 C 16.230469 -7.382812 16.660156 -6.703125 17.230469 -6.164062 C 17.800781 -5.628906 18.570312 -5.363281 19.546875 -5.363281 C 20.910156 -5.363281 21.976562 -5.734375 22.738281 -6.484375 C 23.503906 -7.230469 24.054688 -8.214844 24.394531 -9.433594 C 24.738281 -10.648438 24.949219 -11.992188 25.03125 -13.453125 C 25.109375 -14.914062 25.152344 -16.34375 25.152344 -17.742188 C 25.152344 -19.074219 25.070312 -20.441406 24.90625 -21.835938 C 24.746094 -23.234375 24.4375 -24.535156 23.980469 -25.734375 C 23.527344 -26.9375 22.886719 -27.90625 22.054688 -28.636719 C 21.226562 -29.367188 20.128906 -29.734375 18.765625 -29.734375 C 18.019531 -29.734375 17.410156 -29.480469 16.9375 -28.976562 C 16.46875 -28.472656 16.109375 -27.839844 15.867188 -27.078125 C 15.621094 -26.3125 15.460938 -25.523438 15.378906 -24.710938 C 15.296875 -23.898438 15.257812 -23.183594 15.257812 -22.566406 Z M 15.257812 -22.566406 "/></g></g></g><g fill="#cd924c" fill-opacity="1"><g transform="translate(401.098786, 314.844142)"><g><path d="M 1.21875 -7.605469 C 1.21875 -10.203125 1.738281 -12.484375 2.777344 -14.453125 C 3.816406 -16.417969 5.222656 -18.109375 6.996094 -19.523438 C 8.765625 -20.933594 10.746094 -22.097656 12.941406 -23.007812 C 15.132812 -23.917969 17.367188 -24.613281 19.644531 -25.101562 C 20.359375 -25.265625 20.828125 -25.558594 21.058594 -25.980469 C 21.285156 -26.402344 21.398438 -26.824219 21.398438 -27.246094 C 21.398438 -27.960938 21.292969 -28.703125 21.082031 -29.464844 C 20.871094 -30.230469 20.464844 -30.878906 19.863281 -31.414062 C 19.261719 -31.949219 18.359375 -32.203125 17.15625 -32.171875 C 15.921875 -32.136719 14.800781 -31.78125 13.792969 -31.097656 C 12.785156 -30.414062 11.867188 -29.578125 11.039062 -28.585938 C 10.210938 -27.597656 9.441406 -26.605469 8.726562 -25.613281 C 8.011719 -24.625 7.335938 -23.792969 6.703125 -23.128906 C 6.070312 -22.460938 5.441406 -22.128906 4.824219 -22.128906 C 4.4375 -22.128906 4.085938 -22.285156 3.777344 -22.59375 C 3.46875 -22.902344 3.316406 -23.265625 3.316406 -23.6875 L 3.316406 -26.371094 C 3.316406 -27.214844 3.324219 -28.042969 3.339844 -28.855469 C 3.355469 -29.667969 3.671875 -30.367188 4.289062 -30.953125 C 5.945312 -32.542969 7.984375 -33.59375 10.40625 -34.09375 C 12.828125 -34.597656 15.320312 -34.851562 17.886719 -34.851562 C 20.683594 -34.851562 23.121094 -34.421875 25.199219 -33.558594 C 27.28125 -32.699219 28.992188 -31.5625 30.34375 -30.148438 C 31.691406 -28.734375 32.699219 -27.164062 33.363281 -25.445312 C 34.03125 -23.722656 34.363281 -21.984375 34.363281 -20.226562 L 34.363281 -5.75 C 34.363281 -4.355469 34.484375 -3.207031 34.730469 -2.316406 C 34.972656 -1.421875 35.417969 -0.648438 36.070312 0 L 24.128906 0 C 22.699219 0 21.851562 -0.699219 21.59375 -2.097656 C 21.527344 -2.519531 21.390625 -2.910156 21.179688 -3.265625 C 20.96875 -3.625 20.683594 -3.800781 20.324219 -3.800781 C 19.804688 -3.800781 19.292969 -3.574219 18.789062 -3.121094 C 18.285156 -2.664062 17.675781 -2.136719 16.960938 -1.535156 C 16.246094 -0.933594 15.328125 -0.40625 14.207031 0.046875 C 13.085938 0.503906 11.648438 0.730469 9.894531 0.730469 C 8.335938 0.730469 6.898438 0.359375 5.582031 -0.390625 C 4.265625 -1.136719 3.207031 -2.136719 2.414062 -3.386719 C 1.617188 -4.640625 1.21875 -6.042969 1.21875 -7.605469 Z M 19.644531 -21.933594 C 18.605469 -21.933594 17.554688 -21.535156 16.5 -20.738281 C 15.441406 -19.945312 14.574219 -18.824219 13.890625 -17.375 C 13.210938 -15.929688 12.867188 -14.199219 12.867188 -12.1875 C 12.867188 -11.046875 13.007812 -9.96875 13.28125 -8.945312 C 13.558594 -7.921875 14.03125 -7.082031 14.695312 -6.433594 C 15.363281 -5.785156 16.296875 -5.460938 17.5 -5.460938 C 18.832031 -5.460938 19.820312 -5.988281 20.472656 -7.042969 C 21.121094 -8.097656 21.445312 -9.421875 21.445312 -11.015625 C 21.445312 -12.542969 21.4375 -13.867188 21.421875 -14.988281 C 21.40625 -16.109375 21.398438 -17.417969 21.398438 -18.914062 C 21.398438 -20.015625 21.269531 -20.796875 21.007812 -21.25 C 20.75 -21.707031 20.292969 -21.933594 19.644531 -21.933594 Z M 19.644531 -21.933594 "/></g></g></g><g fill="#cd924c" fill-opacity="1"><g transform="translate(437.412207, 314.844142)"><g><path d="M 0.488281 0 C 1.136719 -0.648438 1.585938 -1.421875 1.828125 -2.316406 C 2.070312 -3.207031 2.195312 -4.355469 2.195312 -5.75 L 2.195312 -28.367188 C 2.195312 -29.765625 2.070312 -30.910156 1.828125 -31.804688 C 1.585938 -32.699219 1.136719 -33.46875 0.488281 -34.121094 L 12.429688 -34.121094 C 13.46875 -34.121094 14.175781 -33.753906 14.550781 -33.023438 C 14.921875 -32.292969 15.109375 -31.308594 15.109375 -30.074219 L 15.109375 -29.246094 C 15.109375 -28.660156 15.144531 -28.320312 15.207031 -28.222656 C 15.273438 -28.125 15.355469 -28.074219 15.453125 -28.074219 C 15.808594 -28.074219 16.160156 -28.304688 16.5 -28.757812 C 16.839844 -29.214844 17.238281 -29.78125 17.695312 -30.464844 C 18.148438 -31.148438 18.734375 -31.820312 19.449219 -32.488281 C 20.164062 -33.152344 21.046875 -33.714844 22.105469 -34.167969 C 23.160156 -34.625 24.453125 -34.851562 25.980469 -34.851562 C 26.855469 -34.851562 27.765625 -34.738281 28.710938 -34.511719 C 29.652344 -34.28125 30.449219 -33.957031 31.097656 -33.535156 C 31.746094 -33.113281 32.074219 -32.578125 32.074219 -31.925781 C 32.074219 -31.632812 31.789062 -30.945312 31.21875 -29.855469 C 30.652344 -28.765625 30.058594 -27.605469 29.441406 -26.371094 C 28.757812 -25.039062 28.140625 -23.828125 27.589844 -22.738281 C 27.035156 -21.648438 26.53125 -21.105469 26.078125 -21.105469 C 25.558594 -21.105469 25.152344 -21.324219 24.859375 -21.765625 C 24.566406 -22.203125 24.257812 -22.699219 23.933594 -23.25 C 23.609375 -23.804688 23.128906 -24.296875 22.496094 -24.738281 C 21.859375 -25.175781 20.960938 -25.394531 19.789062 -25.394531 C 18.425781 -25.394531 17.410156 -25.046875 16.742188 -24.347656 C 16.078125 -23.648438 15.636719 -22.8125 15.425781 -21.835938 C 15.214844 -20.863281 15.109375 -19.917969 15.109375 -19.007812 L 15.109375 -5.75 C 15.109375 -4.355469 15.230469 -3.207031 15.476562 -2.316406 C 15.71875 -1.421875 16.167969 -0.648438 16.816406 0 Z M 0.488281 0 "/></g></g></g><g fill="#cd924c" fill-opacity="1"><g transform="translate(469.972434, 314.844142)"><g><path d="M 1.21875 -7.605469 C 1.21875 -10.203125 1.738281 -12.484375 2.777344 -14.453125 C 3.816406 -16.417969 5.222656 -18.109375 6.996094 -19.523438 C 8.765625 -20.933594 10.746094 -22.097656 12.941406 -23.007812 C 15.132812 -23.917969 17.367188 -24.613281 19.644531 -25.101562 C 20.359375 -25.265625 20.828125 -25.558594 21.058594 -25.980469 C 21.285156 -26.402344 21.398438 -26.824219 21.398438 -27.246094 C 21.398438 -27.960938 21.292969 -28.703125 21.082031 -29.464844 C 20.871094 -30.230469 20.464844 -30.878906 19.863281 -31.414062 C 19.261719 -31.949219 18.359375 -32.203125 17.15625 -32.171875 C 15.921875 -32.136719 14.800781 -31.78125 13.792969 -31.097656 C 12.785156 -30.414062 11.867188 -29.578125 11.039062 -28.585938 C 10.210938 -27.597656 9.441406 -26.605469 8.726562 -25.613281 C 8.011719 -24.625 7.335938 -23.792969 6.703125 -23.128906 C 6.070312 -22.460938 5.441406 -22.128906 4.824219 -22.128906 C 4.4375 -22.128906 4.085938 -22.285156 3.777344 -22.59375 C 3.46875 -22.902344 3.316406 -23.265625 3.316406 -23.6875 L 3.316406 -26.371094 C 3.316406 -27.214844 3.324219 -28.042969 3.339844 -28.855469 C 3.355469 -29.667969 3.671875 -30.367188 4.289062 -30.953125 C 5.945312 -32.542969 7.984375 -33.59375 10.40625 -34.09375 C 12.828125 -34.597656 15.320312 -34.851562 17.886719 -34.851562 C 20.683594 -34.851562 23.121094 -34.421875 25.199219 -33.558594 C 27.28125 -32.699219 28.992188 -31.5625 30.34375 -30.148438 C 31.691406 -28.734375 32.699219 -27.164062 33.363281 -25.445312 C 34.03125 -23.722656 34.363281 -21.984375 34.363281 -20.226562 L 34.363281 -5.75 C 34.363281 -4.355469 34.484375 -3.207031 34.730469 -2.316406 C 34.972656 -1.421875 35.417969 -0.648438 36.070312 0 L 24.128906 0 C 22.699219 0 21.851562 -0.699219 21.59375 -2.097656 C 21.527344 -2.519531 21.390625 -2.910156 21.179688 -3.265625 C 20.96875 -3.625 20.683594 -3.800781 20.324219 -3.800781 C 19.804688 -3.800781 19.292969 -3.574219 18.789062 -3.121094 C 18.285156 -2.664062 17.675781 -2.136719 16.960938 -1.535156 C 16.246094 -0.933594 15.328125 -0.40625 14.207031 0.046875 C 13.085938 0.503906 11.648438 0.730469 9.894531 0.730469 C 8.335938 0.730469 6.898438 0.359375 5.582031 -0.390625 C 4.265625 -1.136719 3.207031 -2.136719 2.414062 -3.386719 C 1.617188 -4.640625 1.21875 -6.042969 1.21875 -7.605469 Z M 19.644531 -21.933594 C 18.605469 -21.933594 17.554688 -21.535156 16.5 -20.738281 C 15.441406 -19.945312 14.574219 -18.824219 13.890625 -17.375 C 13.210938 -15.929688 12.867188 -14.199219 12.867188 -12.1875 C 12.867188 -11.046875 13.007812 -9.96875 13.28125 -8.945312 C 13.558594 -7.921875 14.03125 -7.082031 14.695312 -6.433594 C 15.363281 -5.785156 16.296875 -5.460938 17.5 -5.460938 C 18.832031 -5.460938 19.820312 -5.988281 20.472656 -7.042969 C 21.121094 -8.097656 21.445312 -9.421875 21.445312 -11.015625 C 21.445312 -12.542969 21.4375 -13.867188 21.421875 -14.988281 C 21.40625 -16.109375 21.398438 -17.417969 21.398438 -18.914062 C 21.398438 -20.015625 21.269531 -20.796875 21.007812 -21.25 C 20.75 -21.707031 20.292969 -21.933594 19.644531 -21.933594 Z M 19.644531 -21.933594 "/></g></g></g><g fill="#cd924c" fill-opacity="1"><g transform="translate(506.285855, 314.844142)"><g/></g><g transform="translate(523.345851, 314.844142)"><g><path d="M 0 -34.121094 C 0.976562 -34.121094 2.0625 -34.460938 3.265625 -35.144531 C 4.46875 -35.824219 5.6875 -36.679688 6.921875 -37.703125 C 8.15625 -38.726562 9.324219 -39.742188 10.429688 -40.75 C 11.535156 -41.757812 12.511719 -42.601562 13.355469 -43.285156 C 14.199219 -43.964844 14.816406 -44.308594 15.207031 -44.308594 C 15.824219 -44.308594 16.132812 -43.917969 16.132812 -43.136719 L 16.132812 -34.121094 L 20.324219 -34.121094 L 20.324219 -31.683594 L 16.132812 -31.683594 L 16.132812 -11.992188 C 16.132812 -10.722656 16.148438 -9.457031 16.183594 -8.1875 C 16.214844 -6.921875 16.394531 -5.785156 16.71875 -4.777344 C 17.042969 -3.769531 17.628906 -2.988281 18.472656 -2.4375 C 18.667969 -2.308594 18.871094 -2.242188 19.082031 -2.242188 C 19.292969 -2.242188 19.511719 -2.210938 19.742188 -2.144531 C 19.675781 -1.558594 19.359375 -1.046875 18.789062 -0.609375 C 18.222656 -0.171875 17.546875 0.164062 16.765625 0.390625 C 15.988281 0.617188 15.207031 0.730469 14.429688 0.730469 C 12.089844 0.730469 10.210938 0.339844 8.796875 -0.4375 C 7.382812 -1.21875 6.3125 -2.265625 5.582031 -3.582031 C 4.851562 -4.898438 4.363281 -6.367188 4.117188 -7.992188 C 3.875 -9.617188 3.753906 -11.257812 3.753906 -12.917969 L 3.753906 -28.5625 C 3.753906 -29.050781 3.730469 -29.539062 3.679688 -30.027344 C 3.632812 -30.511719 3.453125 -30.910156 3.144531 -31.21875 C 2.835938 -31.527344 2.289062 -31.683594 1.511719 -31.683594 L 0 -31.683594 Z M 0 -34.121094 "/></g></g></g><g fill="#cd924c" fill-opacity="1"><g transform="translate(544.159055, 314.844142)"><g><path d="M 0.242188 -34.121094 L 16.574219 -34.121094 C 15.921875 -33.46875 15.476562 -32.699219 15.230469 -31.804688 C 14.988281 -30.910156 14.867188 -29.765625 14.867188 -28.367188 L 14.867188 -12.527344 C 14.867188 -11.421875 15.0625 -10.421875 15.453125 -9.527344 C 15.839844 -8.636719 16.574219 -8.1875 17.644531 -8.1875 C 18.390625 -8.1875 19.089844 -8.390625 19.742188 -8.796875 C 20.390625 -9.203125 20.917969 -9.910156 21.324219 -10.917969 C 21.730469 -11.925781 21.933594 -13.324219 21.933594 -15.109375 L 21.933594 -28.367188 C 21.933594 -29.765625 21.8125 -30.910156 21.570312 -31.804688 C 21.324219 -32.699219 20.878906 -33.46875 20.226562 -34.121094 L 36.558594 -34.121094 C 35.90625 -33.46875 35.460938 -32.699219 35.214844 -31.804688 C 34.972656 -30.910156 34.851562 -29.765625 34.851562 -28.367188 L 34.851562 -5.75 C 34.851562 -4.355469 34.972656 -3.207031 35.214844 -2.316406 C 35.460938 -1.421875 35.90625 -0.648438 36.558594 0 L 24.613281 0 C 23.574219 0 22.867188 -0.367188 22.496094 -1.097656 C 22.121094 -1.828125 21.933594 -2.8125 21.933594 -4.046875 L 21.933594 -4.875 C 21.933594 -5.460938 21.902344 -5.800781 21.835938 -5.898438 C 21.773438 -5.996094 21.691406 -6.042969 21.59375 -6.042969 C 21.203125 -6.042969 20.820312 -5.816406 20.449219 -5.363281 C 20.074219 -4.90625 19.636719 -4.347656 19.132812 -3.679688 C 18.628906 -3.015625 18.011719 -2.339844 17.28125 -1.65625 C 16.546875 -0.976562 15.621094 -0.40625 14.5 0.046875 C 13.378906 0.503906 11.992188 0.730469 10.332031 0.730469 C 8.546875 0.730469 7.109375 0.382812 6.019531 -0.316406 C 4.929688 -1.015625 4.09375 -1.941406 3.507812 -3.09375 C 2.925781 -4.25 2.527344 -5.492188 2.316406 -6.824219 C 2.105469 -8.15625 2 -9.457031 2 -10.722656 L 1.949219 -20.035156 L 1.949219 -28.367188 C 1.949219 -29.765625 1.828125 -30.910156 1.585938 -31.804688 C 1.339844 -32.699219 0.894531 -33.46875 0.242188 -34.121094 Z M 0.242188 -34.121094 "/></g></g></g><g fill="#cd924c" fill-opacity="1"><g transform="translate(581.203625, 314.844142)"><g><path d="M 0.730469 -24.371094 C 0.730469 -26.417969 1.195312 -28.117188 2.121094 -29.464844 C 3.046875 -30.8125 4.28125 -31.878906 5.824219 -32.65625 C 7.367188 -33.4375 9.058594 -34 10.894531 -34.339844 C 12.730469 -34.679688 14.574219 -34.851562 16.425781 -34.851562 C 18.570312 -34.851562 20.585938 -34.679688 22.46875 -34.339844 C 24.355469 -34 26.019531 -33.542969 27.464844 -32.972656 C 28.914062 -32.40625 30.042969 -31.78125 30.855469 -31.097656 C 31.667969 -30.414062 32.074219 -29.71875 32.074219 -29.003906 C 32.074219 -27.929688 31.820312 -26.882812 31.316406 -25.859375 C 30.8125 -24.835938 30.203125 -23.996094 29.488281 -23.347656 C 28.773438 -22.699219 28.125 -22.371094 27.539062 -22.371094 C 26.238281 -22.371094 25.003906 -22.699219 23.835938 -23.347656 C 22.664062 -23.996094 21.527344 -24.800781 20.421875 -25.761719 C 19.320312 -26.71875 18.222656 -27.667969 17.132812 -28.613281 C 16.042969 -29.554688 14.941406 -30.351562 13.820312 -31 C 12.699219 -31.648438 11.519531 -31.976562 10.285156 -31.976562 C 9.730469 -31.976562 9.148438 -31.863281 8.53125 -31.632812 C 7.914062 -31.40625 7.402344 -31.050781 6.996094 -30.5625 C 6.589844 -30.074219 6.386719 -29.425781 6.386719 -28.613281 C 6.386719 -27.832031 6.710938 -27.183594 7.359375 -26.664062 C 8.011719 -26.140625 8.894531 -25.71875 10.015625 -25.394531 C 11.136719 -25.070312 12.378906 -24.777344 13.746094 -24.519531 C 15.890625 -24.128906 18.042969 -23.648438 20.203125 -23.078125 C 22.363281 -22.511719 24.332031 -21.738281 26.101562 -20.765625 C 27.871094 -19.789062 29.292969 -18.515625 30.367188 -16.9375 C 31.4375 -15.363281 31.976562 -13.402344 31.976562 -11.066406 C 31.976562 -8.824219 31.480469 -6.9375 30.488281 -5.410156 C 29.496094 -3.882812 28.238281 -2.671875 26.710938 -1.777344 C 25.183594 -0.886719 23.582031 -0.242188 21.910156 0.144531 C 20.238281 0.535156 18.71875 0.730469 17.351562 0.730469 C 15.695312 0.730469 13.917969 0.617188 12.015625 0.390625 C 10.113281 0.164062 8.328125 -0.144531 6.652344 -0.535156 C 4.980469 -0.925781 3.613281 -1.390625 2.558594 -1.925781 C 1.503906 -2.460938 0.976562 -3.039062 0.976562 -3.65625 C 0.976562 -4.175781 1.121094 -4.929688 1.414062 -5.921875 C 1.707031 -6.914062 2.085938 -7.9375 2.558594 -8.992188 C 3.03125 -10.050781 3.542969 -10.941406 4.09375 -11.675781 C 4.648438 -12.40625 5.167969 -12.769531 5.652344 -12.769531 C 6.402344 -12.769531 7.277344 -12.445312 8.285156 -11.796875 C 9.292969 -11.144531 10.472656 -10.398438 11.820312 -9.554688 C 13.167969 -8.707031 14.71875 -7.960938 16.476562 -7.3125 C 18.230469 -6.660156 20.226562 -6.335938 22.46875 -6.335938 C 23.609375 -6.335938 24.695312 -6.53125 25.734375 -6.921875 C 26.777344 -7.3125 27.636719 -7.847656 28.320312 -8.53125 C 29.003906 -9.210938 29.34375 -9.976562 29.34375 -10.820312 C 29.34375 -11.40625 29.164062 -11.804688 28.808594 -12.015625 C 28.449219 -12.226562 27.945312 -12.332031 27.296875 -12.332031 C 26.386719 -12.332031 25.222656 -12.226562 23.8125 -12.015625 C 22.398438 -11.804688 20.765625 -11.699219 18.914062 -11.699219 C 16.929688 -11.699219 14.882812 -11.910156 12.769531 -12.332031 C 10.660156 -12.753906 8.691406 -13.460938 6.871094 -14.453125 C 5.054688 -15.441406 3.574219 -16.75 2.4375 -18.375 C 1.300781 -20 0.730469 -22 0.730469 -24.371094 Z M 0.730469 -24.371094 "/></g></g></g></svg>