<svg xmlns="http://www.w3.org/2000/svg" xmlns:xlink="http://www.w3.org/1999/xlink" width="1512" zoomAndPan="magnify" viewBox="0 0 1134 425.249996" height="567" preserveAspectRatio="xMidYMid meet" version="1.0"><defs><g/><clipPath id="88d2f03b5a"><path d="M 707.488281 204 L 848 204 L 848 345 L 707.488281 345 Z M 707.488281 204 " clip-rule="nonzero"/></clipPath></defs><path fill="#284747" d="M 886.300781 199.886719 C 886.300781 201.164062 886.269531 202.441406 886.207031 203.71875 C 886.144531 205 886.050781 206.273438 885.925781 207.546875 C 885.800781 208.820312 885.644531 210.089844 885.457031 211.355469 C 885.269531 212.617188 885.050781 213.878906 884.800781 215.132812 C 884.550781 216.386719 884.273438 217.636719 883.960938 218.875 C 883.652344 220.117188 883.308594 221.351562 882.9375 222.574219 C 882.566406 223.796875 882.167969 225.011719 881.734375 226.214844 C 881.304688 227.421875 880.84375 228.613281 880.355469 229.796875 C 879.867188 230.976562 879.347656 232.144531 878.800781 233.300781 C 878.253906 234.457031 877.679688 235.601562 877.078125 236.730469 C 876.476562 237.855469 875.84375 238.96875 875.1875 240.066406 C 874.53125 241.164062 873.847656 242.246094 873.136719 243.308594 C 872.425781 244.371094 871.691406 245.417969 870.929688 246.445312 C 870.167969 247.472656 869.378906 248.480469 868.570312 249.46875 C 867.757812 250.457031 866.921875 251.425781 866.066406 252.375 C 865.207031 253.320312 864.324219 254.246094 863.421875 255.152344 C 862.515625 256.054688 861.589844 256.9375 860.644531 257.796875 C 859.695312 258.65625 858.726562 259.492188 857.738281 260.304688 C 856.75 261.113281 855.742188 261.902344 854.71875 262.664062 C 853.691406 263.425781 852.644531 264.160156 851.582031 264.871094 C 850.519531 265.582031 849.4375 266.265625 848.34375 266.925781 C 847.246094 267.582031 846.132812 268.210938 845.007812 268.816406 C 843.878906 269.417969 842.738281 269.992188 841.582031 270.539062 C 840.425781 271.085938 839.257812 271.605469 838.074219 272.09375 C 836.894531 272.585938 835.703125 273.042969 834.496094 273.476562 C 833.292969 273.90625 832.082031 274.308594 830.855469 274.679688 C 829.632812 275.050781 828.402344 275.390625 827.160156 275.703125 C 825.921875 276.011719 824.675781 276.292969 823.421875 276.542969 C 822.167969 276.792969 820.90625 277.011719 819.640625 277.199219 C 818.378906 277.386719 817.109375 277.542969 815.835938 277.667969 C 814.5625 277.792969 813.289062 277.886719 812.011719 277.949219 C 810.734375 278.011719 809.457031 278.042969 808.179688 278.042969 C 806.898438 278.042969 805.621094 278.011719 804.34375 277.949219 C 803.070312 277.886719 801.792969 277.792969 800.519531 277.667969 C 799.25 277.542969 797.980469 277.386719 796.714844 277.199219 C 795.449219 277.011719 794.191406 276.792969 792.9375 276.542969 C 791.683594 276.292969 790.4375 276.011719 789.195312 275.703125 C 787.957031 275.390625 786.722656 275.050781 785.5 274.679688 C 784.277344 274.308594 783.0625 273.90625 781.859375 273.476562 C 780.65625 273.042969 779.464844 272.585938 778.28125 272.09375 C 777.101562 271.605469 775.933594 271.085938 774.777344 270.539062 C 773.621094 269.992188 772.480469 269.417969 771.351562 268.816406 C 770.222656 268.210938 769.113281 267.582031 768.015625 266.925781 C 766.917969 266.265625 765.839844 265.582031 764.777344 264.871094 C 763.710938 264.160156 762.667969 263.425781 761.640625 262.664062 C 760.613281 261.902344 759.605469 261.113281 758.617188 260.304688 C 757.628906 259.492188 756.660156 258.65625 755.714844 257.796875 C 754.765625 256.9375 753.839844 256.054688 752.9375 255.152344 C 752.03125 254.246094 751.152344 253.320312 750.292969 252.375 C 749.433594 251.425781 748.597656 250.457031 747.789062 249.46875 C 746.976562 248.480469 746.191406 247.472656 745.429688 246.445312 C 744.667969 245.417969 743.933594 244.371094 743.222656 243.308594 C 742.511719 242.246094 741.828125 241.164062 741.167969 240.066406 C 740.511719 238.96875 739.882812 237.855469 739.28125 236.730469 C 738.675781 235.601562 738.101562 234.457031 737.554688 233.300781 C 737.007812 232.144531 736.492188 230.976562 736 229.796875 C 735.511719 228.613281 735.050781 227.421875 734.621094 226.214844 C 734.191406 225.011719 733.789062 223.796875 733.417969 222.574219 C 733.046875 221.351562 732.707031 220.117188 732.394531 218.875 C 732.085938 217.636719 731.804688 216.386719 731.554688 215.132812 C 731.308594 213.878906 731.089844 212.617188 730.902344 211.355469 C 730.714844 210.089844 730.554688 208.820312 730.429688 207.546875 C 730.304688 206.273438 730.210938 205 730.148438 203.71875 C 730.085938 202.441406 730.054688 201.164062 730.054688 199.886719 C 730.054688 198.605469 730.085938 197.328125 730.148438 196.050781 C 730.210938 194.773438 730.304688 193.496094 730.429688 192.222656 C 730.554688 190.953125 730.714844 189.683594 730.902344 188.417969 C 731.089844 187.152344 731.308594 185.890625 731.554688 184.636719 C 731.804688 183.382812 732.085938 182.136719 732.394531 180.894531 C 732.707031 179.652344 733.046875 178.421875 733.417969 177.195312 C 733.789062 175.972656 734.191406 174.757812 734.621094 173.554688 C 735.050781 172.351562 735.511719 171.15625 736 169.976562 C 736.492188 168.792969 737.007812 167.625 737.554688 166.46875 C 738.101562 165.3125 738.675781 164.167969 739.28125 163.042969 C 739.882812 161.914062 740.511719 160.800781 741.167969 159.703125 C 741.828125 158.605469 742.511719 157.527344 743.222656 156.460938 C 743.933594 155.398438 744.667969 154.355469 745.429688 153.328125 C 746.191406 152.300781 746.976562 151.289062 747.789062 150.300781 C 748.597656 149.3125 749.433594 148.34375 750.292969 147.398438 C 751.152344 146.449219 752.03125 145.523438 752.9375 144.617188 C 753.839844 143.714844 754.765625 142.832031 755.714844 141.972656 C 756.660156 141.113281 757.628906 140.28125 758.617188 139.46875 C 759.605469 138.65625 760.613281 137.871094 761.640625 137.109375 C 762.667969 136.34375 763.710938 135.609375 764.777344 134.898438 C 765.839844 134.1875 766.917969 133.503906 768.015625 132.847656 C 769.113281 132.1875 770.222656 131.558594 771.351562 130.957031 C 772.480469 130.351562 773.621094 129.777344 774.777344 129.230469 C 775.933594 128.683594 777.101562 128.164062 778.28125 127.675781 C 779.464844 127.1875 780.65625 126.726562 781.859375 126.296875 C 783.0625 125.863281 784.277344 125.464844 785.5 125.09375 C 786.722656 124.722656 787.957031 124.378906 789.195312 124.070312 C 790.4375 123.757812 791.683594 123.476562 792.9375 123.226562 C 794.191406 122.980469 795.449219 122.761719 796.714844 122.574219 C 797.980469 122.386719 799.25 122.226562 800.519531 122.101562 C 801.792969 121.976562 803.070312 121.882812 804.34375 121.820312 C 805.621094 121.757812 806.898438 121.726562 808.179688 121.726562 C 809.457031 121.726562 810.734375 121.757812 812.011719 121.820312 C 813.289062 121.882812 814.5625 121.976562 815.835938 122.101562 C 817.109375 122.226562 818.378906 122.386719 819.640625 122.574219 C 820.90625 122.761719 822.167969 122.980469 823.421875 123.226562 C 824.675781 123.476562 825.921875 123.757812 827.160156 124.070312 C 828.402344 124.378906 829.632812 124.722656 830.855469 125.09375 C 832.082031 125.464844 833.292969 125.863281 834.496094 126.296875 C 835.703125 126.726562 836.894531 127.1875 838.074219 127.675781 C 839.257812 128.164062 840.425781 128.683594 841.582031 129.230469 C 842.738281 129.777344 843.878906 130.351562 845.007812 130.957031 C 846.132812 131.558594 847.246094 132.1875 848.34375 132.847656 C 849.4375 133.503906 850.519531 134.1875 851.582031 134.898438 C 852.644531 135.609375 853.691406 136.34375 854.71875 137.109375 C 855.742188 137.871094 856.75 138.65625 857.738281 139.46875 C 858.726562 140.28125 859.695312 141.113281 860.644531 141.972656 C 861.589844 142.832031 862.515625 143.714844 863.421875 144.617188 C 864.324219 145.523438 865.207031 146.449219 866.066406 147.398438 C 866.921875 148.34375 867.757812 149.3125 868.570312 150.300781 C 869.378906 151.289062 870.167969 152.300781 870.929688 153.328125 C 871.691406 154.355469 872.425781 155.398438 873.136719 156.460938 C 873.847656 157.527344 874.53125 158.605469 875.1875 159.703125 C 875.84375 160.800781 876.476562 161.914062 877.078125 163.042969 C 877.679688 164.167969 878.253906 165.3125 878.800781 166.46875 C 879.347656 167.625 879.867188 168.792969 880.355469 169.976562 C 880.84375 171.15625 881.304688 172.351562 881.734375 173.554688 C 882.167969 174.757812 882.566406 175.972656 882.9375 177.195312 C 883.308594 178.421875 883.652344 179.652344 883.960938 180.894531 C 884.273438 182.136719 884.550781 183.382812 884.800781 184.636719 C 885.050781 185.890625 885.269531 187.152344 885.457031 188.417969 C 885.644531 189.683594 885.800781 190.953125 885.925781 192.222656 C 886.050781 193.496094 886.144531 194.773438 886.207031 196.050781 C 886.269531 197.328125 886.300781 198.605469 886.300781 199.886719 Z M 886.300781 199.886719 " fill-opacity="1" fill-rule="nonzero"/><path stroke-linecap="round" transform="matrix(0.804653, 0, 0, 0.805014, 707.52485, -15.60875)" fill="none" stroke-linejoin="round" d="M 100.099662 184.371051 C 72.880038 208.70099 46.247818 284.049072 85.662145 342.481684 " stroke="#4c8687" stroke-width="9.18" stroke-opacity="1" stroke-miterlimit="4"/><path stroke-linecap="round" transform="matrix(0.804653, 0, 0, 0.805014, 707.52485, -15.60875)" fill="none" stroke-linejoin="round" d="M 73.54997 193.532384 C 48.781909 223.782252 24.771161 268.531094 60.219297 327.308227 " stroke="#4c8687" stroke-width="9.18" stroke-opacity="1" stroke-miterlimit="4"/><path stroke-linecap="round" transform="matrix(0.804653, 0, 0, 0.805014, 707.52485, -15.60875)" fill="none" stroke-linejoin="round" d="M 124.421103 182.997822 C 97.201479 207.308351 62.161128 286.999332 112.109891 351.317907 " stroke="#4c8687" stroke-width="9.18" stroke-opacity="1" stroke-miterlimit="4"/><path stroke-linecap="round" transform="matrix(0.804653, 0, 0, 0.805014, 707.52485, -15.60875)" fill="none" stroke-linejoin="round" d="M 208.997577 288.091122 C 188.419017 308.087866 146.509437 319.437632 111.43025 305.171573 " stroke="#4c8687" stroke-width="9.18" stroke-opacity="1" stroke-miterlimit="4"/><path stroke-linecap="round" transform="matrix(0.804653, 0, 0, 0.805014, 707.52485, -15.60875)" fill="none" stroke-linejoin="round" d="M 205.808119 243.919716 C 185.229559 263.921313 143.31027 275.280783 108.240791 261.009872 " stroke="#4c8687" stroke-width="9.18" stroke-opacity="1" stroke-miterlimit="4"/><path stroke-linecap="round" transform="matrix(0.804653, 0, 0, 0.805014, 707.52485, -15.60875)" fill="none" stroke-linejoin="round" d="M 194.55035 316.521339 C 168.379315 332.218856 134.809902 336.401626 113.4983 326.842396 " stroke="#4c8687" stroke-width="9.18" stroke-opacity="1" stroke-miterlimit="4"/><path stroke-linecap="round" transform="matrix(0.804653, 0, 0, 0.805014, 707.52485, -15.60875)" fill="none" stroke-linejoin="round" d="M 165.087911 343.19984 C 147.91241 351.76918 128.950425 347.82903 119.90149 344.849656 " stroke="#4c8687" stroke-width="9.18" stroke-opacity="1" stroke-miterlimit="4"/><path stroke-linecap="round" transform="matrix(0.804653, 0, 0, 0.805014, 707.52485, -15.60875)" fill="none" stroke-linejoin="round" d="M 211.240393 266.109745 C 190.098701 287.591325 140.111102 297.931791 107.779606 284.238316 " stroke="#4c8687" stroke-width="9.18" stroke-opacity="1" stroke-miterlimit="4"/><path stroke-linecap="round" transform="matrix(0.804653, 0, 0, 0.805014, 707.52485, -15.60875)" fill="none" stroke-linejoin="round" d="M 149.30082 251.329332 C 145.169573 240.731688 133.649658 231.798418 117.998495 232.332182 " stroke="#4c8687" stroke-width="9.18" stroke-opacity="1" stroke-miterlimit="4"/><path stroke-linecap="round" transform="matrix(0.804653, 0, 0, 0.805014, 707.52485, -15.60875)" fill="none" stroke-linejoin="round" d="M 171.340608 244.419513 C 165.621914 229.270317 148.252231 212.21898 125.018216 213.029331 " stroke="#4c8687" stroke-width="9.18" stroke-opacity="1" stroke-miterlimit="4"/><path stroke-linecap="round" transform="matrix(0.804653, 0, 0, 0.805014, 707.52485, -15.60875)" fill="none" stroke-linejoin="round" d="M 193.137668 232.749489 C 188.778256 215.251731 164.000485 193.881757 137.009026 192.261055 " stroke="#4c8687" stroke-width="9.18" stroke-opacity="1" stroke-miterlimit="4"/><g clip-path="url(#88d2f03b5a)"><path fill="#b33e2d" d="M 847.929688 274.621094 C 847.929688 275.773438 847.902344 276.921875 847.84375 278.070312 C 847.789062 279.21875 847.703125 280.363281 847.589844 281.507812 C 847.476562 282.652344 847.335938 283.789062 847.167969 284.925781 C 847 286.066406 846.804688 287.195312 846.578125 288.324219 C 846.355469 289.453125 846.105469 290.574219 845.824219 291.6875 C 845.546875 292.800781 845.238281 293.910156 844.90625 295.007812 C 844.574219 296.109375 844.210938 297.199219 843.824219 298.28125 C 843.4375 299.363281 843.023438 300.4375 842.585938 301.5 C 842.144531 302.558594 841.679688 303.609375 841.1875 304.648438 C 840.699219 305.6875 840.179688 306.714844 839.640625 307.730469 C 839.097656 308.742188 838.53125 309.742188 837.941406 310.726562 C 837.351562 311.714844 836.738281 312.683594 836.097656 313.640625 C 835.460938 314.597656 834.796875 315.535156 834.113281 316.457031 C 833.429688 317.382812 832.722656 318.289062 831.996094 319.175781 C 831.265625 320.0625 830.515625 320.933594 829.742188 321.785156 C 828.972656 322.636719 828.179688 323.46875 827.367188 324.28125 C 826.554688 325.09375 825.722656 325.886719 824.871094 326.660156 C 824.023438 327.429688 823.152344 328.183594 822.265625 328.910156 C 821.375 329.640625 820.46875 330.347656 819.546875 331.03125 C 818.625 331.714844 817.6875 332.378906 816.730469 333.015625 C 815.777344 333.65625 814.804688 334.269531 813.820312 334.859375 C 812.835938 335.453125 811.835938 336.019531 810.820312 336.558594 C 809.808594 337.101562 808.78125 337.617188 807.746094 338.109375 C 806.707031 338.601562 805.65625 339.066406 804.59375 339.507812 C 803.53125 339.945312 802.460938 340.359375 801.378906 340.746094 C 800.296875 341.132812 799.207031 341.496094 798.109375 341.828125 C 797.007812 342.160156 795.902344 342.46875 794.789062 342.746094 C 793.671875 343.027344 792.550781 343.277344 791.425781 343.503906 C 790.300781 343.726562 789.167969 343.921875 788.03125 344.09375 C 786.894531 344.261719 785.753906 344.402344 784.613281 344.515625 C 783.46875 344.625 782.324219 344.710938 781.175781 344.769531 C 780.027344 344.824219 778.878906 344.851562 777.730469 344.851562 C 776.582031 344.851562 775.433594 344.824219 774.285156 344.769531 C 773.140625 344.710938 771.992188 344.625 770.851562 344.515625 C 769.707031 344.402344 768.566406 344.261719 767.429688 344.09375 C 766.292969 343.921875 765.164062 343.726562 764.035156 343.503906 C 762.910156 343.277344 761.789062 343.027344 760.675781 342.746094 C 759.558594 342.46875 758.453125 342.160156 757.351562 341.828125 C 756.253906 341.496094 755.164062 341.132812 754.082031 340.746094 C 753 340.359375 751.929688 339.945312 750.867188 339.507812 C 749.804688 339.066406 748.757812 338.601562 747.71875 338.109375 C 746.679688 337.617188 745.652344 337.101562 744.640625 336.558594 C 743.625 336.019531 742.628906 335.453125 741.640625 334.859375 C 740.65625 334.269531 739.6875 333.65625 738.730469 333.015625 C 737.777344 332.378906 736.835938 331.714844 735.914062 331.03125 C 734.992188 330.347656 734.085938 329.640625 733.199219 328.910156 C 732.308594 328.183594 731.441406 327.429688 730.589844 326.660156 C 729.738281 325.886719 728.90625 325.09375 728.09375 324.28125 C 727.28125 323.46875 726.488281 322.636719 725.71875 321.785156 C 724.945312 320.933594 724.195312 320.0625 723.46875 319.175781 C 722.738281 318.289062 722.03125 317.382812 721.347656 316.457031 C 720.664062 315.535156 720 314.597656 719.363281 313.640625 C 718.726562 312.683594 718.109375 311.714844 717.519531 310.726562 C 716.929688 309.742188 716.363281 308.742188 715.820312 307.730469 C 715.28125 306.714844 714.765625 305.6875 714.273438 304.648438 C 713.78125 303.609375 713.316406 302.558594 712.875 301.5 C 712.4375 300.4375 712.023438 299.363281 711.636719 298.28125 C 711.25 297.199219 710.890625 296.109375 710.554688 295.007812 C 710.222656 293.910156 709.914062 292.800781 709.636719 291.6875 C 709.359375 290.574219 709.105469 289.453125 708.882812 288.324219 C 708.65625 287.195312 708.460938 286.066406 708.292969 284.925781 C 708.125 283.789062 707.984375 282.652344 707.871094 281.507812 C 707.757812 280.363281 707.671875 279.21875 707.617188 278.070312 C 707.5625 276.921875 707.53125 275.773438 707.53125 274.621094 C 707.53125 273.472656 707.5625 272.324219 707.617188 271.175781 C 707.671875 270.027344 707.757812 268.882812 707.871094 267.738281 C 707.984375 266.59375 708.125 265.453125 708.292969 264.316406 C 708.460938 263.179688 708.65625 262.050781 708.882812 260.921875 C 709.105469 259.792969 709.359375 258.671875 709.636719 257.558594 C 709.914062 256.445312 710.222656 255.335938 710.554688 254.238281 C 710.890625 253.136719 711.25 252.046875 711.636719 250.964844 C 712.023438 249.882812 712.4375 248.808594 712.875 247.746094 C 713.316406 246.683594 713.78125 245.636719 714.273438 244.597656 C 714.765625 243.558594 715.28125 242.53125 715.820312 241.515625 C 716.363281 240.503906 716.929688 239.503906 717.519531 238.519531 C 718.109375 237.53125 718.726562 236.5625 719.363281 235.605469 C 720 234.648438 720.664062 233.710938 721.347656 232.789062 C 722.03125 231.863281 722.738281 230.957031 723.46875 230.070312 C 724.195312 229.179688 724.945312 228.3125 725.71875 227.460938 C 726.488281 226.609375 727.28125 225.777344 728.09375 224.964844 C 728.90625 224.152344 729.738281 223.359375 730.589844 222.585938 C 731.441406 221.816406 732.308594 221.0625 733.199219 220.335938 C 734.085938 219.605469 734.992188 218.898438 735.914062 218.214844 C 736.835938 217.53125 737.777344 216.867188 738.730469 216.230469 C 739.6875 215.589844 740.65625 214.976562 741.640625 214.386719 C 742.628906 213.792969 743.625 213.226562 744.640625 212.6875 C 745.652344 212.144531 746.679688 211.628906 747.71875 211.136719 C 748.757812 210.644531 749.804688 210.179688 750.867188 209.738281 C 751.929688 209.300781 753 208.886719 754.082031 208.5 C 755.164062 208.113281 756.253906 207.75 757.351562 207.417969 C 758.453125 207.082031 759.558594 206.777344 760.675781 206.5 C 761.789062 206.21875 762.910156 205.96875 764.035156 205.742188 C 765.164062 205.519531 766.292969 205.320312 767.429688 205.152344 C 768.566406 204.984375 769.707031 204.84375 770.851562 204.730469 C 771.992188 204.617188 773.140625 204.535156 774.285156 204.476562 C 775.433594 204.421875 776.582031 204.394531 777.730469 204.394531 C 778.878906 204.394531 780.027344 204.421875 781.175781 204.476562 C 782.324219 204.535156 783.46875 204.617188 784.613281 204.730469 C 785.753906 204.84375 786.894531 204.984375 788.03125 205.152344 C 789.167969 205.324219 790.300781 205.519531 791.425781 205.742188 C 792.550781 205.96875 793.671875 206.21875 794.789062 206.5 C 795.902344 206.777344 797.007812 207.082031 798.109375 207.417969 C 799.207031 207.75 800.296875 208.113281 801.378906 208.5 C 802.460938 208.886719 803.53125 209.300781 804.59375 209.738281 C 805.65625 210.179688 806.707031 210.644531 807.746094 211.136719 C 808.78125 211.628906 809.808594 212.144531 810.820312 212.6875 C 811.835938 213.226562 812.835938 213.792969 813.820312 214.386719 C 814.804688 214.976562 815.777344 215.589844 816.730469 216.230469 C 817.6875 216.867188 818.625 217.53125 819.546875 218.214844 C 820.46875 218.898438 821.375 219.605469 822.265625 220.335938 C 823.152344 221.0625 824.023438 221.816406 824.871094 222.585938 C 825.722656 223.359375 826.554688 224.152344 827.367188 224.964844 C 828.179688 225.777344 828.972656 226.609375 829.742188 227.460938 C 830.515625 228.3125 831.265625 229.179688 831.996094 230.070312 C 832.722656 230.957031 833.429688 231.863281 834.113281 232.789062 C 834.796875 233.710938 835.460938 234.648438 836.097656 235.605469 C 836.738281 236.5625 837.351562 237.53125 837.941406 238.519531 C 838.53125 239.503906 839.097656 240.503906 839.640625 241.515625 C 840.179688 242.53125 840.699219 243.558594 841.1875 244.597656 C 841.679688 245.636719 842.144531 246.683594 842.585938 247.746094 C 843.023438 248.808594 843.4375 249.882812 843.824219 250.964844 C 844.210938 252.046875 844.574219 253.136719 844.90625 254.238281 C 845.238281 255.335938 845.546875 256.445312 845.824219 257.558594 C 846.105469 258.671875 846.355469 259.792969 846.578125 260.921875 C 846.804688 262.050781 847 263.179688 847.167969 264.316406 C 847.335938 265.453125 847.476562 266.59375 847.589844 267.738281 C 847.703125 268.882812 847.789062 270.027344 847.84375 271.175781 C 847.902344 272.324219 847.929688 273.472656 847.929688 274.621094 Z M 847.929688 274.621094 " fill-opacity="1" fill-rule="nonzero"/></g><path stroke-linecap="round" transform="matrix(0.804653, 0, 0, 0.805014, 707.52485, -15.60875)" fill="none" stroke-linejoin="round" d="M 9.212236 356.238241 C 21.470047 386.667648 77.001576 432.158907 138.441127 416.660338 " stroke="#e55039" stroke-width="9.18" stroke-opacity="1" stroke-miterlimit="4"/><path stroke-linecap="round" transform="matrix(0.804653, 0, 0, 0.805014, 707.52485, -15.60875)" fill="none" stroke-linejoin="round" d="M 8.848142 381.470726 C 26.848921 411.628398 57.321113 445.551533 117.848003 433.541841 " stroke="#e55039" stroke-width="9.18" stroke-opacity="1" stroke-miterlimit="4"/><path stroke-linecap="round" transform="matrix(0.804653, 0, 0, 0.805014, 707.52485, -15.60875)" fill="none" stroke-linejoin="round" d="M 15.460079 335.261312 C 27.717891 365.690718 84.390245 419.610598 154.000052 396.998409 " stroke="#e55039" stroke-width="9.18" stroke-opacity="1" stroke-miterlimit="4"/><path stroke-linecap="round" transform="matrix(0.804653, 0, 0, 0.805014, 707.52485, -15.60875)" fill="none" stroke-linejoin="round" d="M 130.10096 295.801587 C 140.717924 319.29206 137.538175 358.179201 114.779909 383.469915 " stroke="#e55039" stroke-width="9.18" stroke-opacity="1" stroke-miterlimit="4"/><path stroke-linecap="round" transform="matrix(0.804653, 0, 0, 0.805014, 707.52485, -15.60875)" fill="none" stroke-linejoin="round" d="M 91.788623 285.058371 C 102.410442 308.548844 99.230693 347.440838 76.472427 372.741257 " stroke="#e55039" stroke-width="9.18" stroke-opacity="1" stroke-miterlimit="4"/><path stroke-linecap="round" transform="matrix(0.804653, 0, 0, 0.805014, 707.52485, -15.60875)" fill="none" stroke-linejoin="round" d="M 149.708605 316.720288 C 155.000096 343.621999 148.291068 373.270169 133.707912 388.37084 " stroke="#e55039" stroke-width="9.18" stroke-opacity="1" stroke-miterlimit="4"/><path stroke-linecap="round" transform="matrix(0.804653, 0, 0, 0.805014, 707.52485, -15.60875)" fill="none" stroke-linejoin="round" d="M 112.192419 287.241952 C 123.901663 311.649529 117.401382 357.058297 95.958707 380.238216 " stroke="#e55039" stroke-width="9.18" stroke-opacity="1" stroke-miterlimit="4"/><path stroke-linecap="round" transform="matrix(0.804653, 0, 0, 0.805014, 707.52485, -15.60875)" fill="none" stroke-linejoin="round" d="M 80.81242 335.081773 C 70.588677 335.329245 59.529946 342.35067 55.238499 355.748149 " stroke="#e55039" stroke-width="9.18" stroke-opacity="1" stroke-miterlimit="4"/><path stroke-linecap="round" transform="matrix(0.804653, 0, 0, 0.805014, 707.52485, -15.60875)" fill="none" stroke-linejoin="round" d="M 81.691099 314.337759 C 67.141926 314.560969 47.442045 323.998889 41.000018 343.917995 " stroke="#e55039" stroke-width="9.18" stroke-opacity="1" stroke-miterlimit="4"/><path stroke-linecap="round" transform="matrix(0.804653, 0, 0, 0.805014, 707.52485, -15.60875)" fill="none" stroke-linejoin="round" d="M 78.482222 292.361235 C 62.360166 290.701714 36.737698 305.127902 27.140196 327.448946 " stroke="#e55039" stroke-width="9.18" stroke-opacity="1" stroke-miterlimit="4"/><path stroke-linecap="round" transform="matrix(0.804653, 0, 0, 0.805014, 707.52485, -15.60875)" fill="none" stroke-linejoin="round" d="M 243.431106 443.571754 C 301.49187 451.568511 311.681631 429.752116 370.528837 413.947846 C 429.380897 398.148428 494.310891 432.338446 500.000457 435.880698 " stroke="#f8c291" stroke-width="9.18" stroke-opacity="1" stroke-miterlimit="4"/><path fill="#e58e26" d="M 993.738281 249.296875 C 993.738281 250.855469 993.703125 252.417969 993.625 253.976562 C 993.546875 255.53125 993.433594 257.089844 993.28125 258.640625 C 993.128906 260.195312 992.9375 261.742188 992.707031 263.285156 C 992.480469 264.828125 992.214844 266.363281 991.910156 267.894531 C 991.605469 269.425781 991.261719 270.945312 990.882812 272.460938 C 990.503906 273.972656 990.089844 275.476562 989.636719 276.96875 C 989.183594 278.460938 988.695312 279.945312 988.167969 281.414062 C 987.644531 282.882812 987.082031 284.335938 986.488281 285.777344 C 985.890625 287.21875 985.257812 288.644531 984.589844 290.054688 C 983.925781 291.464844 983.222656 292.859375 982.488281 294.234375 C 981.753906 295.609375 980.984375 296.96875 980.183594 298.304688 C 979.382812 299.644531 978.546875 300.960938 977.679688 302.257812 C 976.816406 303.558594 975.917969 304.832031 974.988281 306.085938 C 974.058594 307.339844 973.101562 308.566406 972.109375 309.773438 C 971.121094 310.980469 970.101562 312.160156 969.054688 313.316406 C 968.007812 314.472656 966.933594 315.601562 965.832031 316.707031 C 964.726562 317.808594 963.597656 318.882812 962.445312 319.933594 C 961.289062 320.980469 960.109375 322 958.902344 322.988281 C 957.695312 323.976562 956.46875 324.9375 955.214844 325.867188 C 953.960938 326.796875 952.6875 327.695312 951.390625 328.5625 C 950.09375 329.425781 948.777344 330.261719 947.441406 331.0625 C 946.101562 331.867188 944.746094 332.636719 943.371094 333.371094 C 941.996094 334.105469 940.601562 334.808594 939.191406 335.472656 C 937.785156 336.140625 936.359375 336.773438 934.917969 337.371094 C 933.476562 337.96875 932.023438 338.527344 930.554688 339.054688 C 929.085938 339.578125 927.605469 340.070312 926.113281 340.523438 C 924.621094 340.976562 923.117188 341.390625 921.605469 341.769531 C 920.09375 342.148438 918.570312 342.492188 917.042969 342.796875 C 915.511719 343.097656 913.976562 343.367188 912.433594 343.59375 C 910.890625 343.824219 909.34375 344.015625 907.792969 344.167969 C 906.242188 344.320312 904.6875 344.433594 903.128906 344.511719 C 901.570312 344.589844 900.011719 344.625 898.453125 344.625 C 896.894531 344.625 895.335938 344.589844 893.777344 344.511719 C 892.21875 344.433594 890.664062 344.320312 889.113281 344.167969 C 887.5625 344.015625 886.015625 343.824219 884.472656 343.59375 C 882.929688 343.367188 881.394531 343.097656 879.863281 342.796875 C 878.332031 342.492188 876.8125 342.148438 875.300781 341.769531 C 873.789062 341.390625 872.285156 340.976562 870.792969 340.523438 C 869.300781 340.070312 867.820312 339.578125 866.351562 339.054688 C 864.882812 338.527344 863.429688 337.96875 861.988281 337.371094 C 860.546875 336.773438 859.121094 336.140625 857.710938 335.472656 C 856.300781 334.808594 854.910156 334.105469 853.535156 333.371094 C 852.160156 332.636719 850.804688 331.867188 849.464844 331.0625 C 848.128906 330.261719 846.8125 329.425781 845.515625 328.5625 C 844.21875 327.695312 842.941406 326.796875 841.691406 325.867188 C 840.4375 324.9375 839.207031 323.976562 838.003906 322.988281 C 836.796875 322 835.617188 320.980469 834.460938 319.933594 C 833.304688 318.882812 832.175781 317.808594 831.074219 316.707031 C 829.972656 315.601562 828.898438 314.472656 827.851562 313.316406 C 826.800781 312.160156 825.785156 310.980469 824.796875 309.773438 C 823.804688 308.566406 822.847656 307.339844 821.917969 306.085938 C 820.988281 304.832031 820.089844 303.558594 819.222656 302.257812 C 818.359375 300.960938 817.523438 299.644531 816.722656 298.304688 C 815.921875 296.96875 815.152344 295.609375 814.417969 294.234375 C 813.683594 292.859375 812.980469 291.464844 812.3125 290.054688 C 811.648438 288.644531 811.015625 287.21875 810.417969 285.777344 C 809.824219 284.335938 809.261719 282.882812 808.734375 281.414062 C 808.210938 279.945312 807.722656 278.460938 807.269531 276.96875 C 806.816406 275.476562 806.402344 273.972656 806.023438 272.460938 C 805.640625 270.945312 805.300781 269.425781 804.996094 267.894531 C 804.691406 266.363281 804.425781 264.828125 804.195312 263.285156 C 803.96875 261.742188 803.777344 260.195312 803.625 258.640625 C 803.472656 257.089844 803.355469 255.53125 803.28125 253.976562 C 803.203125 252.417969 803.164062 250.855469 803.164062 249.296875 C 803.164062 247.738281 803.203125 246.179688 803.28125 244.621094 C 803.355469 243.0625 803.472656 241.503906 803.625 239.953125 C 803.777344 238.402344 803.96875 236.851562 804.195312 235.308594 C 804.425781 233.765625 804.691406 232.230469 804.996094 230.699219 C 805.300781 229.167969 805.644531 227.648438 806.023438 226.132812 C 806.402344 224.621094 806.816406 223.117188 807.269531 221.625 C 807.722656 220.132812 808.210938 218.652344 808.734375 217.179688 C 809.261719 215.710938 809.824219 214.257812 810.417969 212.816406 C 811.015625 211.375 811.648438 209.949219 812.3125 208.539062 C 812.980469 207.128906 813.683594 205.734375 814.417969 204.359375 C 815.152344 202.984375 815.921875 201.625 816.722656 200.289062 C 817.523438 198.949219 818.359375 197.632812 819.222656 196.335938 C 820.089844 195.039062 820.988281 193.761719 821.917969 192.507812 C 822.847656 191.257812 823.804688 190.027344 824.796875 188.820312 C 825.785156 187.613281 826.800781 186.433594 827.851562 185.277344 C 828.898438 184.121094 829.972656 182.992188 831.074219 181.890625 C 832.175781 180.785156 833.304688 179.710938 834.460938 178.664062 C 835.617188 177.613281 836.796875 176.597656 838.003906 175.605469 C 839.207031 174.617188 840.4375 173.65625 841.691406 172.726562 C 842.941406 171.796875 844.21875 170.898438 845.515625 170.035156 C 846.8125 169.167969 848.128906 168.332031 849.464844 167.53125 C 850.804688 166.726562 852.160156 165.960938 853.535156 165.222656 C 854.910156 164.488281 856.300781 163.789062 857.710938 163.121094 C 859.121094 162.453125 860.546875 161.820312 861.988281 161.222656 C 863.429688 160.625 864.882812 160.066406 866.351562 159.539062 C 867.820312 159.015625 869.300781 158.523438 870.792969 158.074219 C 872.285156 157.621094 873.789062 157.203125 875.300781 156.824219 C 876.8125 156.445312 878.332031 156.105469 879.863281 155.800781 C 881.394531 155.496094 882.929688 155.226562 884.472656 155 C 886.015625 154.769531 887.5625 154.578125 889.113281 154.425781 C 890.664062 154.273438 892.21875 154.160156 893.777344 154.082031 C 895.335938 154.003906 896.894531 153.96875 898.453125 153.96875 C 900.011719 153.96875 901.570312 154.003906 903.128906 154.082031 C 904.6875 154.160156 906.242188 154.273438 907.792969 154.425781 C 909.34375 154.578125 910.890625 154.769531 912.433594 155 C 913.976562 155.226562 915.511719 155.496094 917.042969 155.800781 C 918.570312 156.105469 920.09375 156.445312 921.605469 156.824219 C 923.117188 157.203125 924.621094 157.621094 926.113281 158.074219 C 927.605469 158.523438 929.085938 159.015625 930.554688 159.539062 C 932.023438 160.066406 933.476562 160.625 934.917969 161.222656 C 936.359375 161.820312 937.785156 162.453125 939.191406 163.121094 C 940.601562 163.789062 941.996094 164.488281 943.371094 165.222656 C 944.746094 165.960938 946.101562 166.726562 947.441406 167.53125 C 948.777344 168.332031 950.09375 169.167969 951.390625 170.035156 C 952.6875 170.898438 953.960938 171.796875 955.214844 172.726562 C 956.46875 173.65625 957.695312 174.617188 958.902344 175.605469 C 960.109375 176.597656 961.289062 177.613281 962.445312 178.664062 C 963.597656 179.710938 964.726562 180.785156 965.832031 181.890625 C 966.933594 182.992188 968.007812 184.121094 969.054688 185.277344 C 970.101562 186.433594 971.121094 187.613281 972.109375 188.820312 C 973.101562 190.027344 974.058594 191.257812 974.988281 192.507812 C 975.917969 193.761719 976.816406 195.039062 977.679688 196.335938 C 978.546875 197.632812 979.382812 198.949219 980.183594 200.289062 C 980.984375 201.625 981.753906 202.984375 982.488281 204.359375 C 983.222656 205.734375 983.925781 207.128906 984.589844 208.539062 C 985.257812 209.949219 985.890625 211.375 986.488281 212.816406 C 987.082031 214.257812 987.644531 215.710938 988.167969 217.179688 C 988.695312 218.652344 989.183594 220.132812 989.636719 221.625 C 990.089844 223.117188 990.503906 224.621094 990.882812 226.132812 C 991.261719 227.648438 991.605469 229.167969 991.910156 230.699219 C 992.214844 232.230469 992.480469 233.765625 992.707031 235.308594 C 992.9375 236.851562 993.128906 238.402344 993.28125 239.953125 C 993.433594 241.503906 993.546875 243.0625 993.625 244.621094 C 993.703125 246.179688 993.738281 247.738281 993.738281 249.296875 Z M 993.738281 249.296875 " fill-opacity="1" fill-rule="nonzero"/><path stroke-linecap="round" transform="matrix(0.804653, 0, 0, 0.805014, 707.52485, -15.60875)" fill="none" stroke-linejoin="round" d="M 187.098572 422.541448 C 231.56166 424.982206 319.458666 382.839103 335.750633 298.431588 " stroke="#f8c291" stroke-width="9.18" stroke-opacity="1" stroke-miterlimit="4"/><path stroke-linecap="round" transform="matrix(0.804653, 0, 0, 0.805014, 707.52485, -15.60875)" fill="none" stroke-linejoin="round" d="M 217.910584 437.5014 C 265.368948 432.702376 324.589956 414.777606 344.658786 333.49989 " stroke="#f8c291" stroke-width="9.18" stroke-opacity="1" stroke-miterlimit="4"/><path stroke-linecap="round" transform="matrix(0.804653, 0, 0, 0.805014, 707.52485, -15.60875)" fill="none" stroke-linejoin="round" d="M 164.898582 402.792176 C 209.361671 405.228081 308.268862 366.578708 320.521819 268.011887 " stroke="#f8c291" stroke-width="9.18" stroke-opacity="1" stroke-miterlimit="4"/><path stroke-linecap="round" transform="matrix(0.804653, 0, 0, 0.805014, 707.52485, -15.60875)" fill="none" stroke-linejoin="round" d="M 182.350793 239.140101 C 217.352308 239.591374 263.349443 265.891387 281.350222 308.41783 " stroke="#f8c291" stroke-width="9.18" stroke-opacity="1" stroke-miterlimit="4"/><path stroke-linecap="round" transform="matrix(0.804653, 0, 0, 0.805014, 707.52485, -15.60875)" fill="none" stroke-linejoin="round" d="M 147.101696 280.070103 C 182.098355 280.521376 228.100345 306.811685 246.101124 349.347832 " stroke="#f8c291" stroke-width="9.18" stroke-opacity="1" stroke-miterlimit="4"/><path stroke-linecap="round" transform="matrix(0.804653, 0, 0, 0.805014, 707.52485, -15.60875)" fill="none" stroke-linejoin="round" d="M 219.352394 227.057622 C 255.470461 236.058826 288.05925 261.339835 298.239302 287.960107 " stroke="#f8c291" stroke-width="9.18" stroke-opacity="1" stroke-miterlimit="4"/><path stroke-linecap="round" transform="matrix(0.804653, 0, 0, 0.805014, 707.52485, -15.60875)" fill="none" stroke-linejoin="round" d="M 267.762255 229.401332 C 289.991372 236.791539 302.967662 256.531106 308.220316 266.890982 " stroke="#f8c291" stroke-width="9.18" stroke-opacity="1" stroke-miterlimit="4"/><path stroke-linecap="round" transform="matrix(0.804653, 0, 0, 0.805014, 707.52485, -15.60875)" fill="none" stroke-linejoin="round" d="M 161.510086 256.230257 C 198.268958 255.880884 250.348881 290.00782 266.509774 329.681051 " stroke="#f8c291" stroke-width="9.18" stroke-opacity="1" stroke-miterlimit="4"/><path stroke-linecap="round" transform="matrix(0.804653, 0, 0, 0.805014, 707.52485, -15.60875)" fill="none" stroke-linejoin="round" d="M 202.27884 322.339368 C 196.710638 335.047806 198.968017 352.691136 212.978332 365.671309 " stroke="#f8c291" stroke-width="9.18" stroke-opacity="1" stroke-miterlimit="4"/><path stroke-linecap="round" transform="matrix(0.804653, 0, 0, 0.805014, 707.52485, -15.60875)" fill="none" stroke-linejoin="round" d="M 177.292322 309.320376 C 169.180321 327.317931 169.500723 357.019478 190.28803 376.322329 " stroke="#f8c291" stroke-width="9.18" stroke-opacity="1" stroke-miterlimit="4"/><path stroke-linecap="round" transform="matrix(0.804653, 0, 0, 0.805014, 707.52485, -15.60875)" fill="none" stroke-linejoin="round" d="M 148.422141 300.620021 C 137.101263 319.491009 140.101393 359.300106 162.019817 383.940598 " stroke="#f8c291" stroke-width="9.18" stroke-opacity="1" stroke-miterlimit="4"/><path stroke-linecap="round" transform="matrix(0.804653, 0, 0, 0.805014, 707.52485, -15.60875)" fill="none" stroke-linejoin="round" d="M 218.808681 261.301016 C 200.128262 202.727684 174.481521 123.730596 174.481521 123.730596 " stroke="#663e38" stroke-width="7.74" stroke-opacity="1" stroke-miterlimit="4"/><path fill="#e58e26" d="M 841.097656 65.699219 C 832.011719 55.046875 819.847656 50.652344 816.78125 60.167969 C 812.113281 74.65625 840.527344 86.660156 848.097656 83.914062 C 855.902344 80.96875 868.59375 52.914062 855.402344 45.273438 C 846.730469 40.285156 840.292969 52.816406 841.097656 65.699219 Z M 841.097656 65.699219 " fill-opacity="1" fill-rule="nonzero"/><path stroke-linecap="round" transform="matrix(0.804653, 0, 0, 0.805014, 707.52485, -15.60875)" fill="none" stroke-linejoin="round" d="M 247.450697 242.167999 C 249.620694 180.73175 252.130511 97.712022 252.130511 97.712022 " stroke="#663e38" stroke-width="7.74" stroke-opacity="1" stroke-miterlimit="4"/><path fill="#e58e26" d="M 910.152344 43.519531 C 905.195312 30.429688 895.226562 22.179688 889.125 30.109375 C 879.839844 42.183594 902.539062 63.058594 910.59375 63.03125 C 918.9375 62.886719 940.367188 40.765625 930.503906 29.140625 C 924.050781 21.511719 913.71875 31.128906 910.152344 43.519531 Z M 910.152344 43.519531 " fill-opacity="1" fill-rule="nonzero"/><g fill="#cd924c" fill-opacity="1"><g transform="translate(263.067826, 245.307202)"><g><path d="M 0 -113.824219 C 3.253906 -113.824219 6.882812 -114.964844 10.894531 -117.238281 C 14.90625 -119.515625 18.972656 -122.363281 23.089844 -125.777344 C 27.210938 -129.191406 31.113281 -132.578125 34.796875 -135.941406 C 38.484375 -139.300781 41.734375 -142.117188 44.554688 -144.394531 C 47.371094 -146.671875 49.433594 -147.808594 50.734375 -147.808594 C 52.792969 -147.808594 53.824219 -146.507812 53.824219 -143.90625 L 53.824219 -113.824219 L 67.808594 -113.824219 L 67.808594 -105.695312 L 53.824219 -105.695312 L 53.824219 -40 C 53.824219 -35.773438 53.878906 -31.546875 53.984375 -27.316406 C 54.09375 -23.089844 54.691406 -19.296875 55.773438 -15.933594 C 56.859375 -12.574219 58.808594 -9.972656 61.628906 -8.128906 C 62.277344 -7.695312 62.957031 -7.480469 63.660156 -7.480469 C 64.367188 -7.480469 65.097656 -7.371094 65.855469 -7.15625 C 65.640625 -5.203125 64.582031 -3.496094 62.683594 -2.03125 C 60.789062 -0.570312 58.539062 0.542969 55.9375 1.300781 C 53.335938 2.058594 50.734375 2.4375 48.132812 2.4375 C 40.328125 2.4375 34.066406 1.136719 29.351562 -1.464844 C 24.636719 -4.066406 21.058594 -7.5625 18.617188 -11.953125 C 16.179688 -16.34375 14.554688 -21.246094 13.742188 -26.667969 C 12.925781 -32.089844 12.519531 -37.5625 12.519531 -43.089844 L 12.519531 -95.289062 C 12.519531 -96.914062 12.441406 -98.539062 12.277344 -100.167969 C 12.113281 -101.792969 11.519531 -103.121094 10.488281 -104.148438 C 9.457031 -105.179688 7.640625 -105.695312 5.039062 -105.695312 L 0 -105.695312 Z M 0 -113.824219 "/></g></g></g><g fill="#cd924c" fill-opacity="1"><g transform="translate(332.497467, 245.307202)"><g><path d="M 20.652344 -14.308594 C 15.015625 -20.054688 10.8125 -26.53125 8.050781 -33.742188 C 5.285156 -40.949219 3.957031 -48.375 4.066406 -56.019531 C 4.171875 -63.660156 5.71875 -71.140625 8.699219 -78.457031 C 11.679688 -85.777344 16.097656 -92.359375 21.953125 -98.214844 C 27.914062 -104.175781 34.582031 -108.648438 41.953125 -111.628906 C 49.324219 -114.609375 56.804688 -116.101562 64.394531 -116.101562 C 71.765625 -116.101562 78.945312 -114.71875 85.9375 -111.957031 C 92.929688 -109.191406 99.191406 -104.992188 104.71875 -99.351562 C 110.355469 -93.714844 114.558594 -87.292969 117.320312 -80.085938 C 120.085938 -72.875 121.414062 -65.449219 121.304688 -57.808594 C 121.195312 -50.164062 119.652344 -42.683594 116.671875 -35.367188 C 113.691406 -28.050781 109.273438 -21.464844 103.417969 -15.609375 C 97.457031 -9.648438 90.789062 -5.148438 83.417969 -2.113281 C 76.046875 0.921875 68.566406 2.4375 60.976562 2.4375 C 53.605469 2.4375 46.425781 1.058594 39.433594 -1.707031 C 32.441406 -4.472656 26.179688 -8.671875 20.652344 -14.308594 Z M 54.796875 -107.484375 C 51.222656 -106.941406 48.320312 -104.148438 46.097656 -99.109375 C 43.875 -94.070312 42.523438 -87.5625 42.035156 -79.597656 C 41.546875 -71.628906 42.007812 -62.875 43.417969 -53.335938 C 44.933594 -43.902344 47.128906 -35.476562 50 -28.050781 C 52.875 -20.625 56.125 -14.851562 59.757812 -10.730469 C 63.390625 -6.613281 66.941406 -4.824219 70.410156 -5.367188 C 73.878906 -5.90625 76.695312 -8.671875 78.863281 -13.660156 C 81.03125 -18.644531 82.386719 -25.148438 82.929688 -33.171875 C 83.472656 -41.195312 83.039062 -49.976562 81.628906 -59.515625 C 80.21875 -68.945312 78.078125 -77.375 75.207031 -84.800781 C 72.332031 -92.226562 69.109375 -98 65.53125 -102.117188 C 61.953125 -106.238281 58.375 -108.027344 54.796875 -107.484375 Z M 54.796875 -107.484375 "/></g></g></g><g fill="#cd924c" fill-opacity="1"><g transform="translate(457.861037, 245.307202)"><g><path d="M 50.082031 2.4375 C 40.328125 2.4375 32.035156 -0.136719 25.203125 -5.285156 C 18.375 -10.433594 13.144531 -17.316406 9.511719 -25.9375 C 5.882812 -34.554688 4.066406 -44.121094 4.066406 -54.636719 C 4.066406 -62.007812 4.960938 -69.324219 6.75 -76.589844 C 8.535156 -83.851562 11.300781 -90.464844 15.042969 -96.425781 C 18.78125 -102.386719 23.550781 -107.183594 29.351562 -110.816406 C 35.148438 -114.449219 42.0625 -116.265625 50.082031 -116.265625 C 54.636719 -116.265625 58.457031 -115.613281 61.546875 -114.3125 C 64.636719 -113.011719 67.210938 -111.523438 69.269531 -109.839844 C 71.332031 -108.160156 73.011719 -106.671875 74.3125 -105.371094 C 75.613281 -104.070312 76.640625 -103.417969 77.402344 -103.417969 C 77.726562 -103.417969 78.242188 -103.609375 78.945312 -103.988281 C 79.652344 -104.367188 80.003906 -105.585938 80.003906 -107.644531 L 80.003906 -130.410156 C 80.003906 -131.0625 79.949219 -132.226562 79.839844 -133.90625 C 79.730469 -135.585938 79.21875 -137.296875 78.296875 -139.03125 C 77.375 -140.765625 75.613281 -142.066406 73.011719 -142.933594 C 72.792969 -143.039062 72.332031 -143.203125 71.628906 -143.417969 C 70.925781 -143.636719 70.570312 -144.234375 70.570312 -145.207031 C 70.570312 -146.074219 70.84375 -146.617188 71.382812 -146.835938 C 71.925781 -147.050781 72.253906 -147.214844 72.359375 -147.324219 C 73.660156 -147.863281 75.746094 -148.8125 78.621094 -150.167969 C 81.492188 -151.523438 84.800781 -153.039062 88.539062 -154.722656 C 92.28125 -156.402344 96.046875 -158.027344 99.839844 -159.597656 C 103.636719 -161.171875 107.160156 -162.472656 110.410156 -163.5 C 113.664062 -164.53125 116.265625 -165.046875 118.214844 -165.046875 C 120.601562 -165.046875 122.011719 -164.394531 122.445312 -163.09375 C 122.878906 -161.792969 123.09375 -160.332031 123.09375 -158.703125 L 123.09375 -19.1875 C 123.09375 -14.527344 123.5 -10.703125 124.3125 -7.722656 C 125.125 -4.742188 126.617188 -2.167969 128.785156 0 L 88.945312 0 C 85.476562 0 83.121094 -1.191406 81.871094 -3.578125 C 80.625 -5.960938 80.003906 -9.214844 80.003906 -13.332031 L 80.003906 -14.960938 C 80.003906 -16.152344 79.652344 -16.558594 78.945312 -16.179688 C 78.242188 -15.800781 77.617188 -15.175781 77.074219 -14.308594 C 74.257812 -9.648438 71.304688 -6.125 68.214844 -3.738281 C 65.125 -1.355469 62.035156 0.269531 58.945312 1.136719 C 55.855469 2.003906 52.902344 2.4375 50.082031 2.4375 Z M 68.296875 -99.191406 C 63.742188 -99.191406 60.082031 -97.972656 57.320312 -95.53125 C 54.554688 -93.09375 52.414062 -89.867188 50.894531 -85.855469 C 49.378906 -81.847656 48.347656 -77.507812 47.804688 -72.847656 C 47.265625 -68.1875 46.992188 -63.632812 46.992188 -59.1875 C 46.992188 -54.527344 47.128906 -49.757812 47.398438 -44.878906 C 47.671875 -40 48.375 -35.53125 49.515625 -31.464844 C 50.652344 -27.398438 52.496094 -24.121094 55.042969 -21.625 C 57.589844 -19.132812 61.140625 -17.886719 65.695312 -17.886719 C 68.945312 -17.886719 71.519531 -18.78125 73.417969 -20.570312 C 75.3125 -22.359375 76.75 -24.636719 77.726562 -27.398438 C 78.703125 -30.164062 79.324219 -32.980469 79.597656 -35.855469 C 79.867188 -38.726562 80.003906 -41.300781 80.003906 -43.578125 L 80.003906 -75.289062 C 80.003906 -77.347656 79.867188 -79.730469 79.597656 -82.441406 C 79.324219 -85.152344 78.785156 -87.78125 77.96875 -90.328125 C 77.15625 -92.875 75.964844 -94.988281 74.394531 -96.671875 C 72.820312 -98.351562 70.789062 -99.191406 68.296875 -99.191406 Z M 68.296875 -99.191406 "/></g></g></g><g fill="#cd924c" fill-opacity="1"><g transform="translate(587.452168, 245.307202)"><g><path d="M 20.652344 -14.308594 C 15.015625 -20.054688 10.8125 -26.53125 8.050781 -33.742188 C 5.285156 -40.949219 3.957031 -48.375 4.066406 -56.019531 C 4.171875 -63.660156 5.71875 -71.140625 8.699219 -78.457031 C 11.679688 -85.777344 16.097656 -92.359375 21.953125 -98.214844 C 27.914062 -104.175781 34.582031 -108.648438 41.953125 -111.628906 C 49.324219 -114.609375 56.804688 -116.101562 64.394531 -116.101562 C 71.765625 -116.101562 78.945312 -114.71875 85.9375 -111.957031 C 92.929688 -109.191406 99.191406 -104.992188 104.71875 -99.351562 C 110.355469 -93.714844 114.558594 -87.292969 117.320312 -80.085938 C 120.085938 -72.875 121.414062 -65.449219 121.304688 -57.808594 C 121.195312 -50.164062 119.652344 -42.683594 116.671875 -35.367188 C 113.691406 -28.050781 109.273438 -21.464844 103.417969 -15.609375 C 97.457031 -9.648438 90.789062 -5.148438 83.417969 -2.113281 C 76.046875 0.921875 68.566406 2.4375 60.976562 2.4375 C 53.605469 2.4375 46.425781 1.058594 39.433594 -1.707031 C 32.441406 -4.472656 26.179688 -8.671875 20.652344 -14.308594 Z M 54.796875 -107.484375 C 51.222656 -106.941406 48.320312 -104.148438 46.097656 -99.109375 C 43.875 -94.070312 42.523438 -87.5625 42.035156 -79.597656 C 41.546875 -71.628906 42.007812 -62.875 43.417969 -53.335938 C 44.933594 -43.902344 47.128906 -35.476562 50 -28.050781 C 52.875 -20.625 56.125 -14.851562 59.757812 -10.730469 C 63.390625 -6.613281 66.941406 -4.824219 70.410156 -5.367188 C 73.878906 -5.90625 76.695312 -8.671875 78.863281 -13.660156 C 81.03125 -18.644531 82.386719 -25.148438 82.929688 -33.171875 C 83.472656 -41.195312 83.039062 -49.976562 81.628906 -59.515625 C 80.21875 -68.945312 78.078125 -77.375 75.207031 -84.800781 C 72.332031 -92.226562 69.109375 -98 65.53125 -102.117188 C 61.953125 -106.238281 58.375 -108.027344 54.796875 -107.484375 Z M 54.796875 -107.484375 "/></g></g></g><g fill="#cd924c" fill-opacity="1"><g transform="translate(230.384485, 317.361667)"><g><path d="M 27.964844 0.976562 C 24.324219 0.976562 20.90625 0.28125 17.722656 -1.105469 C 14.535156 -2.492188 11.738281 -4.574219 9.332031 -7.347656 C 6.925781 -10.125 5.039062 -13.613281 3.675781 -17.820312 C 2.308594 -22.023438 1.625 -26.921875 1.625 -32.515625 C 1.625 -35.726562 1.929688 -38.933594 2.535156 -42.140625 C 3.144531 -45.351562 4.074219 -48.382812 5.332031 -51.246094 C 6.589844 -54.109375 8.152344 -56.644531 10.015625 -58.855469 C 11.878906 -61.066406 14.078125 -62.8125 16.617188 -64.089844 C 19.152344 -65.371094 22.023438 -66.007812 25.234375 -66.007812 C 26.921875 -66.007812 28.539062 -65.792969 30.078125 -65.359375 C 31.617188 -64.925781 33.199219 -64.492188 34.824219 -64.058594 C 36.449219 -63.625 38.238281 -63.40625 40.191406 -63.40625 C 41.707031 -63.40625 42.910156 -63.625 43.800781 -64.058594 C 44.6875 -64.492188 45.449219 -64.925781 46.074219 -65.359375 C 46.703125 -65.792969 47.34375 -66.007812 47.996094 -66.007812 C 48.863281 -66.007812 49.359375 -65.519531 49.492188 -64.546875 C 49.621094 -63.570312 49.523438 -62.355469 49.199219 -60.902344 C 48.871094 -59.453125 48.40625 -58.007812 47.800781 -56.578125 C 47.496094 -55.886719 47.105469 -55.105469 46.628906 -54.238281 C 46.152344 -53.371094 45.589844 -52.503906 44.9375 -51.636719 C 44.246094 -50.726562 43.398438 -49.761719 42.402344 -48.742188 C 41.40625 -47.722656 40.441406 -46.652344 39.507812 -45.523438 C 38.574219 -44.394531 37.796875 -43.246094 37.167969 -42.078125 C 36.539062 -40.90625 36.222656 -39.734375 36.222656 -38.566406 C 36.222656 -37.480469 36.570312 -36.539062 37.265625 -35.734375 C 37.957031 -34.933594 38.867188 -34.53125 39.996094 -34.53125 C 40.6875 -34.53125 41.101562 -34.640625 41.230469 -34.859375 C 41.359375 -35.074219 41.601562 -35.183594 41.945312 -35.183594 C 42.464844 -35.183594 42.835938 -34.75 43.050781 -33.882812 C 43.269531 -33.015625 43.378906 -32.257812 43.378906 -31.605469 C 43.378906 -30.003906 42.898438 -28.484375 41.945312 -27.054688 C 40.992188 -25.625 39.722656 -24.464844 38.140625 -23.574219 C 36.558594 -22.6875 34.859375 -22.242188 33.035156 -22.242188 C 31.300781 -22.242188 29.699219 -22.664062 28.222656 -23.507812 C 26.75 -24.355469 25.570312 -25.480469 24.679688 -26.890625 C 23.792969 -28.300781 23.347656 -29.871094 23.347656 -31.605469 C 23.347656 -33.558594 23.800781 -35.246094 24.710938 -36.679688 C 25.625 -38.109375 26.738281 -39.34375 28.0625 -40.386719 C 29.382812 -41.425781 30.71875 -42.316406 32.0625 -43.050781 C 33.40625 -43.789062 34.53125 -44.449219 35.441406 -45.035156 C 36.355469 -45.621094 36.808594 -46.171875 36.808594 -46.695312 C 36.808594 -47.519531 36.203125 -48.039062 34.988281 -48.253906 C 32.777344 -48.601562 30.804688 -49.1875 29.070312 -50.011719 C 27.335938 -50.835938 25.710938 -51.691406 24.191406 -52.578125 C 22.675781 -53.46875 21.136719 -54.226562 19.574219 -54.855469 C 18.015625 -55.484375 16.300781 -55.796875 14.4375 -55.796875 C 13.351562 -55.796875 12.464844 -55.507812 11.769531 -54.921875 C 11.078125 -54.335938 10.535156 -53.609375 10.144531 -52.742188 C 9.753906 -51.875 9.484375 -51.007812 9.332031 -50.140625 C 9.179688 -49.273438 9.105469 -48.535156 9.105469 -47.929688 C 9.105469 -45.242188 9.441406 -42.371094 10.113281 -39.3125 C 10.785156 -36.257812 11.769531 -33.253906 13.070312 -30.304688 C 14.371094 -27.355469 15.988281 -24.667969 17.917969 -22.242188 C 19.847656 -19.8125 22.078125 -17.875 24.613281 -16.421875 C 27.152344 -14.96875 29.980469 -14.242188 33.101562 -14.242188 C 35.398438 -14.242188 37.285156 -14.566406 38.761719 -15.21875 C 40.234375 -15.867188 41.4375 -16.671875 42.371094 -17.625 C 43.300781 -18.578125 44.058594 -19.53125 44.644531 -20.484375 C 45.230469 -21.4375 45.773438 -22.242188 46.269531 -22.890625 C 46.769531 -23.542969 47.34375 -23.867188 47.996094 -23.867188 C 48.382812 -23.867188 48.753906 -23.660156 49.101562 -23.25 C 49.445312 -22.835938 49.621094 -21.871094 49.621094 -20.355469 C 49.621094 -18.273438 49.144531 -16 48.191406 -13.527344 C 47.234375 -11.054688 45.835938 -8.726562 43.996094 -6.535156 C 42.152344 -4.347656 39.886719 -2.546875 37.199219 -1.136719 C 34.511719 0.269531 31.433594 0.976562 27.964844 0.976562 Z M 27.964844 0.976562 "/></g></g></g><g fill="#cd924c" fill-opacity="1"><g transform="translate(281.298183, 317.361667)"><g><path d="M 0.324219 -57.164062 C 0.238281 -57.207031 0.0546875 -57.273438 -0.226562 -57.359375 C -0.507812 -57.445312 -0.648438 -57.683594 -0.648438 -58.074219 C -0.648438 -58.421875 -0.542969 -58.636719 -0.324219 -58.726562 C -0.109375 -58.8125 0.0234375 -58.875 0.0664062 -58.921875 C 0.585938 -59.179688 1.417969 -59.582031 2.570312 -60.125 C 3.71875 -60.664062 5.027344 -61.273438 6.503906 -61.945312 C 7.976562 -62.617188 9.484375 -63.253906 11.023438 -63.863281 C 12.5625 -64.46875 13.980469 -64.980469 15.28125 -65.390625 C 16.582031 -65.804688 17.625 -66.007812 18.40625 -66.007812 C 19.359375 -66.007812 19.921875 -65.75 20.09375 -65.226562 C 20.269531 -64.707031 20.355469 -64.121094 20.355469 -63.472656 L 20.355469 -37.460938 C 20.441406 -37.460938 20.527344 -37.460938 20.617188 -37.460938 C 20.703125 -37.460938 20.765625 -37.460938 20.8125 -37.460938 C 21.332031 -37.460938 21.839844 -37.761719 22.339844 -38.371094 C 22.835938 -38.976562 23.421875 -39.734375 24.09375 -40.644531 C 24.765625 -41.554688 25.589844 -42.457031 26.566406 -43.34375 C 27.542969 -44.234375 28.777344 -44.980469 30.273438 -45.589844 C 31.769531 -46.195312 33.621094 -46.5 35.832031 -46.5 C 38.21875 -46.5 40.136719 -46.03125 41.589844 -45.101562 C 43.042969 -44.167969 44.15625 -42.933594 44.9375 -41.394531 C 45.71875 -39.855469 46.25 -38.195312 46.53125 -36.417969 C 46.8125 -34.640625 46.953125 -32.90625 46.953125 -31.214844 L 47.019531 -18.792969 L 47.019531 -7.675781 C 47.019531 -5.808594 47.183594 -4.28125 47.507812 -3.089844 C 47.832031 -1.898438 48.429688 -0.867188 49.296875 0 L 27.507812 0 C 28.375 -0.867188 28.972656 -1.898438 29.296875 -3.089844 C 29.621094 -4.28125 29.785156 -5.808594 29.785156 -7.675781 L 29.785156 -28.808594 C 29.785156 -30.328125 29.523438 -31.671875 29.003906 -32.84375 C 28.484375 -34.011719 27.507812 -34.597656 26.078125 -34.597656 C 25.082031 -34.597656 24.148438 -34.328125 23.28125 -33.785156 C 22.414062 -33.242188 21.710938 -32.3125 21.167969 -30.988281 C 20.625 -29.664062 20.355469 -27.789062 20.355469 -25.363281 L 20.355469 -7.675781 C 20.355469 -5.808594 20.519531 -4.28125 20.84375 -3.089844 C 21.167969 -1.898438 21.765625 -0.867188 22.632812 0 L 0.84375 0 C 1.710938 -0.867188 2.308594 -1.898438 2.632812 -3.089844 C 2.960938 -4.28125 3.121094 -5.808594 3.121094 -7.675781 L 3.121094 -52.15625 C 3.121094 -52.417969 3.109375 -52.894531 3.089844 -53.585938 C 3.066406 -54.28125 2.863281 -54.984375 2.472656 -55.699219 C 2.082031 -56.417969 1.367188 -56.902344 0.324219 -57.164062 Z M 0.324219 -57.164062 "/></g></g></g><g fill="#cd924c" fill-opacity="1"><g transform="translate(331.88675, 317.361667)"><g><path d="M 1.625 -10.144531 C 1.625 -13.613281 2.320312 -16.660156 3.707031 -19.28125 C 5.09375 -21.90625 6.96875 -24.160156 9.332031 -26.046875 C 11.695312 -27.933594 14.339844 -29.480469 17.265625 -30.695312 C 20.191406 -31.910156 23.171875 -32.84375 26.207031 -33.492188 C 27.164062 -33.707031 27.789062 -34.097656 28.09375 -34.664062 C 28.398438 -35.226562 28.550781 -35.789062 28.550781 -36.355469 C 28.550781 -37.308594 28.410156 -38.292969 28.125 -39.3125 C 27.84375 -40.332031 27.304688 -41.199219 26.5 -41.914062 C 25.699219 -42.628906 24.496094 -42.964844 22.890625 -42.921875 C 21.246094 -42.878906 19.75 -42.402344 18.40625 -41.492188 C 17.058594 -40.582031 15.835938 -39.464844 14.730469 -38.140625 C 13.625 -36.820312 12.59375 -35.496094 11.640625 -34.175781 C 10.6875 -32.851562 9.789062 -31.746094 8.941406 -30.859375 C 8.097656 -29.96875 7.261719 -29.523438 6.4375 -29.523438 C 5.917969 -29.523438 5.453125 -29.730469 5.039062 -30.144531 C 4.628906 -30.554688 4.421875 -31.042969 4.421875 -31.605469 L 4.421875 -35.183594 C 4.421875 -36.308594 4.433594 -37.414062 4.453125 -38.5 C 4.476562 -39.582031 4.898438 -40.515625 5.722656 -41.296875 C 7.933594 -43.421875 10.65625 -44.820312 13.882812 -45.492188 C 17.113281 -46.164062 20.441406 -46.5 23.867188 -46.5 C 27.597656 -46.5 30.847656 -45.925781 33.621094 -44.777344 C 36.398438 -43.625 38.683594 -42.109375 40.484375 -40.222656 C 42.28125 -38.335938 43.625 -36.246094 44.515625 -33.949219 C 45.402344 -31.648438 45.847656 -29.328125 45.847656 -26.988281 L 45.847656 -7.675781 C 45.847656 -5.808594 46.011719 -4.28125 46.335938 -3.089844 C 46.660156 -1.898438 47.257812 -0.867188 48.125 0 L 32.191406 0 C 30.285156 0 29.15625 -0.933594 28.808594 -2.796875 C 28.722656 -3.359375 28.539062 -3.878906 28.257812 -4.355469 C 27.976562 -4.835938 27.597656 -5.074219 27.117188 -5.074219 C 26.425781 -5.074219 25.742188 -4.769531 25.070312 -4.164062 C 24.398438 -3.554688 23.585938 -2.851562 22.632812 -2.046875 C 21.679688 -1.246094 20.453125 -0.542969 18.957031 0.0664062 C 17.460938 0.671875 15.542969 0.976562 13.203125 0.976562 C 11.121094 0.976562 9.203125 0.476562 7.445312 -0.519531 C 5.691406 -1.515625 4.28125 -2.851562 3.21875 -4.519531 C 2.15625 -6.1875 1.625 -8.0625 1.625 -10.144531 Z M 26.207031 -29.265625 C 24.820312 -29.265625 23.421875 -28.734375 22.015625 -27.671875 C 20.605469 -26.609375 19.445312 -25.113281 18.535156 -23.183594 C 17.625 -21.253906 17.167969 -18.945312 17.167969 -16.257812 C 17.167969 -14.742188 17.351562 -13.300781 17.722656 -11.933594 C 18.089844 -10.566406 18.71875 -9.453125 19.609375 -8.585938 C 20.496094 -7.71875 21.742188 -7.285156 23.347656 -7.285156 C 25.125 -7.285156 26.445312 -7.988281 27.3125 -9.398438 C 28.179688 -10.804688 28.613281 -12.574219 28.613281 -14.699219 C 28.613281 -16.734375 28.605469 -18.503906 28.582031 -19.996094 C 28.558594 -21.492188 28.550781 -23.238281 28.550781 -25.234375 C 28.550781 -26.707031 28.375 -27.746094 28.03125 -28.355469 C 27.683594 -28.960938 27.074219 -29.265625 26.207031 -29.265625 Z M 26.207031 -29.265625 "/></g></g></g><g fill="#cd924c" fill-opacity="1"><g transform="translate(380.329527, 317.361667)"><g><path d="M 23.085938 0 L 1.300781 0 C 2.167969 -0.867188 2.765625 -1.898438 3.089844 -3.089844 C 3.414062 -4.28125 3.578125 -5.808594 3.578125 -7.675781 L 3.578125 -37.847656 C 3.578125 -39.714844 3.414062 -41.242188 3.089844 -42.433594 C 2.765625 -43.625 2.167969 -44.65625 1.300781 -45.523438 L 17.234375 -45.523438 C 18.621094 -45.523438 19.5625 -45.035156 20.0625 -44.058594 C 20.5625 -43.085938 20.8125 -41.773438 20.8125 -40.125 L 20.8125 -39.019531 C 20.8125 -38.238281 20.855469 -37.785156 20.941406 -37.652344 C 21.027344 -37.523438 21.136719 -37.460938 21.265625 -37.460938 C 21.785156 -37.460938 22.296875 -37.761719 22.792969 -38.371094 C 23.292969 -38.976562 23.878906 -39.734375 24.550781 -40.644531 C 25.222656 -41.554688 26.046875 -42.457031 27.019531 -43.34375 C 27.996094 -44.234375 29.234375 -44.980469 30.726562 -45.589844 C 32.222656 -46.195312 34.078125 -46.5 36.289062 -46.5 C 39.453125 -46.5 41.828125 -45.6875 43.410156 -44.058594 C 44.992188 -42.433594 46.066406 -40.472656 46.628906 -38.175781 C 46.84375 -37.742188 47.085938 -37.511719 47.34375 -37.492188 C 47.605469 -37.46875 47.777344 -37.460938 47.863281 -37.460938 C 48.382812 -37.460938 48.894531 -37.761719 49.394531 -38.371094 C 49.890625 -38.976562 50.476562 -39.734375 51.148438 -40.644531 C 51.820312 -41.554688 52.644531 -42.457031 53.621094 -43.34375 C 54.59375 -44.234375 55.832031 -44.980469 57.328125 -45.589844 C 58.824219 -46.195312 60.675781 -46.5 62.886719 -46.5 C 65.273438 -46.5 67.191406 -46.03125 68.644531 -45.101562 C 70.09375 -44.167969 71.210938 -42.933594 71.992188 -41.394531 C 72.773438 -39.855469 73.304688 -38.195312 73.585938 -36.417969 C 73.867188 -34.640625 74.007812 -32.90625 74.007812 -31.214844 L 74.074219 -18.792969 L 74.074219 -7.675781 C 74.074219 -5.808594 74.234375 -4.28125 74.5625 -3.089844 C 74.886719 -1.898438 75.480469 -0.867188 76.347656 0 L 54.5625 0 C 55.429688 -0.867188 56.027344 -1.898438 56.351562 -3.089844 C 56.675781 -4.28125 56.839844 -5.808594 56.839844 -7.675781 L 56.839844 -28.808594 C 56.839844 -30.328125 56.578125 -31.671875 56.058594 -32.84375 C 55.539062 -34.011719 54.5625 -34.597656 53.132812 -34.597656 C 51.746094 -34.597656 50.488281 -34.035156 49.359375 -32.90625 C 48.234375 -31.78125 47.582031 -29.65625 47.410156 -26.535156 L 47.472656 -18.792969 L 47.472656 -7.675781 C 47.472656 -5.808594 47.636719 -4.28125 47.960938 -3.089844 C 48.289062 -1.898438 48.882812 -0.867188 49.75 0 L 27.964844 0 C 28.832031 -0.867188 29.425781 -1.898438 29.753906 -3.089844 C 30.078125 -4.28125 30.242188 -5.808594 30.242188 -7.675781 L 30.242188 -28.808594 C 30.242188 -30.328125 29.980469 -31.671875 29.460938 -32.84375 C 28.941406 -34.011719 27.964844 -34.597656 26.535156 -34.597656 C 25.535156 -34.597656 24.605469 -34.328125 23.738281 -33.785156 C 22.871094 -33.242188 22.164062 -32.3125 21.625 -30.988281 C 21.082031 -29.664062 20.8125 -27.789062 20.8125 -25.363281 L 20.8125 -7.675781 C 20.8125 -5.808594 20.972656 -4.28125 21.296875 -3.089844 C 21.625 -1.898438 22.21875 -0.867188 23.085938 0 Z M 23.085938 0 "/></g></g></g><g fill="#cd924c" fill-opacity="1"><g transform="translate(456.992673, 317.361667)"><g><path d="M -0.648438 -58.074219 C -0.648438 -58.421875 -0.542969 -58.636719 -0.324219 -58.726562 C -0.109375 -58.8125 0.0234375 -58.875 0.0664062 -58.921875 C 0.585938 -59.136719 1.417969 -59.515625 2.570312 -60.058594 C 3.71875 -60.601562 5.039062 -61.207031 6.535156 -61.878906 C 8.03125 -62.550781 9.539062 -63.203125 11.054688 -63.832031 C 12.574219 -64.457031 13.980469 -64.980469 15.28125 -65.390625 C 16.582031 -65.804688 17.625 -66.007812 18.40625 -66.007812 C 19.359375 -66.007812 19.921875 -65.75 20.09375 -65.226562 C 20.269531 -64.707031 20.355469 -64.121094 20.355469 -63.472656 L 20.355469 -42.011719 C 20.484375 -41.707031 20.636719 -41.523438 20.8125 -41.457031 C 20.984375 -41.394531 21.179688 -41.359375 21.394531 -41.359375 C 21.742188 -41.359375 22.164062 -41.621094 22.664062 -42.140625 C 23.164062 -42.660156 23.824219 -43.257812 24.648438 -43.929688 C 25.472656 -44.601562 26.5 -45.199219 27.738281 -45.71875 C 28.972656 -46.238281 30.5 -46.5 32.320312 -46.5 C 35.53125 -46.5 38.292969 -45.773438 40.613281 -44.320312 C 42.933594 -42.867188 44.839844 -40.949219 46.335938 -38.566406 C 47.832031 -36.179688 48.9375 -33.535156 49.652344 -30.628906 C 50.367188 -27.726562 50.726562 -24.800781 50.726562 -21.851562 C 50.726562 -17.644531 50.011719 -13.820312 48.578125 -10.371094 C 47.148438 -6.925781 45.058594 -4.171875 42.304688 -2.113281 C 39.550781 -0.0546875 36.222656 0.976562 32.320312 0.976562 C 30.628906 0.976562 28.851562 0.554688 26.988281 -0.292969 C 25.125 -1.136719 23.304688 -2.949219 21.527344 -5.722656 C 21.308594 -6.070312 21.058594 -6.320312 20.777344 -6.472656 C 20.496094 -6.621094 20.355469 -6.460938 20.355469 -5.984375 L 20.355469 -5.332031 C 20.355469 -3.683594 20.105469 -2.382812 19.609375 -1.429688 C 19.109375 -0.476562 18.164062 0 16.777344 0 L 0.84375 0 C 1.710938 -0.867188 2.308594 -1.898438 2.632812 -3.089844 C 2.960938 -4.28125 3.121094 -5.808594 3.121094 -7.675781 L 3.121094 -52.15625 C 3.121094 -52.417969 3.101562 -52.882812 3.054688 -53.554688 C 3.011719 -54.226562 2.808594 -54.910156 2.4375 -55.601562 C 2.070312 -56.296875 1.367188 -56.816406 0.324219 -57.164062 C 0.238281 -57.207031 0.0546875 -57.273438 -0.226562 -57.359375 C -0.507812 -57.445312 -0.648438 -57.683594 -0.648438 -58.074219 Z M 20.355469 -17.429688 C 20.355469 -16.519531 20.410156 -15.488281 20.519531 -14.339844 C 20.625 -13.191406 20.875 -12.0625 21.265625 -10.957031 C 21.65625 -9.851562 22.230469 -8.941406 22.988281 -8.226562 C 23.746094 -7.511719 24.777344 -7.152344 26.078125 -7.152344 C 27.898438 -7.152344 29.320312 -7.652344 30.339844 -8.648438 C 31.355469 -9.648438 32.09375 -10.957031 32.550781 -12.582031 C 33.003906 -14.210938 33.285156 -16 33.394531 -17.949219 C 33.503906 -19.898438 33.558594 -21.808594 33.558594 -23.671875 C 33.558594 -25.449219 33.449219 -27.269531 33.230469 -29.136719 C 33.015625 -31 32.601562 -32.734375 31.996094 -34.335938 C 31.390625 -35.941406 30.53125 -37.230469 29.425781 -38.207031 C 28.320312 -39.183594 26.859375 -39.671875 25.039062 -39.671875 C 24.039062 -39.671875 23.226562 -39.335938 22.597656 -38.664062 C 21.96875 -37.992188 21.492188 -37.144531 21.167969 -36.125 C 20.84375 -35.105469 20.625 -34.054688 20.519531 -32.972656 C 20.410156 -31.886719 20.355469 -30.933594 20.355469 -30.109375 Z M 20.355469 -17.429688 "/></g></g></g><g fill="#cd924c" fill-opacity="1"><g transform="translate(509.33691, 317.361667)"><g><path d="M 0.648438 0 C 1.515625 -0.867188 2.113281 -1.898438 2.4375 -3.089844 C 2.765625 -4.28125 2.925781 -5.808594 2.925781 -7.675781 L 2.925781 -37.847656 C 2.925781 -39.714844 2.765625 -41.242188 2.4375 -42.433594 C 2.113281 -43.625 1.515625 -44.65625 0.648438 -45.523438 L 16.582031 -45.523438 C 17.972656 -45.523438 18.914062 -45.035156 19.414062 -44.058594 C 19.910156 -43.085938 20.160156 -41.773438 20.160156 -40.125 L 20.160156 -39.019531 C 20.160156 -38.238281 20.203125 -37.785156 20.289062 -37.652344 C 20.378906 -37.523438 20.484375 -37.460938 20.617188 -37.460938 C 21.09375 -37.460938 21.558594 -37.761719 22.015625 -38.371094 C 22.46875 -38.976562 23 -39.734375 23.605469 -40.644531 C 24.214844 -41.554688 24.996094 -42.457031 25.949219 -43.34375 C 26.902344 -44.234375 28.082031 -44.980469 29.492188 -45.589844 C 30.902344 -46.195312 32.625 -46.5 34.664062 -46.5 C 35.832031 -46.5 37.046875 -46.347656 38.304688 -46.042969 C 39.5625 -45.738281 40.625 -45.304688 41.492188 -44.742188 C 42.359375 -44.179688 42.792969 -43.464844 42.792969 -42.597656 C 42.792969 -42.207031 42.414062 -41.285156 41.652344 -39.832031 C 40.894531 -38.378906 40.105469 -36.832031 39.28125 -35.183594 C 38.371094 -33.40625 37.546875 -31.789062 36.808594 -30.339844 C 36.070312 -28.886719 35.398438 -28.160156 34.792969 -28.160156 C 34.097656 -28.160156 33.558594 -28.453125 33.167969 -29.039062 C 32.777344 -29.621094 32.363281 -30.285156 31.929688 -31.019531 C 31.496094 -31.757812 30.859375 -32.417969 30.011719 -33.003906 C 29.167969 -33.589844 27.964844 -33.882812 26.402344 -33.882812 C 24.582031 -33.882812 23.226562 -33.417969 22.339844 -32.484375 C 21.449219 -31.550781 20.863281 -30.4375 20.582031 -29.136719 C 20.300781 -27.835938 20.160156 -26.578125 20.160156 -25.363281 L 20.160156 -7.675781 C 20.160156 -5.808594 20.324219 -4.28125 20.648438 -3.089844 C 20.972656 -1.898438 21.570312 -0.867188 22.4375 0 Z M 0.648438 0 "/></g></g></g><g fill="#cd924c" fill-opacity="1"><g transform="translate(552.772854, 317.361667)"><g><path d="M 0 -38.566406 C 0 -38.910156 0.109375 -39.128906 0.324219 -39.214844 C 0.542969 -39.300781 0.671875 -39.367188 0.714844 -39.410156 C 1.234375 -39.671875 2.046875 -40.070312 3.152344 -40.613281 C 4.257812 -41.15625 5.515625 -41.761719 6.925781 -42.433594 C 8.335938 -43.105469 9.777344 -43.746094 11.25 -44.351562 C 12.726562 -44.960938 14.089844 -45.46875 15.347656 -45.882812 C 16.605469 -46.292969 17.625 -46.5 18.40625 -46.5 C 19.359375 -46.5 19.921875 -46.238281 20.09375 -45.71875 C 20.269531 -45.199219 20.355469 -44.613281 20.355469 -43.960938 L 20.355469 -7.675781 C 20.355469 -5.808594 20.519531 -4.28125 20.84375 -3.089844 C 21.167969 -1.898438 21.765625 -0.867188 22.632812 0 L 0.84375 0 C 1.710938 -0.867188 2.308594 -1.898438 2.632812 -3.089844 C 2.960938 -4.28125 3.121094 -5.808594 3.121094 -7.675781 L 3.121094 -32.648438 C 3.121094 -32.90625 3.109375 -33.382812 3.089844 -34.078125 C 3.066406 -34.769531 2.914062 -35.476562 2.632812 -36.191406 C 2.351562 -36.90625 1.800781 -37.394531 0.976562 -37.652344 C 0.890625 -37.699219 0.703125 -37.761719 0.421875 -37.847656 C 0.140625 -37.9375 0 -38.175781 0 -38.566406 Z M 11.574219 -68.871094 C 14.4375 -68.871094 16.734375 -68.003906 18.46875 -66.269531 C 20.203125 -64.535156 21.070312 -62.238281 21.070312 -59.375 C 21.070312 -56.515625 20.203125 -54.214844 18.46875 -52.480469 C 16.734375 -50.746094 14.4375 -49.878906 11.574219 -49.878906 C 8.714844 -49.878906 6.417969 -50.746094 4.683594 -52.480469 C 2.949219 -54.214844 2.082031 -56.515625 2.082031 -59.375 C 2.082031 -62.238281 2.949219 -64.535156 4.683594 -66.269531 C 6.417969 -68.003906 8.714844 -68.871094 11.574219 -68.871094 Z M 11.574219 -68.871094 "/></g></g></g><g fill="#cd924c" fill-opacity="1"><g transform="translate(575.726287, 317.361667)"><g><path d="M 0 -45.523438 C 1.300781 -45.523438 2.753906 -45.980469 4.355469 -46.890625 C 5.960938 -47.800781 7.585938 -48.9375 9.234375 -50.304688 C 10.882812 -51.667969 12.441406 -53.023438 13.917969 -54.367188 C 15.390625 -55.710938 16.691406 -56.839844 17.820312 -57.75 C 18.945312 -58.660156 19.769531 -59.117188 20.289062 -59.117188 C 21.113281 -59.117188 21.527344 -58.59375 21.527344 -57.554688 L 21.527344 -45.523438 L 27.117188 -45.523438 L 27.117188 -42.273438 L 21.527344 -42.273438 L 21.527344 -16 C 21.527344 -14.308594 21.546875 -12.617188 21.589844 -10.925781 C 21.632812 -9.234375 21.871094 -7.71875 22.304688 -6.375 C 22.738281 -5.027344 23.519531 -3.988281 24.648438 -3.25 C 24.90625 -3.078125 25.179688 -2.992188 25.460938 -2.992188 C 25.742188 -2.992188 26.035156 -2.949219 26.339844 -2.863281 C 26.25 -2.082031 25.828125 -1.398438 25.070312 -0.8125 C 24.3125 -0.226562 23.410156 0.214844 22.371094 0.519531 C 21.332031 0.824219 20.289062 0.976562 19.25 0.976562 C 16.128906 0.976562 13.625 0.457031 11.738281 -0.585938 C 9.851562 -1.625 8.421875 -3.023438 7.445312 -4.78125 C 6.472656 -6.535156 5.820312 -8.496094 5.496094 -10.664062 C 5.171875 -12.832031 5.007812 -15.023438 5.007812 -17.234375 L 5.007812 -38.109375 C 5.007812 -38.761719 4.976562 -39.410156 4.910156 -40.058594 C 4.84375 -40.710938 4.605469 -41.242188 4.195312 -41.652344 C 3.78125 -42.066406 3.054688 -42.273438 2.015625 -42.273438 L 0 -42.273438 Z M 0 -45.523438 "/></g></g></g><g fill="#cd924c" fill-opacity="1"><g transform="translate(603.491473, 317.361667)"><g><path d="M 1.625 -10.144531 C 1.625 -13.613281 2.320312 -16.660156 3.707031 -19.28125 C 5.09375 -21.90625 6.96875 -24.160156 9.332031 -26.046875 C 11.695312 -27.933594 14.339844 -29.480469 17.265625 -30.695312 C 20.191406 -31.910156 23.171875 -32.84375 26.207031 -33.492188 C 27.164062 -33.707031 27.789062 -34.097656 28.09375 -34.664062 C 28.398438 -35.226562 28.550781 -35.789062 28.550781 -36.355469 C 28.550781 -37.308594 28.410156 -38.292969 28.125 -39.3125 C 27.84375 -40.332031 27.304688 -41.199219 26.5 -41.914062 C 25.699219 -42.628906 24.496094 -42.964844 22.890625 -42.921875 C 21.246094 -42.878906 19.75 -42.402344 18.40625 -41.492188 C 17.058594 -40.582031 15.835938 -39.464844 14.730469 -38.140625 C 13.625 -36.820312 12.59375 -35.496094 11.640625 -34.175781 C 10.6875 -32.851562 9.789062 -31.746094 8.941406 -30.859375 C 8.097656 -29.96875 7.261719 -29.523438 6.4375 -29.523438 C 5.917969 -29.523438 5.453125 -29.730469 5.039062 -30.144531 C 4.628906 -30.554688 4.421875 -31.042969 4.421875 -31.605469 L 4.421875 -35.183594 C 4.421875 -36.308594 4.433594 -37.414062 4.453125 -38.5 C 4.476562 -39.582031 4.898438 -40.515625 5.722656 -41.296875 C 7.933594 -43.421875 10.65625 -44.820312 13.882812 -45.492188 C 17.113281 -46.164062 20.441406 -46.5 23.867188 -46.5 C 27.597656 -46.5 30.847656 -45.925781 33.621094 -44.777344 C 36.398438 -43.625 38.683594 -42.109375 40.484375 -40.222656 C 42.28125 -38.335938 43.625 -36.246094 44.515625 -33.949219 C 45.402344 -31.648438 45.847656 -29.328125 45.847656 -26.988281 L 45.847656 -7.675781 C 45.847656 -5.808594 46.011719 -4.28125 46.335938 -3.089844 C 46.660156 -1.898438 47.257812 -0.867188 48.125 0 L 32.191406 0 C 30.285156 0 29.15625 -0.933594 28.808594 -2.796875 C 28.722656 -3.359375 28.539062 -3.878906 28.257812 -4.355469 C 27.976562 -4.835938 27.597656 -5.074219 27.117188 -5.074219 C 26.425781 -5.074219 25.742188 -4.769531 25.070312 -4.164062 C 24.398438 -3.554688 23.585938 -2.851562 22.632812 -2.046875 C 21.679688 -1.246094 20.453125 -0.542969 18.957031 0.0664062 C 17.460938 0.671875 15.542969 0.976562 13.203125 0.976562 C 11.121094 0.976562 9.203125 0.476562 7.445312 -0.519531 C 5.691406 -1.515625 4.28125 -2.851562 3.21875 -4.519531 C 2.15625 -6.1875 1.625 -8.0625 1.625 -10.144531 Z M 26.207031 -29.265625 C 24.820312 -29.265625 23.421875 -28.734375 22.015625 -27.671875 C 20.605469 -26.609375 19.445312 -25.113281 18.535156 -23.183594 C 17.625 -21.253906 17.167969 -18.945312 17.167969 -16.257812 C 17.167969 -14.742188 17.351562 -13.300781 17.722656 -11.933594 C 18.089844 -10.566406 18.71875 -9.453125 19.609375 -8.585938 C 20.496094 -7.71875 21.742188 -7.285156 23.347656 -7.285156 C 25.125 -7.285156 26.445312 -7.988281 27.3125 -9.398438 C 28.179688 -10.804688 28.613281 -12.574219 28.613281 -14.699219 C 28.613281 -16.734375 28.605469 -18.503906 28.582031 -19.996094 C 28.558594 -21.492188 28.550781 -23.238281 28.550781 -25.234375 C 28.550781 -26.707031 28.375 -27.746094 28.03125 -28.355469 C 27.683594 -28.960938 27.074219 -29.265625 26.207031 -29.265625 Z M 26.207031 -29.265625 "/></g></g></g><g fill="#cd924c" fill-opacity="1"><g transform="translate(651.93425, 317.361667)"><g><path d="M 0.976562 -32.515625 C 0.976562 -35.246094 1.59375 -37.511719 2.828125 -39.3125 C 4.066406 -41.113281 5.710938 -42.53125 7.769531 -43.574219 C 9.832031 -44.613281 12.085938 -45.359375 14.535156 -45.816406 C 16.984375 -46.269531 19.445312 -46.5 21.917969 -46.5 C 24.777344 -46.5 27.464844 -46.269531 29.980469 -45.816406 C 32.496094 -45.359375 34.71875 -44.753906 36.644531 -43.996094 C 38.574219 -43.234375 40.082031 -42.402344 41.167969 -41.492188 C 42.25 -40.582031 42.792969 -39.648438 42.792969 -38.695312 C 42.792969 -37.265625 42.457031 -35.867188 41.785156 -34.5 C 41.113281 -33.132812 40.300781 -32.019531 39.34375 -31.152344 C 38.390625 -30.285156 37.523438 -29.851562 36.742188 -29.851562 C 35.007812 -29.851562 33.363281 -30.285156 31.800781 -31.152344 C 30.242188 -32.019531 28.722656 -33.089844 27.25 -34.371094 C 25.773438 -35.648438 24.3125 -36.917969 22.859375 -38.175781 C 21.40625 -39.433594 19.933594 -40.492188 18.4375 -41.359375 C 16.941406 -42.226562 15.371094 -42.660156 13.722656 -42.660156 C 12.984375 -42.660156 12.203125 -42.511719 11.378906 -42.207031 C 10.558594 -41.902344 9.875 -41.425781 9.332031 -40.777344 C 8.789062 -40.125 8.519531 -39.257812 8.519531 -38.175781 C 8.519531 -37.132812 8.953125 -36.265625 9.820312 -35.574219 C 10.6875 -34.878906 11.867188 -34.316406 13.363281 -33.882812 C 14.859375 -33.449219 16.519531 -33.058594 18.339844 -32.710938 C 21.199219 -32.191406 24.074219 -31.550781 26.957031 -30.792969 C 29.839844 -30.035156 32.460938 -29.003906 34.824219 -27.703125 C 37.1875 -26.402344 39.085938 -24.703125 40.515625 -22.597656 C 41.945312 -20.496094 42.660156 -17.882812 42.660156 -14.761719 C 42.660156 -11.769531 42 -9.257812 40.679688 -7.21875 C 39.355469 -5.179688 37.675781 -3.566406 35.636719 -2.375 C 33.601562 -1.179688 31.464844 -0.324219 29.234375 0.195312 C 27 0.714844 24.972656 0.976562 23.152344 0.976562 C 20.941406 0.976562 18.566406 0.824219 16.03125 0.519531 C 13.496094 0.214844 11.109375 -0.195312 8.878906 -0.714844 C 6.644531 -1.234375 4.824219 -1.851562 3.414062 -2.570312 C 2.003906 -3.285156 1.300781 -4.054688 1.300781 -4.878906 C 1.300781 -5.570312 1.496094 -6.578125 1.886719 -7.902344 C 2.277344 -9.222656 2.785156 -10.589844 3.414062 -12 C 4.042969 -13.40625 4.726562 -14.601562 5.460938 -15.574219 C 6.199219 -16.550781 6.894531 -17.039062 7.542969 -17.039062 C 8.542969 -17.039062 9.710938 -16.605469 11.054688 -15.738281 C 12.398438 -14.871094 13.972656 -13.875 15.769531 -12.746094 C 17.570312 -11.621094 19.640625 -10.621094 21.980469 -9.753906 C 24.324219 -8.886719 26.988281 -8.453125 29.980469 -8.453125 C 31.496094 -8.453125 32.949219 -8.714844 34.335938 -9.234375 C 35.726562 -9.753906 36.875 -10.46875 37.785156 -11.378906 C 38.695312 -12.292969 39.148438 -13.308594 39.148438 -14.4375 C 39.148438 -15.21875 38.910156 -15.75 38.433594 -16.03125 C 37.957031 -16.3125 37.285156 -16.453125 36.417969 -16.453125 C 35.203125 -16.453125 33.65625 -16.3125 31.769531 -16.03125 C 29.882812 -15.75 27.703125 -15.609375 25.234375 -15.609375 C 22.589844 -15.609375 19.855469 -15.890625 17.039062 -16.453125 C 14.21875 -17.015625 11.597656 -17.960938 9.167969 -19.28125 C 6.742188 -20.605469 4.769531 -22.351562 3.25 -24.515625 C 1.734375 -26.683594 0.976562 -29.351562 0.976562 -32.515625 Z M 0.976562 -32.515625 "/></g></g></g></svg>